G04 #@! TF.GenerationSoftware,KiCad,Pcbnew,(5.1.10-1-10_14)*
G04 #@! TF.CreationDate,2021-11-14T21:27:09+03:00*
G04 #@! TF.ProjectId,IR_iButton,49525f69-4275-4747-946f-6e2e6b696361,rev?*
G04 #@! TF.SameCoordinates,Original*
G04 #@! TF.FileFunction,Paste,Top*
G04 #@! TF.FilePolarity,Positive*
%FSLAX46Y46*%
G04 Gerber Fmt 4.6, Leading zero omitted, Abs format (unit mm)*
G04 Created by KiCad (PCBNEW (5.1.10-1-10_14)) date 2021-11-14 21:27:09*
%MOMM*%
%LPD*%
G01*
G04 APERTURE LIST*
%ADD10C,0.500000*%
%ADD11R,2.000000X0.400000*%
%ADD12C,2.700000*%
%ADD13R,0.650000X1.200000*%
%ADD14R,1.200000X0.650000*%
G04 APERTURE END LIST*
D10*
X198000000Y-116200000D03*
X198000000Y-105800000D03*
D11*
X194000000Y-115200000D03*
X194000000Y-114500000D03*
X194000000Y-113800000D03*
X194000000Y-113100000D03*
X194000000Y-112400000D03*
X194000000Y-111700000D03*
X194000000Y-111000000D03*
X194000000Y-110300000D03*
X194000000Y-109600000D03*
X194000000Y-108900000D03*
X194000000Y-108200000D03*
X194000000Y-107500000D03*
X194000000Y-106800000D03*
D12*
X229100000Y-102900000D03*
D13*
X212775000Y-115100000D03*
X210625000Y-115075000D03*
X212775000Y-119225000D03*
X210625000Y-119225000D03*
D14*
X227490000Y-117685000D03*
X227515000Y-115535000D03*
X223365000Y-117685000D03*
X223365000Y-115535000D03*
D13*
X212975000Y-102850000D03*
X210825000Y-102825000D03*
X212975000Y-106975000D03*
X210825000Y-106975000D03*
X217175000Y-109050000D03*
X215025000Y-109025000D03*
X217175000Y-113175000D03*
X215025000Y-113175000D03*
G36*
G01*
X223450000Y-107743750D02*
X223450000Y-108656250D01*
G75*
G02*
X223206250Y-108900000I-243750J0D01*
G01*
X222718750Y-108900000D01*
G75*
G02*
X222475000Y-108656250I0J243750D01*
G01*
X222475000Y-107743750D01*
G75*
G02*
X222718750Y-107500000I243750J0D01*
G01*
X223206250Y-107500000D01*
G75*
G02*
X223450000Y-107743750I0J-243750D01*
G01*
G37*
G36*
G01*
X225325000Y-107743750D02*
X225325000Y-108656250D01*
G75*
G02*
X225081250Y-108900000I-243750J0D01*
G01*
X224593750Y-108900000D01*
G75*
G02*
X224350000Y-108656250I0J243750D01*
G01*
X224350000Y-107743750D01*
G75*
G02*
X224593750Y-107500000I243750J0D01*
G01*
X225081250Y-107500000D01*
G75*
G02*
X225325000Y-107743750I0J-243750D01*
G01*
G37*
M02*
