M48
INCH,TZ
T1C0.0157
T2C0.0236
T3C0.0300
T4C0.0354
T5C0.0394
T6C0.0472
%
G90
G05
T1
X70197Y-43307
X70197Y-44173
X72283Y-43661
X72323Y-40807
X74094Y-40748
X74970Y-44646
X75276Y-44724
X75571Y-43012
X75610Y-44626
X75630Y-42598
X76122Y-45886
X77087Y-41772
X77156Y-44252
X77165Y-42500
X77165Y-42874
X77165Y-43484
X77175Y-44902
X77667Y-45541
X77717Y-40236
X77736Y-43248
X77776Y-42264
X77835Y-40758
X77972Y-44951
X78105Y-41983
X78435Y-41654
X78465Y-40748
X78504Y-45984
X78652Y-45148
X78898Y-42008
X78962Y-45349
X79114Y-43563
X79409Y-40945
X79409Y-41969
X80217Y-44616
X80433Y-41535
X80620Y-43996
X80787Y-43701
X80827Y-42953
X81014Y-44764
X81201Y-40089
X81319Y-43976
X81407Y-42913
X81417Y-42520
X81880Y-45837
X82067Y-41358
X82579Y-41358
X82913Y-43583
X83031Y-46220
X83091Y-41319
X83228Y-43425
X83228Y-46417
X83346Y-40551
X83346Y-42441
X83543Y-44173
X84567Y-45748
X85039Y-42648
X85039Y-43583
X85079Y-44213
X85965Y-44862
X87047Y-41693
X87244Y-45354
X87579Y-43465
X88750Y-45443
X89252Y-42598
T3
X68110Y-43701
X68622Y-45276
T4
X71614Y-40378
X71614Y-41378
X71614Y-46047
X71614Y-47047
X73228Y-42740
X73228Y-43740
X73228Y-44740
T5
X85551Y-40472
X86551Y-40472
X87551Y-40472
T6
X89331Y-41339
T2
G00X88669Y-43654
M15
G01X88236Y-43654
M16
G05
G00X88669Y-47055
M15
G01X88236Y-47055
M16
G05
G00X90217Y-43654
M15
G01X89980Y-43654
M16
G05
G00X90217Y-47055
M15
G01X89980Y-47055
M16
G05
T0
M30
