G04 #@! TF.GenerationSoftware,KiCad,Pcbnew,(5.1.10-1-10_14)*
G04 #@! TF.CreationDate,2021-11-14T21:27:09+03:00*
G04 #@! TF.ProjectId,IR_iButton,49525f69-4275-4747-946f-6e2e6b696361,rev?*
G04 #@! TF.SameCoordinates,Original*
G04 #@! TF.FileFunction,Copper,L1,Top*
G04 #@! TF.FilePolarity,Positive*
%FSLAX46Y46*%
G04 Gerber Fmt 4.6, Leading zero omitted, Abs format (unit mm)*
G04 Created by KiCad (PCBNEW (5.1.10-1-10_14)) date 2021-11-14 21:27:09*
%MOMM*%
%LPD*%
G01*
G04 APERTURE LIST*
G04 #@! TA.AperFunction,SMDPad,CuDef*
%ADD10C,0.500000*%
G04 #@! TD*
G04 #@! TA.AperFunction,SMDPad,CuDef*
%ADD11R,2.000000X0.400000*%
G04 #@! TD*
G04 #@! TA.AperFunction,SMDPad,CuDef*
%ADD12C,2.700000*%
G04 #@! TD*
G04 #@! TA.AperFunction,ComponentPad*
%ADD13C,1.700000*%
G04 #@! TD*
G04 #@! TA.AperFunction,ComponentPad*
%ADD14O,2.100000X1.000000*%
G04 #@! TD*
G04 #@! TA.AperFunction,ComponentPad*
%ADD15O,1.600000X1.000000*%
G04 #@! TD*
G04 #@! TA.AperFunction,SMDPad,CuDef*
%ADD16R,0.650000X1.200000*%
G04 #@! TD*
G04 #@! TA.AperFunction,SMDPad,CuDef*
%ADD17R,1.200000X0.650000*%
G04 #@! TD*
G04 #@! TA.AperFunction,ComponentPad*
%ADD18O,1.700000X1.700000*%
G04 #@! TD*
G04 #@! TA.AperFunction,ComponentPad*
%ADD19R,1.700000X1.700000*%
G04 #@! TD*
G04 #@! TA.AperFunction,ComponentPad*
%ADD20R,1.524000X2.000000*%
G04 #@! TD*
G04 #@! TA.AperFunction,ComponentPad*
%ADD21R,2.000000X1.524000*%
G04 #@! TD*
G04 #@! TA.AperFunction,ComponentPad*
%ADD22C,1.800000*%
G04 #@! TD*
G04 #@! TA.AperFunction,ComponentPad*
%ADD23R,1.800000X1.800000*%
G04 #@! TD*
G04 #@! TA.AperFunction,ViaPad*
%ADD24C,0.600000*%
G04 #@! TD*
G04 #@! TA.AperFunction,ViaPad*
%ADD25C,0.800000*%
G04 #@! TD*
G04 #@! TA.AperFunction,Conductor*
%ADD26C,0.500000*%
G04 #@! TD*
G04 #@! TA.AperFunction,Conductor*
%ADD27C,0.250000*%
G04 #@! TD*
G04 #@! TA.AperFunction,Conductor*
%ADD28C,0.300000*%
G04 #@! TD*
G04 #@! TA.AperFunction,Conductor*
%ADD29C,0.254000*%
G04 #@! TD*
G04 #@! TA.AperFunction,Conductor*
%ADD30C,0.100000*%
G04 #@! TD*
G04 APERTURE END LIST*
D10*
X198000000Y-116200000D03*
X198000000Y-105800000D03*
D11*
X194000000Y-115200000D03*
X194000000Y-114500000D03*
X194000000Y-113800000D03*
X194000000Y-113100000D03*
X194000000Y-112400000D03*
X194000000Y-111700000D03*
X194000000Y-111000000D03*
X194000000Y-110300000D03*
X194000000Y-109600000D03*
X194000000Y-108900000D03*
X194000000Y-108200000D03*
X194000000Y-107500000D03*
X194000000Y-106800000D03*
D12*
X229100000Y-102900000D03*
D13*
X226900000Y-105000000D03*
D14*
X224670000Y-119520000D03*
X224670000Y-110880000D03*
D15*
X228850000Y-110880000D03*
X228850000Y-119520000D03*
D16*
X212775000Y-115100000D03*
X210625000Y-115075000D03*
X212775000Y-119225000D03*
X210625000Y-119225000D03*
D17*
X227490000Y-117685000D03*
X227515000Y-115535000D03*
X223365000Y-117685000D03*
X223365000Y-115535000D03*
D16*
X212975000Y-102850000D03*
X210825000Y-102825000D03*
X212975000Y-106975000D03*
X210825000Y-106975000D03*
X217175000Y-109050000D03*
X215025000Y-109025000D03*
X217175000Y-113175000D03*
X215025000Y-113175000D03*
G04 #@! TA.AperFunction,SMDPad,CuDef*
G36*
G01*
X223450000Y-107743750D02*
X223450000Y-108656250D01*
G75*
G02*
X223206250Y-108900000I-243750J0D01*
G01*
X222718750Y-108900000D01*
G75*
G02*
X222475000Y-108656250I0J243750D01*
G01*
X222475000Y-107743750D01*
G75*
G02*
X222718750Y-107500000I243750J0D01*
G01*
X223206250Y-107500000D01*
G75*
G02*
X223450000Y-107743750I0J-243750D01*
G01*
G37*
G04 #@! TD.AperFunction*
G04 #@! TA.AperFunction,SMDPad,CuDef*
G36*
G01*
X225325000Y-107743750D02*
X225325000Y-108656250D01*
G75*
G02*
X225081250Y-108900000I-243750J0D01*
G01*
X224593750Y-108900000D01*
G75*
G02*
X224350000Y-108656250I0J243750D01*
G01*
X224350000Y-107743750D01*
G75*
G02*
X224593750Y-107500000I243750J0D01*
G01*
X225081250Y-107500000D01*
G75*
G02*
X225325000Y-107743750I0J-243750D01*
G01*
G37*
G04 #@! TD.AperFunction*
D18*
X222380000Y-102800000D03*
X219840000Y-102800000D03*
D19*
X217300000Y-102800000D03*
D20*
X173000000Y-111000000D03*
D21*
X174300000Y-115000000D03*
D22*
X181900000Y-105100000D03*
D23*
X181900000Y-102560000D03*
D22*
X181900000Y-116960000D03*
D23*
X181900000Y-119500000D03*
D22*
X186000000Y-113640000D03*
X186000000Y-111100000D03*
G04 #@! TA.AperFunction,ComponentPad*
G36*
G01*
X185350200Y-107660000D02*
X186649800Y-107660000D01*
G75*
G02*
X186900000Y-107910200I0J-250200D01*
G01*
X186900000Y-109209800D01*
G75*
G02*
X186649800Y-109460000I-250200J0D01*
G01*
X185350200Y-109460000D01*
G75*
G02*
X185100000Y-109209800I0J250200D01*
G01*
X185100000Y-107910200D01*
G75*
G02*
X185350200Y-107660000I250200J0D01*
G01*
G37*
G04 #@! TD.AperFunction*
D24*
X201700000Y-104000000D03*
D25*
X200950000Y-110650000D03*
D24*
X214800000Y-116200000D03*
X211700000Y-103000000D03*
X199400000Y-116800000D03*
X207975000Y-116425000D03*
X212200000Y-112200000D03*
X211400000Y-110300000D03*
X216000000Y-110700000D03*
X216100000Y-112300000D03*
X226700000Y-108200000D03*
X218350020Y-113950000D03*
X221100000Y-105900000D03*
X210900000Y-117400000D03*
X211400000Y-117900000D03*
X192100000Y-108200000D03*
X204300000Y-105500000D03*
X195800000Y-106100000D03*
X183600000Y-110900000D03*
X197400000Y-102200000D03*
X188200000Y-103500000D03*
X211700000Y-107800000D03*
X191200000Y-113600000D03*
X178300000Y-112200000D03*
X178300000Y-110000000D03*
X201700000Y-106600000D03*
X203750000Y-113325000D03*
X197550000Y-107350000D03*
X216000000Y-108325000D03*
X200562500Y-115187500D03*
X210600000Y-110700000D03*
X225425000Y-115425000D03*
X221600000Y-115200000D03*
X190425000Y-113400000D03*
X204775000Y-111750000D03*
X211050000Y-104950000D03*
X205200000Y-111000000D03*
X209750000Y-105050000D03*
X195975000Y-112400000D03*
X196000000Y-110450000D03*
X191950000Y-109250000D03*
X198387500Y-106637500D03*
X196000000Y-108900000D03*
X196000000Y-107950000D03*
X198050000Y-114175000D03*
X196025000Y-114050000D03*
X222449990Y-110400000D03*
X192050000Y-113350000D03*
X206800000Y-108000000D03*
X206775000Y-109000000D03*
D25*
X183700000Y-103650000D03*
D24*
X206250000Y-101825000D03*
X197450000Y-109850000D03*
X206550000Y-111700000D03*
X208450000Y-105050000D03*
X205300000Y-109100000D03*
X199300000Y-103500000D03*
X197700000Y-103525000D03*
X200400000Y-106700000D03*
X199775000Y-114675000D03*
X205775000Y-113700000D03*
X193350010Y-116549990D03*
X199225000Y-105800000D03*
X197275000Y-115675000D03*
D26*
X182100000Y-115000000D02*
X186000000Y-111100000D01*
X174300000Y-115000000D02*
X182100000Y-115000000D01*
D27*
X195349999Y-114300001D02*
X195600000Y-114550002D01*
X195250000Y-111700000D02*
X195349999Y-111799999D01*
X194000000Y-111700000D02*
X195250000Y-111700000D01*
X195250000Y-115200000D02*
X194000000Y-115200000D01*
X195600000Y-114850000D02*
X195250000Y-115200000D01*
X195600000Y-114550002D02*
X195600000Y-114850000D01*
X195300000Y-113800000D02*
X195349999Y-113750001D01*
X194000000Y-113800000D02*
X195300000Y-113800000D01*
X195349999Y-113750001D02*
X195349999Y-114300001D01*
X195349999Y-111799999D02*
X195349999Y-113750001D01*
X209386431Y-103424979D02*
X203075021Y-103424979D01*
X209986410Y-102825000D02*
X209386431Y-103424979D01*
X210825000Y-102825000D02*
X209986410Y-102825000D01*
X203075021Y-103424979D02*
X203075021Y-103524979D01*
X215025000Y-113175000D02*
X215025000Y-109025000D01*
X215300000Y-109025000D02*
X216000000Y-108325000D01*
X215025000Y-109025000D02*
X215300000Y-109025000D01*
X216000000Y-108325000D02*
X216025000Y-108300000D01*
X202425000Y-113325000D02*
X200562500Y-115187500D01*
X203750000Y-113325000D02*
X202425000Y-113325000D01*
X208424989Y-112875011D02*
X210600000Y-110700000D01*
X204199989Y-112875011D02*
X208424989Y-112875011D01*
X203750000Y-113325000D02*
X204199989Y-112875011D01*
X201800010Y-105500010D02*
X202399990Y-106099990D01*
X201627189Y-105500009D02*
X201800010Y-105500010D01*
X202399990Y-106099990D02*
X202399990Y-111974990D01*
X201027180Y-104900000D02*
X201627189Y-105500009D01*
X202399990Y-111974990D02*
X203750000Y-113325000D01*
X199850001Y-106100001D02*
X199850001Y-105749999D01*
X200700000Y-104900000D02*
X201027180Y-104900000D01*
X199850001Y-105749999D02*
X200700000Y-104900000D01*
X198600002Y-107350000D02*
X199850001Y-106100001D01*
X197550000Y-107350000D02*
X198600002Y-107350000D01*
X224800001Y-114800001D02*
X225425000Y-115425000D01*
X221999999Y-114800001D02*
X224800001Y-114800001D01*
X221600000Y-115200000D02*
X221999999Y-114800001D01*
X225425000Y-115425000D02*
X225450000Y-115450000D01*
X191125001Y-112624999D02*
X190425000Y-113325000D01*
X192398001Y-112624999D02*
X191125001Y-112624999D01*
X192873002Y-113100000D02*
X192398001Y-112624999D01*
X194000000Y-113100000D02*
X192873002Y-113100000D01*
X209974989Y-103874989D02*
X211050000Y-104950000D01*
X207915599Y-103874989D02*
X209974989Y-103874989D01*
X203524980Y-108265608D02*
X207915599Y-103874989D01*
X203524980Y-110499980D02*
X203524980Y-108265608D01*
X204775000Y-111750000D02*
X203524980Y-110499980D01*
X211050000Y-104950000D02*
X211050000Y-104950000D01*
X204750000Y-111000000D02*
X205375000Y-111000000D01*
X203974989Y-110224989D02*
X204750000Y-111000000D01*
X203974989Y-108452009D02*
X203974989Y-110224989D01*
X208101999Y-104324999D02*
X203974989Y-108452009D01*
X209024999Y-104324999D02*
X208101999Y-104324999D01*
X209750000Y-105050000D02*
X209750000Y-105050000D01*
X209750000Y-105050000D02*
X209024999Y-104324999D01*
X195200000Y-111000000D02*
X194000000Y-111000000D01*
X195975000Y-111775000D02*
X195975000Y-112400000D01*
X195200000Y-111000000D02*
X195975000Y-111775000D01*
X195400000Y-110300000D02*
X195550000Y-110450000D01*
X195550000Y-110450000D02*
X196000000Y-110450000D01*
X192750000Y-110300000D02*
X195400000Y-110300000D01*
X191950000Y-109500000D02*
X192750000Y-110300000D01*
X191950000Y-109250000D02*
X191950000Y-109250000D01*
X191950000Y-109250000D02*
X191950000Y-109500000D01*
X198324999Y-106574999D02*
X198387500Y-106637500D01*
X198387500Y-106637500D02*
X198400000Y-106650000D01*
X196225002Y-109600000D02*
X195325000Y-109600000D01*
X196625001Y-109200001D02*
X196225002Y-109600000D01*
X197337498Y-106637500D02*
X196625001Y-107349997D01*
X198387500Y-106637500D02*
X197337498Y-106637500D01*
X196625001Y-107349997D02*
X196625001Y-109200001D01*
X195325000Y-109600000D02*
X195451998Y-109600000D01*
X194000000Y-109600000D02*
X195325000Y-109600000D01*
X196000000Y-108900000D02*
X196000000Y-108900000D01*
X196000000Y-108900000D02*
X194000000Y-108900000D01*
X194000000Y-108200000D02*
X195750000Y-108200000D01*
X195750000Y-108200000D02*
X196000000Y-107950000D01*
X196000000Y-107950000D02*
X196000000Y-107950000D01*
X197925000Y-114050000D02*
X198050000Y-114175000D01*
X196025000Y-114050000D02*
X197925000Y-114050000D01*
X222449990Y-108712510D02*
X222962500Y-108200000D01*
X222449990Y-109949990D02*
X222449990Y-108712510D01*
X222449990Y-109949990D02*
X222450010Y-109949990D01*
X222449990Y-109950010D02*
X222449990Y-110400000D01*
X222450010Y-109949990D02*
X222449990Y-109950010D01*
X192050000Y-113800000D02*
X192050000Y-113350000D01*
X192750000Y-114500000D02*
X192050000Y-113800000D01*
X194000000Y-114500000D02*
X192750000Y-114500000D01*
X192050000Y-113350000D02*
X192050000Y-113350000D01*
D28*
X217729990Y-107450010D02*
X214762112Y-107450010D01*
X222380000Y-102800000D02*
X217729990Y-107450010D01*
D27*
X206149999Y-108650001D02*
X206800000Y-108000000D01*
X206474999Y-109625001D02*
X206149999Y-109300001D01*
X212551766Y-109625001D02*
X206474999Y-109625001D01*
X212770706Y-109406061D02*
X212551766Y-109625001D01*
X212806061Y-109406061D02*
X212770706Y-109406061D01*
X206149999Y-109300001D02*
X206149999Y-108650001D01*
D28*
X214762112Y-107450010D02*
X212806061Y-109406061D01*
X212505002Y-109000000D02*
X206800000Y-109000000D01*
X213650001Y-107855001D02*
X212505002Y-109000000D01*
X219840000Y-102800000D02*
X215690000Y-106950000D01*
X213650001Y-107849999D02*
X214550000Y-106950000D01*
X213650001Y-107855001D02*
X213650001Y-107849999D01*
X215690000Y-106950000D02*
X214550000Y-106950000D01*
D26*
X178950000Y-111000000D02*
X173000000Y-111000000D01*
X183700000Y-106250000D02*
X183662500Y-106287500D01*
X183700000Y-103650000D02*
X183700000Y-106250000D01*
X183662500Y-106287500D02*
X178950000Y-111000000D01*
D28*
X227600000Y-101400000D02*
X206650000Y-101400000D01*
X229100000Y-102900000D02*
X227600000Y-101400000D01*
X206650000Y-101425000D02*
X206250000Y-101825000D01*
X206650000Y-101400000D02*
X206650000Y-101425000D01*
D27*
X223294990Y-109742510D02*
X223294990Y-112580008D01*
X219925000Y-115949998D02*
X219925000Y-119638590D01*
X223294990Y-112580008D02*
X219925000Y-115949998D01*
X224837500Y-108200000D02*
X223294990Y-109742510D01*
X219925000Y-119638590D02*
X219413589Y-120150001D01*
X198699989Y-113121423D02*
X197375000Y-111796434D01*
X197375000Y-111796434D02*
X197375000Y-109875000D01*
X198699989Y-119499989D02*
X198699989Y-113121423D01*
X199350001Y-120150001D02*
X198699989Y-119499989D01*
X219413589Y-120150001D02*
X199350001Y-120150001D01*
X204424999Y-109075001D02*
X208450000Y-105050000D01*
X204424999Y-109424999D02*
X204424999Y-109949999D01*
X204424999Y-109798001D02*
X204424999Y-109424999D01*
X204424999Y-109424999D02*
X204424999Y-109075001D01*
X205649263Y-110374999D02*
X206550000Y-111275736D01*
X204849999Y-110374999D02*
X205649263Y-110374999D01*
X206550000Y-111275736D02*
X206550000Y-111700000D01*
X204424999Y-109949999D02*
X204849999Y-110374999D01*
X208450000Y-105050000D02*
X208450000Y-105050000D01*
X187940000Y-108560000D02*
X186000000Y-108560000D01*
X188200000Y-108300000D02*
X187940000Y-108560000D01*
X188200000Y-104775000D02*
X188200000Y-108300000D01*
X197700000Y-103525000D02*
X189450000Y-103525000D01*
X189450000Y-103525000D02*
X188350000Y-104625000D01*
X188350000Y-104625000D02*
X188200000Y-104775000D01*
X188875000Y-104100000D02*
X188350000Y-104625000D01*
D28*
X199300000Y-103700000D02*
X199300000Y-103500000D01*
D27*
X200263590Y-103500000D02*
X199300000Y-103500000D01*
X201813590Y-105050000D02*
X200263590Y-103500000D01*
X202850000Y-105050000D02*
X201813590Y-105050000D01*
X206898001Y-112425001D02*
X204401999Y-112425001D01*
X205300000Y-109100000D02*
X205468234Y-109268234D01*
X205468234Y-109450000D02*
X207275001Y-111256767D01*
X202850000Y-110873002D02*
X202850000Y-105050000D01*
X207275001Y-112048001D02*
X206898001Y-112425001D01*
X204401999Y-112425001D02*
X202850000Y-110873002D01*
X205468234Y-109268234D02*
X205468234Y-109450000D01*
X207275001Y-111256767D02*
X207275001Y-112048001D01*
D28*
X212775000Y-115150000D02*
X212775000Y-118600000D01*
X212775000Y-118600000D02*
X212775000Y-119275000D01*
D27*
X200450000Y-106650000D02*
X200450000Y-106650000D01*
X200450000Y-106650000D02*
X199049999Y-108050001D01*
X203474999Y-115400001D02*
X202575000Y-116300000D01*
X203501999Y-115400001D02*
X203474999Y-115400001D01*
X205149003Y-115250000D02*
X203652000Y-115250000D01*
X206400001Y-113999002D02*
X205149003Y-115250000D01*
X211009004Y-113999002D02*
X206400001Y-113999002D01*
X203652000Y-115250000D02*
X203501999Y-115400001D01*
X212524999Y-115514997D02*
X211009004Y-113999002D01*
X199149999Y-107950001D02*
X199200000Y-107900000D01*
X199149999Y-115361411D02*
X199149999Y-107950001D01*
X200088588Y-116300000D02*
X199149999Y-115361411D01*
X202575000Y-116300000D02*
X200088588Y-116300000D01*
X199200000Y-107900000D02*
X200450000Y-106650000D01*
D28*
X217175000Y-113175000D02*
X217175000Y-109050000D01*
D27*
X201724999Y-115825001D02*
X200249999Y-115825001D01*
X200249999Y-115825001D02*
X199775000Y-115350002D01*
X203315599Y-114949991D02*
X202600009Y-114949991D01*
X199775000Y-115350002D02*
X199775000Y-114675000D01*
X216249999Y-114100001D02*
X211746413Y-114100001D01*
X202600009Y-114949991D02*
X201724999Y-115825001D01*
X217175000Y-113175000D02*
X216249999Y-114100001D01*
X206074999Y-113400001D02*
X211046413Y-113400001D01*
X205775000Y-113700000D02*
X206074999Y-113400001D01*
X211046413Y-113400001D02*
X211598206Y-113951794D01*
X211598206Y-113951794D02*
X211195404Y-113548992D01*
X211746413Y-114100001D02*
X211598206Y-113951794D01*
X204716597Y-113548993D02*
X203315599Y-114949991D01*
X205623993Y-113548993D02*
X204716597Y-113548993D01*
X205775000Y-113700000D02*
X205623993Y-113548993D01*
D28*
X212975000Y-102850000D02*
X212975000Y-106975000D01*
D27*
X210275001Y-101899999D02*
X212024999Y-101899999D01*
X212024999Y-101899999D02*
X212975000Y-102850000D01*
D28*
X210274990Y-101900010D02*
X210275001Y-101900010D01*
D27*
X198474999Y-105225001D02*
X198450001Y-105249999D01*
X198674999Y-105249999D02*
X198450001Y-105249999D01*
X198674999Y-105249999D02*
X199225000Y-105800000D01*
X198474999Y-103200001D02*
X198474999Y-104825001D01*
X209325001Y-102849999D02*
X198825001Y-102849999D01*
X210274990Y-101900010D02*
X209325001Y-102849999D01*
X198474999Y-104825001D02*
X198474999Y-105225001D01*
X198474999Y-104574999D02*
X198474999Y-104825001D01*
X193814999Y-105224999D02*
X198474997Y-105224999D01*
X198474997Y-105224999D02*
X198474999Y-105225001D01*
X189799999Y-113700001D02*
X189799999Y-109239999D01*
X189799999Y-109239999D02*
X193814999Y-105224999D01*
X192649988Y-116549990D02*
X189799999Y-113700001D01*
X193350010Y-116549990D02*
X192649988Y-116549990D01*
X198825001Y-102849999D02*
X198474999Y-103200001D01*
X227244999Y-117439999D02*
X227490000Y-117685000D01*
X224887999Y-117439999D02*
X227244999Y-117439999D01*
X224642998Y-117685000D02*
X224887999Y-117439999D01*
X223365000Y-117685000D02*
X224642998Y-117685000D01*
X197275000Y-120125000D02*
X197275000Y-115675000D01*
X197799990Y-120649990D02*
X197275000Y-120125000D01*
X219550010Y-120649990D02*
X197799990Y-120649990D01*
X222515000Y-117685000D02*
X219550010Y-120649990D01*
X223365000Y-117685000D02*
X222515000Y-117685000D01*
D29*
X227500942Y-102116943D02*
X227391289Y-102381668D01*
X227323000Y-102724981D01*
X227323000Y-103075019D01*
X227391289Y-103418332D01*
X227479423Y-103631106D01*
X227407117Y-103596629D01*
X227123589Y-103524661D01*
X226831469Y-103509389D01*
X226541981Y-103551401D01*
X226266253Y-103649081D01*
X226128843Y-103722528D01*
X226051208Y-103971603D01*
X226900000Y-104820395D01*
X226914143Y-104806253D01*
X227093748Y-104985858D01*
X227079605Y-105000000D01*
X227928397Y-105848792D01*
X228177472Y-105771157D01*
X228303371Y-105507117D01*
X228375339Y-105223589D01*
X228390611Y-104931469D01*
X228348599Y-104641981D01*
X228294703Y-104489846D01*
X228581668Y-104608711D01*
X228924981Y-104677000D01*
X229275019Y-104677000D01*
X229618332Y-104608711D01*
X229941725Y-104474757D01*
X230232771Y-104280286D01*
X230480286Y-104032771D01*
X230548000Y-103931430D01*
X230548001Y-119977881D01*
X230535436Y-120106023D01*
X230504648Y-120207999D01*
X230495852Y-120224542D01*
X230223913Y-120496481D01*
X230211520Y-120503182D01*
X230109755Y-120534684D01*
X229983062Y-120548000D01*
X229636543Y-120548000D01*
X229701678Y-120520003D01*
X229886169Y-120393161D01*
X230042369Y-120232764D01*
X230164276Y-120044976D01*
X230244119Y-119821874D01*
X230117954Y-119647000D01*
X228977000Y-119647000D01*
X228977000Y-119667000D01*
X228723000Y-119667000D01*
X228723000Y-119647000D01*
X227582046Y-119647000D01*
X227455881Y-119821874D01*
X227535724Y-120044976D01*
X227657631Y-120232764D01*
X227813831Y-120393161D01*
X227998322Y-120520003D01*
X228063457Y-120548000D01*
X225706543Y-120548000D01*
X225771678Y-120520003D01*
X225956169Y-120393161D01*
X226112369Y-120232764D01*
X226234276Y-120044976D01*
X226314119Y-119821874D01*
X226187954Y-119647000D01*
X224797000Y-119647000D01*
X224797000Y-119667000D01*
X224543000Y-119667000D01*
X224543000Y-119647000D01*
X223152046Y-119647000D01*
X223025881Y-119821874D01*
X223105724Y-120044976D01*
X223227631Y-120232764D01*
X223383831Y-120393161D01*
X223568322Y-120520003D01*
X223633457Y-120548000D01*
X220432644Y-120548000D01*
X222583493Y-118397152D01*
X222600804Y-118406405D01*
X222681293Y-118430822D01*
X222765000Y-118439066D01*
X223756608Y-118439066D01*
X223568322Y-118519997D01*
X223383831Y-118646839D01*
X223227631Y-118807236D01*
X223105724Y-118995024D01*
X223025881Y-119218126D01*
X223152046Y-119393000D01*
X224543000Y-119393000D01*
X224543000Y-119373000D01*
X224797000Y-119373000D01*
X224797000Y-119393000D01*
X226187954Y-119393000D01*
X226314119Y-119218126D01*
X227455881Y-119218126D01*
X227582046Y-119393000D01*
X228723000Y-119393000D01*
X228723000Y-118385000D01*
X228977000Y-118385000D01*
X228977000Y-119393000D01*
X230117954Y-119393000D01*
X230244119Y-119218126D01*
X230164276Y-118995024D01*
X230042369Y-118807236D01*
X229886169Y-118646839D01*
X229701678Y-118519997D01*
X229495987Y-118431585D01*
X229277000Y-118385000D01*
X228977000Y-118385000D01*
X228723000Y-118385000D01*
X228423000Y-118385000D01*
X228204013Y-118431585D01*
X227998322Y-118519997D01*
X227813831Y-118646839D01*
X227657631Y-118807236D01*
X227535724Y-118995024D01*
X227455881Y-119218126D01*
X226314119Y-119218126D01*
X226234276Y-118995024D01*
X226112369Y-118807236D01*
X225956169Y-118646839D01*
X225802808Y-118541399D01*
X225866414Y-118446206D01*
X225923101Y-118309350D01*
X225952000Y-118164066D01*
X225952000Y-118015934D01*
X225947239Y-117991999D01*
X226460934Y-117991999D01*
X226460934Y-118010000D01*
X226469178Y-118093707D01*
X226493595Y-118174196D01*
X226533245Y-118248376D01*
X226586605Y-118313395D01*
X226651624Y-118366755D01*
X226725804Y-118406405D01*
X226806293Y-118430822D01*
X226890000Y-118439066D01*
X228090000Y-118439066D01*
X228173707Y-118430822D01*
X228254196Y-118406405D01*
X228328376Y-118366755D01*
X228393395Y-118313395D01*
X228446755Y-118248376D01*
X228486405Y-118174196D01*
X228510822Y-118093707D01*
X228519066Y-118010000D01*
X228519066Y-117360000D01*
X228510822Y-117276293D01*
X228486405Y-117195804D01*
X228446755Y-117121624D01*
X228393395Y-117056605D01*
X228328376Y-117003245D01*
X228254196Y-116963595D01*
X228173707Y-116939178D01*
X228090000Y-116930934D01*
X227463591Y-116930934D01*
X227457262Y-116927551D01*
X227353210Y-116895987D01*
X227272108Y-116887999D01*
X227272105Y-116887999D01*
X227244999Y-116885329D01*
X227217893Y-116887999D01*
X224915107Y-116887999D01*
X224887999Y-116885329D01*
X224860890Y-116887999D01*
X224779788Y-116895987D01*
X224675736Y-116927551D01*
X224579841Y-116978808D01*
X224495788Y-117047788D01*
X224478502Y-117068851D01*
X224414353Y-117133000D01*
X224327836Y-117133000D01*
X224321755Y-117121624D01*
X224268395Y-117056605D01*
X224203376Y-117003245D01*
X224129196Y-116963595D01*
X224048707Y-116939178D01*
X223965000Y-116930934D01*
X222765000Y-116930934D01*
X222681293Y-116939178D01*
X222600804Y-116963595D01*
X222526624Y-117003245D01*
X222461605Y-117056605D01*
X222408245Y-117121624D01*
X222396174Y-117144208D01*
X222302737Y-117172552D01*
X222206842Y-117223809D01*
X222122789Y-117292789D01*
X222105508Y-117313846D01*
X220477000Y-118942355D01*
X220477000Y-116178642D01*
X221018040Y-115637602D01*
X221035302Y-115663436D01*
X221136564Y-115764698D01*
X221255636Y-115844259D01*
X221387942Y-115899062D01*
X221528397Y-115927000D01*
X221671603Y-115927000D01*
X221812058Y-115899062D01*
X221944364Y-115844259D01*
X222063436Y-115764698D01*
X222164698Y-115663436D01*
X222165656Y-115662002D01*
X222288748Y-115662002D01*
X222130000Y-115820750D01*
X222126928Y-115860000D01*
X222139188Y-115984482D01*
X222175498Y-116104180D01*
X222234463Y-116214494D01*
X222313815Y-116311185D01*
X222410506Y-116390537D01*
X222520820Y-116449502D01*
X222640518Y-116485812D01*
X222765000Y-116498072D01*
X223079250Y-116495000D01*
X223238000Y-116336250D01*
X223238000Y-115662000D01*
X223492000Y-115662000D01*
X223492000Y-116336250D01*
X223650750Y-116495000D01*
X223965000Y-116498072D01*
X224089482Y-116485812D01*
X224209180Y-116449502D01*
X224319494Y-116390537D01*
X224416185Y-116311185D01*
X224495537Y-116214494D01*
X224554502Y-116104180D01*
X224590812Y-115984482D01*
X224603072Y-115860000D01*
X224600000Y-115820750D01*
X224441250Y-115662000D01*
X223492000Y-115662000D01*
X223238000Y-115662000D01*
X223218000Y-115662000D01*
X223218000Y-115408000D01*
X223238000Y-115408000D01*
X223238000Y-115388000D01*
X223492000Y-115388000D01*
X223492000Y-115408000D01*
X224441250Y-115408000D01*
X224497249Y-115352001D01*
X224571356Y-115352001D01*
X224698000Y-115478645D01*
X224698000Y-115496603D01*
X224725938Y-115637058D01*
X224780741Y-115769364D01*
X224860302Y-115888436D01*
X224961564Y-115989698D01*
X225080636Y-116069259D01*
X225212942Y-116124062D01*
X225353397Y-116152000D01*
X225496603Y-116152000D01*
X225637058Y-116124062D01*
X225769364Y-116069259D01*
X225888436Y-115989698D01*
X225989698Y-115888436D01*
X226008698Y-115860000D01*
X226276928Y-115860000D01*
X226289188Y-115984482D01*
X226325498Y-116104180D01*
X226384463Y-116214494D01*
X226463815Y-116311185D01*
X226560506Y-116390537D01*
X226670820Y-116449502D01*
X226790518Y-116485812D01*
X226915000Y-116498072D01*
X227229250Y-116495000D01*
X227388000Y-116336250D01*
X227388000Y-115662000D01*
X227642000Y-115662000D01*
X227642000Y-116336250D01*
X227800750Y-116495000D01*
X228115000Y-116498072D01*
X228239482Y-116485812D01*
X228359180Y-116449502D01*
X228469494Y-116390537D01*
X228566185Y-116311185D01*
X228645537Y-116214494D01*
X228704502Y-116104180D01*
X228740812Y-115984482D01*
X228753072Y-115860000D01*
X228750000Y-115820750D01*
X228591250Y-115662000D01*
X227642000Y-115662000D01*
X227388000Y-115662000D01*
X226438750Y-115662000D01*
X226280000Y-115820750D01*
X226276928Y-115860000D01*
X226008698Y-115860000D01*
X226069259Y-115769364D01*
X226124062Y-115637058D01*
X226152000Y-115496603D01*
X226152000Y-115353397D01*
X226124062Y-115212942D01*
X226122844Y-115210000D01*
X226276928Y-115210000D01*
X226280000Y-115249250D01*
X226438750Y-115408000D01*
X227388000Y-115408000D01*
X227388000Y-114733750D01*
X227642000Y-114733750D01*
X227642000Y-115408000D01*
X228591250Y-115408000D01*
X228750000Y-115249250D01*
X228753072Y-115210000D01*
X228740812Y-115085518D01*
X228704502Y-114965820D01*
X228645537Y-114855506D01*
X228566185Y-114758815D01*
X228469494Y-114679463D01*
X228359180Y-114620498D01*
X228239482Y-114584188D01*
X228115000Y-114571928D01*
X227800750Y-114575000D01*
X227642000Y-114733750D01*
X227388000Y-114733750D01*
X227229250Y-114575000D01*
X226915000Y-114571928D01*
X226790518Y-114584188D01*
X226670820Y-114620498D01*
X226560506Y-114679463D01*
X226463815Y-114758815D01*
X226384463Y-114855506D01*
X226325498Y-114965820D01*
X226289188Y-115085518D01*
X226276928Y-115210000D01*
X226122844Y-115210000D01*
X226069259Y-115080636D01*
X225989698Y-114961564D01*
X225888436Y-114860302D01*
X225769364Y-114780741D01*
X225637058Y-114725938D01*
X225496603Y-114698000D01*
X225478645Y-114698000D01*
X225209501Y-114428857D01*
X225192212Y-114407790D01*
X225108159Y-114338810D01*
X225012264Y-114287553D01*
X224908212Y-114255989D01*
X224827110Y-114248001D01*
X224827107Y-114248001D01*
X224800001Y-114245331D01*
X224772895Y-114248001D01*
X222407642Y-114248001D01*
X223666144Y-112989500D01*
X223687201Y-112972219D01*
X223756181Y-112888166D01*
X223807438Y-112792271D01*
X223839002Y-112688219D01*
X223846990Y-112607117D01*
X223849660Y-112580008D01*
X223846990Y-112552900D01*
X223846990Y-111983939D01*
X223993000Y-112015000D01*
X224508234Y-112015000D01*
X224476899Y-112090650D01*
X224448000Y-112235934D01*
X224448000Y-112384066D01*
X224476899Y-112529350D01*
X224533586Y-112666206D01*
X224615883Y-112789372D01*
X224720628Y-112894117D01*
X224843794Y-112976414D01*
X224980650Y-113033101D01*
X225125934Y-113062000D01*
X225274066Y-113062000D01*
X225419350Y-113033101D01*
X225556206Y-112976414D01*
X225679372Y-112894117D01*
X225784117Y-112789372D01*
X225866414Y-112666206D01*
X225923101Y-112529350D01*
X225952000Y-112384066D01*
X225952000Y-112235934D01*
X225923101Y-112090650D01*
X225866414Y-111953794D01*
X225802808Y-111858601D01*
X225956169Y-111753161D01*
X226112369Y-111592764D01*
X226234276Y-111404976D01*
X226314119Y-111181874D01*
X227455881Y-111181874D01*
X227535724Y-111404976D01*
X227657631Y-111592764D01*
X227813831Y-111753161D01*
X227998322Y-111880003D01*
X228204013Y-111968415D01*
X228423000Y-112015000D01*
X228723000Y-112015000D01*
X228723000Y-111007000D01*
X228977000Y-111007000D01*
X228977000Y-112015000D01*
X229277000Y-112015000D01*
X229495987Y-111968415D01*
X229701678Y-111880003D01*
X229886169Y-111753161D01*
X230042369Y-111592764D01*
X230164276Y-111404976D01*
X230244119Y-111181874D01*
X230117954Y-111007000D01*
X228977000Y-111007000D01*
X228723000Y-111007000D01*
X227582046Y-111007000D01*
X227455881Y-111181874D01*
X226314119Y-111181874D01*
X226187954Y-111007000D01*
X224797000Y-111007000D01*
X224797000Y-111027000D01*
X224543000Y-111027000D01*
X224543000Y-111007000D01*
X224523000Y-111007000D01*
X224523000Y-110753000D01*
X224543000Y-110753000D01*
X224543000Y-109745000D01*
X224797000Y-109745000D01*
X224797000Y-110753000D01*
X226187954Y-110753000D01*
X226314119Y-110578126D01*
X227455881Y-110578126D01*
X227582046Y-110753000D01*
X228723000Y-110753000D01*
X228723000Y-109745000D01*
X228977000Y-109745000D01*
X228977000Y-110753000D01*
X230117954Y-110753000D01*
X230244119Y-110578126D01*
X230164276Y-110355024D01*
X230042369Y-110167236D01*
X229886169Y-110006839D01*
X229701678Y-109879997D01*
X229495987Y-109791585D01*
X229277000Y-109745000D01*
X228977000Y-109745000D01*
X228723000Y-109745000D01*
X228423000Y-109745000D01*
X228204013Y-109791585D01*
X227998322Y-109879997D01*
X227813831Y-110006839D01*
X227657631Y-110167236D01*
X227535724Y-110355024D01*
X227455881Y-110578126D01*
X226314119Y-110578126D01*
X226234276Y-110355024D01*
X226112369Y-110167236D01*
X225956169Y-110006839D01*
X225771678Y-109879997D01*
X225565987Y-109791585D01*
X225347000Y-109745000D01*
X224797000Y-109745000D01*
X224543000Y-109745000D01*
X224073145Y-109745000D01*
X224498464Y-109319681D01*
X224593750Y-109329066D01*
X225081250Y-109329066D01*
X225212510Y-109316138D01*
X225338726Y-109277851D01*
X225455047Y-109215676D01*
X225557003Y-109132003D01*
X225640676Y-109030047D01*
X225702851Y-108913726D01*
X225741138Y-108787510D01*
X225754066Y-108656250D01*
X225754066Y-107743750D01*
X225741138Y-107612490D01*
X225702851Y-107486274D01*
X225640676Y-107369953D01*
X225557003Y-107267997D01*
X225455047Y-107184324D01*
X225338726Y-107122149D01*
X225212510Y-107083862D01*
X225081250Y-107070934D01*
X224593750Y-107070934D01*
X224462490Y-107083862D01*
X224336274Y-107122149D01*
X224219953Y-107184324D01*
X224117997Y-107267997D01*
X224034324Y-107369953D01*
X223972149Y-107486274D01*
X223933862Y-107612490D01*
X223920934Y-107743750D01*
X223920934Y-108335921D01*
X223879066Y-108377789D01*
X223879066Y-107743750D01*
X223866138Y-107612490D01*
X223827851Y-107486274D01*
X223765676Y-107369953D01*
X223682003Y-107267997D01*
X223580047Y-107184324D01*
X223463726Y-107122149D01*
X223337510Y-107083862D01*
X223206250Y-107070934D01*
X222718750Y-107070934D01*
X222587490Y-107083862D01*
X222461274Y-107122149D01*
X222344953Y-107184324D01*
X222242997Y-107267997D01*
X222159324Y-107369953D01*
X222097149Y-107486274D01*
X222058862Y-107612490D01*
X222045934Y-107743750D01*
X222045934Y-108334734D01*
X222004144Y-108385655D01*
X221988799Y-108404353D01*
X221937542Y-108500248D01*
X221905979Y-108604300D01*
X221895320Y-108712510D01*
X221897991Y-108739626D01*
X221897990Y-109922881D01*
X221897882Y-109923974D01*
X221885292Y-109936564D01*
X221805731Y-110055636D01*
X221750928Y-110187942D01*
X221722990Y-110328397D01*
X221722990Y-110471603D01*
X221750928Y-110612058D01*
X221805731Y-110744364D01*
X221885292Y-110863436D01*
X221986554Y-110964698D01*
X222105626Y-111044259D01*
X222237932Y-111099062D01*
X222378387Y-111127000D01*
X222521593Y-111127000D01*
X222662048Y-111099062D01*
X222742990Y-111065534D01*
X222742991Y-112351361D01*
X219553856Y-115540497D01*
X219532789Y-115557787D01*
X219463809Y-115641840D01*
X219412552Y-115737736D01*
X219380988Y-115841788D01*
X219373000Y-115922889D01*
X219370330Y-115949998D01*
X219373000Y-115977104D01*
X219373001Y-119409944D01*
X219184944Y-119598001D01*
X213529066Y-119598001D01*
X213529066Y-118625000D01*
X213520822Y-118541293D01*
X213496405Y-118460804D01*
X213456755Y-118386624D01*
X213403395Y-118321605D01*
X213352000Y-118279426D01*
X213352000Y-116045574D01*
X213403395Y-116003395D01*
X213456755Y-115938376D01*
X213496405Y-115864196D01*
X213520822Y-115783707D01*
X213529066Y-115700000D01*
X213529066Y-114652001D01*
X216222893Y-114652001D01*
X216249999Y-114654671D01*
X216277105Y-114652001D01*
X216277108Y-114652001D01*
X216358210Y-114644013D01*
X216462262Y-114612449D01*
X216558157Y-114561192D01*
X216642210Y-114492212D01*
X216659499Y-114471145D01*
X216926578Y-114204066D01*
X217500000Y-114204066D01*
X217583707Y-114195822D01*
X217664196Y-114171405D01*
X217738376Y-114131755D01*
X217803395Y-114078395D01*
X217856755Y-114013376D01*
X217896405Y-113939196D01*
X217920822Y-113858707D01*
X217929066Y-113775000D01*
X217929066Y-112575000D01*
X217920822Y-112491293D01*
X217896405Y-112410804D01*
X217856755Y-112336624D01*
X217803395Y-112271605D01*
X217752000Y-112229426D01*
X217752000Y-109995574D01*
X217803395Y-109953395D01*
X217856755Y-109888376D01*
X217896405Y-109814196D01*
X217920822Y-109733707D01*
X217929066Y-109650000D01*
X217929066Y-108450000D01*
X217920822Y-108366293D01*
X217896405Y-108285804D01*
X217856755Y-108211624D01*
X217803395Y-108146605D01*
X217738376Y-108093245D01*
X217664196Y-108053595D01*
X217583707Y-108029178D01*
X217561694Y-108027010D01*
X217701659Y-108027010D01*
X217729990Y-108029800D01*
X217758321Y-108027010D01*
X217758326Y-108027010D01*
X217788035Y-108024084D01*
X217843101Y-108018661D01*
X217893424Y-108003395D01*
X217951866Y-107985667D01*
X218052105Y-107932089D01*
X218139964Y-107859984D01*
X218158029Y-107837972D01*
X219967604Y-106028397D01*
X226051208Y-106028397D01*
X226128843Y-106277472D01*
X226392883Y-106403371D01*
X226676411Y-106475339D01*
X226968531Y-106490611D01*
X227258019Y-106448599D01*
X227533747Y-106350919D01*
X227671157Y-106277472D01*
X227748792Y-106028397D01*
X226900000Y-105179605D01*
X226051208Y-106028397D01*
X219967604Y-106028397D01*
X220927470Y-105068531D01*
X225409389Y-105068531D01*
X225451401Y-105358019D01*
X225549081Y-105633747D01*
X225622528Y-105771157D01*
X225871603Y-105848792D01*
X226720395Y-105000000D01*
X225871603Y-104151208D01*
X225622528Y-104228843D01*
X225496629Y-104492883D01*
X225424661Y-104776411D01*
X225409389Y-105068531D01*
X220927470Y-105068531D01*
X221979627Y-104016375D01*
X222007513Y-104027926D01*
X222254226Y-104077000D01*
X222505774Y-104077000D01*
X222752487Y-104027926D01*
X222984886Y-103931663D01*
X223194040Y-103791911D01*
X223371911Y-103614040D01*
X223511663Y-103404886D01*
X223607926Y-103172487D01*
X223657000Y-102925774D01*
X223657000Y-102674226D01*
X223607926Y-102427513D01*
X223511663Y-102195114D01*
X223371911Y-101985960D01*
X223362951Y-101977000D01*
X227360999Y-101977000D01*
X227500942Y-102116943D01*
G04 #@! TA.AperFunction,Conductor*
D30*
G36*
X227500942Y-102116943D02*
G01*
X227391289Y-102381668D01*
X227323000Y-102724981D01*
X227323000Y-103075019D01*
X227391289Y-103418332D01*
X227479423Y-103631106D01*
X227407117Y-103596629D01*
X227123589Y-103524661D01*
X226831469Y-103509389D01*
X226541981Y-103551401D01*
X226266253Y-103649081D01*
X226128843Y-103722528D01*
X226051208Y-103971603D01*
X226900000Y-104820395D01*
X226914143Y-104806253D01*
X227093748Y-104985858D01*
X227079605Y-105000000D01*
X227928397Y-105848792D01*
X228177472Y-105771157D01*
X228303371Y-105507117D01*
X228375339Y-105223589D01*
X228390611Y-104931469D01*
X228348599Y-104641981D01*
X228294703Y-104489846D01*
X228581668Y-104608711D01*
X228924981Y-104677000D01*
X229275019Y-104677000D01*
X229618332Y-104608711D01*
X229941725Y-104474757D01*
X230232771Y-104280286D01*
X230480286Y-104032771D01*
X230548000Y-103931430D01*
X230548001Y-119977881D01*
X230535436Y-120106023D01*
X230504648Y-120207999D01*
X230495852Y-120224542D01*
X230223913Y-120496481D01*
X230211520Y-120503182D01*
X230109755Y-120534684D01*
X229983062Y-120548000D01*
X229636543Y-120548000D01*
X229701678Y-120520003D01*
X229886169Y-120393161D01*
X230042369Y-120232764D01*
X230164276Y-120044976D01*
X230244119Y-119821874D01*
X230117954Y-119647000D01*
X228977000Y-119647000D01*
X228977000Y-119667000D01*
X228723000Y-119667000D01*
X228723000Y-119647000D01*
X227582046Y-119647000D01*
X227455881Y-119821874D01*
X227535724Y-120044976D01*
X227657631Y-120232764D01*
X227813831Y-120393161D01*
X227998322Y-120520003D01*
X228063457Y-120548000D01*
X225706543Y-120548000D01*
X225771678Y-120520003D01*
X225956169Y-120393161D01*
X226112369Y-120232764D01*
X226234276Y-120044976D01*
X226314119Y-119821874D01*
X226187954Y-119647000D01*
X224797000Y-119647000D01*
X224797000Y-119667000D01*
X224543000Y-119667000D01*
X224543000Y-119647000D01*
X223152046Y-119647000D01*
X223025881Y-119821874D01*
X223105724Y-120044976D01*
X223227631Y-120232764D01*
X223383831Y-120393161D01*
X223568322Y-120520003D01*
X223633457Y-120548000D01*
X220432644Y-120548000D01*
X222583493Y-118397152D01*
X222600804Y-118406405D01*
X222681293Y-118430822D01*
X222765000Y-118439066D01*
X223756608Y-118439066D01*
X223568322Y-118519997D01*
X223383831Y-118646839D01*
X223227631Y-118807236D01*
X223105724Y-118995024D01*
X223025881Y-119218126D01*
X223152046Y-119393000D01*
X224543000Y-119393000D01*
X224543000Y-119373000D01*
X224797000Y-119373000D01*
X224797000Y-119393000D01*
X226187954Y-119393000D01*
X226314119Y-119218126D01*
X227455881Y-119218126D01*
X227582046Y-119393000D01*
X228723000Y-119393000D01*
X228723000Y-118385000D01*
X228977000Y-118385000D01*
X228977000Y-119393000D01*
X230117954Y-119393000D01*
X230244119Y-119218126D01*
X230164276Y-118995024D01*
X230042369Y-118807236D01*
X229886169Y-118646839D01*
X229701678Y-118519997D01*
X229495987Y-118431585D01*
X229277000Y-118385000D01*
X228977000Y-118385000D01*
X228723000Y-118385000D01*
X228423000Y-118385000D01*
X228204013Y-118431585D01*
X227998322Y-118519997D01*
X227813831Y-118646839D01*
X227657631Y-118807236D01*
X227535724Y-118995024D01*
X227455881Y-119218126D01*
X226314119Y-119218126D01*
X226234276Y-118995024D01*
X226112369Y-118807236D01*
X225956169Y-118646839D01*
X225802808Y-118541399D01*
X225866414Y-118446206D01*
X225923101Y-118309350D01*
X225952000Y-118164066D01*
X225952000Y-118015934D01*
X225947239Y-117991999D01*
X226460934Y-117991999D01*
X226460934Y-118010000D01*
X226469178Y-118093707D01*
X226493595Y-118174196D01*
X226533245Y-118248376D01*
X226586605Y-118313395D01*
X226651624Y-118366755D01*
X226725804Y-118406405D01*
X226806293Y-118430822D01*
X226890000Y-118439066D01*
X228090000Y-118439066D01*
X228173707Y-118430822D01*
X228254196Y-118406405D01*
X228328376Y-118366755D01*
X228393395Y-118313395D01*
X228446755Y-118248376D01*
X228486405Y-118174196D01*
X228510822Y-118093707D01*
X228519066Y-118010000D01*
X228519066Y-117360000D01*
X228510822Y-117276293D01*
X228486405Y-117195804D01*
X228446755Y-117121624D01*
X228393395Y-117056605D01*
X228328376Y-117003245D01*
X228254196Y-116963595D01*
X228173707Y-116939178D01*
X228090000Y-116930934D01*
X227463591Y-116930934D01*
X227457262Y-116927551D01*
X227353210Y-116895987D01*
X227272108Y-116887999D01*
X227272105Y-116887999D01*
X227244999Y-116885329D01*
X227217893Y-116887999D01*
X224915107Y-116887999D01*
X224887999Y-116885329D01*
X224860890Y-116887999D01*
X224779788Y-116895987D01*
X224675736Y-116927551D01*
X224579841Y-116978808D01*
X224495788Y-117047788D01*
X224478502Y-117068851D01*
X224414353Y-117133000D01*
X224327836Y-117133000D01*
X224321755Y-117121624D01*
X224268395Y-117056605D01*
X224203376Y-117003245D01*
X224129196Y-116963595D01*
X224048707Y-116939178D01*
X223965000Y-116930934D01*
X222765000Y-116930934D01*
X222681293Y-116939178D01*
X222600804Y-116963595D01*
X222526624Y-117003245D01*
X222461605Y-117056605D01*
X222408245Y-117121624D01*
X222396174Y-117144208D01*
X222302737Y-117172552D01*
X222206842Y-117223809D01*
X222122789Y-117292789D01*
X222105508Y-117313846D01*
X220477000Y-118942355D01*
X220477000Y-116178642D01*
X221018040Y-115637602D01*
X221035302Y-115663436D01*
X221136564Y-115764698D01*
X221255636Y-115844259D01*
X221387942Y-115899062D01*
X221528397Y-115927000D01*
X221671603Y-115927000D01*
X221812058Y-115899062D01*
X221944364Y-115844259D01*
X222063436Y-115764698D01*
X222164698Y-115663436D01*
X222165656Y-115662002D01*
X222288748Y-115662002D01*
X222130000Y-115820750D01*
X222126928Y-115860000D01*
X222139188Y-115984482D01*
X222175498Y-116104180D01*
X222234463Y-116214494D01*
X222313815Y-116311185D01*
X222410506Y-116390537D01*
X222520820Y-116449502D01*
X222640518Y-116485812D01*
X222765000Y-116498072D01*
X223079250Y-116495000D01*
X223238000Y-116336250D01*
X223238000Y-115662000D01*
X223492000Y-115662000D01*
X223492000Y-116336250D01*
X223650750Y-116495000D01*
X223965000Y-116498072D01*
X224089482Y-116485812D01*
X224209180Y-116449502D01*
X224319494Y-116390537D01*
X224416185Y-116311185D01*
X224495537Y-116214494D01*
X224554502Y-116104180D01*
X224590812Y-115984482D01*
X224603072Y-115860000D01*
X224600000Y-115820750D01*
X224441250Y-115662000D01*
X223492000Y-115662000D01*
X223238000Y-115662000D01*
X223218000Y-115662000D01*
X223218000Y-115408000D01*
X223238000Y-115408000D01*
X223238000Y-115388000D01*
X223492000Y-115388000D01*
X223492000Y-115408000D01*
X224441250Y-115408000D01*
X224497249Y-115352001D01*
X224571356Y-115352001D01*
X224698000Y-115478645D01*
X224698000Y-115496603D01*
X224725938Y-115637058D01*
X224780741Y-115769364D01*
X224860302Y-115888436D01*
X224961564Y-115989698D01*
X225080636Y-116069259D01*
X225212942Y-116124062D01*
X225353397Y-116152000D01*
X225496603Y-116152000D01*
X225637058Y-116124062D01*
X225769364Y-116069259D01*
X225888436Y-115989698D01*
X225989698Y-115888436D01*
X226008698Y-115860000D01*
X226276928Y-115860000D01*
X226289188Y-115984482D01*
X226325498Y-116104180D01*
X226384463Y-116214494D01*
X226463815Y-116311185D01*
X226560506Y-116390537D01*
X226670820Y-116449502D01*
X226790518Y-116485812D01*
X226915000Y-116498072D01*
X227229250Y-116495000D01*
X227388000Y-116336250D01*
X227388000Y-115662000D01*
X227642000Y-115662000D01*
X227642000Y-116336250D01*
X227800750Y-116495000D01*
X228115000Y-116498072D01*
X228239482Y-116485812D01*
X228359180Y-116449502D01*
X228469494Y-116390537D01*
X228566185Y-116311185D01*
X228645537Y-116214494D01*
X228704502Y-116104180D01*
X228740812Y-115984482D01*
X228753072Y-115860000D01*
X228750000Y-115820750D01*
X228591250Y-115662000D01*
X227642000Y-115662000D01*
X227388000Y-115662000D01*
X226438750Y-115662000D01*
X226280000Y-115820750D01*
X226276928Y-115860000D01*
X226008698Y-115860000D01*
X226069259Y-115769364D01*
X226124062Y-115637058D01*
X226152000Y-115496603D01*
X226152000Y-115353397D01*
X226124062Y-115212942D01*
X226122844Y-115210000D01*
X226276928Y-115210000D01*
X226280000Y-115249250D01*
X226438750Y-115408000D01*
X227388000Y-115408000D01*
X227388000Y-114733750D01*
X227642000Y-114733750D01*
X227642000Y-115408000D01*
X228591250Y-115408000D01*
X228750000Y-115249250D01*
X228753072Y-115210000D01*
X228740812Y-115085518D01*
X228704502Y-114965820D01*
X228645537Y-114855506D01*
X228566185Y-114758815D01*
X228469494Y-114679463D01*
X228359180Y-114620498D01*
X228239482Y-114584188D01*
X228115000Y-114571928D01*
X227800750Y-114575000D01*
X227642000Y-114733750D01*
X227388000Y-114733750D01*
X227229250Y-114575000D01*
X226915000Y-114571928D01*
X226790518Y-114584188D01*
X226670820Y-114620498D01*
X226560506Y-114679463D01*
X226463815Y-114758815D01*
X226384463Y-114855506D01*
X226325498Y-114965820D01*
X226289188Y-115085518D01*
X226276928Y-115210000D01*
X226122844Y-115210000D01*
X226069259Y-115080636D01*
X225989698Y-114961564D01*
X225888436Y-114860302D01*
X225769364Y-114780741D01*
X225637058Y-114725938D01*
X225496603Y-114698000D01*
X225478645Y-114698000D01*
X225209501Y-114428857D01*
X225192212Y-114407790D01*
X225108159Y-114338810D01*
X225012264Y-114287553D01*
X224908212Y-114255989D01*
X224827110Y-114248001D01*
X224827107Y-114248001D01*
X224800001Y-114245331D01*
X224772895Y-114248001D01*
X222407642Y-114248001D01*
X223666144Y-112989500D01*
X223687201Y-112972219D01*
X223756181Y-112888166D01*
X223807438Y-112792271D01*
X223839002Y-112688219D01*
X223846990Y-112607117D01*
X223849660Y-112580008D01*
X223846990Y-112552900D01*
X223846990Y-111983939D01*
X223993000Y-112015000D01*
X224508234Y-112015000D01*
X224476899Y-112090650D01*
X224448000Y-112235934D01*
X224448000Y-112384066D01*
X224476899Y-112529350D01*
X224533586Y-112666206D01*
X224615883Y-112789372D01*
X224720628Y-112894117D01*
X224843794Y-112976414D01*
X224980650Y-113033101D01*
X225125934Y-113062000D01*
X225274066Y-113062000D01*
X225419350Y-113033101D01*
X225556206Y-112976414D01*
X225679372Y-112894117D01*
X225784117Y-112789372D01*
X225866414Y-112666206D01*
X225923101Y-112529350D01*
X225952000Y-112384066D01*
X225952000Y-112235934D01*
X225923101Y-112090650D01*
X225866414Y-111953794D01*
X225802808Y-111858601D01*
X225956169Y-111753161D01*
X226112369Y-111592764D01*
X226234276Y-111404976D01*
X226314119Y-111181874D01*
X227455881Y-111181874D01*
X227535724Y-111404976D01*
X227657631Y-111592764D01*
X227813831Y-111753161D01*
X227998322Y-111880003D01*
X228204013Y-111968415D01*
X228423000Y-112015000D01*
X228723000Y-112015000D01*
X228723000Y-111007000D01*
X228977000Y-111007000D01*
X228977000Y-112015000D01*
X229277000Y-112015000D01*
X229495987Y-111968415D01*
X229701678Y-111880003D01*
X229886169Y-111753161D01*
X230042369Y-111592764D01*
X230164276Y-111404976D01*
X230244119Y-111181874D01*
X230117954Y-111007000D01*
X228977000Y-111007000D01*
X228723000Y-111007000D01*
X227582046Y-111007000D01*
X227455881Y-111181874D01*
X226314119Y-111181874D01*
X226187954Y-111007000D01*
X224797000Y-111007000D01*
X224797000Y-111027000D01*
X224543000Y-111027000D01*
X224543000Y-111007000D01*
X224523000Y-111007000D01*
X224523000Y-110753000D01*
X224543000Y-110753000D01*
X224543000Y-109745000D01*
X224797000Y-109745000D01*
X224797000Y-110753000D01*
X226187954Y-110753000D01*
X226314119Y-110578126D01*
X227455881Y-110578126D01*
X227582046Y-110753000D01*
X228723000Y-110753000D01*
X228723000Y-109745000D01*
X228977000Y-109745000D01*
X228977000Y-110753000D01*
X230117954Y-110753000D01*
X230244119Y-110578126D01*
X230164276Y-110355024D01*
X230042369Y-110167236D01*
X229886169Y-110006839D01*
X229701678Y-109879997D01*
X229495987Y-109791585D01*
X229277000Y-109745000D01*
X228977000Y-109745000D01*
X228723000Y-109745000D01*
X228423000Y-109745000D01*
X228204013Y-109791585D01*
X227998322Y-109879997D01*
X227813831Y-110006839D01*
X227657631Y-110167236D01*
X227535724Y-110355024D01*
X227455881Y-110578126D01*
X226314119Y-110578126D01*
X226234276Y-110355024D01*
X226112369Y-110167236D01*
X225956169Y-110006839D01*
X225771678Y-109879997D01*
X225565987Y-109791585D01*
X225347000Y-109745000D01*
X224797000Y-109745000D01*
X224543000Y-109745000D01*
X224073145Y-109745000D01*
X224498464Y-109319681D01*
X224593750Y-109329066D01*
X225081250Y-109329066D01*
X225212510Y-109316138D01*
X225338726Y-109277851D01*
X225455047Y-109215676D01*
X225557003Y-109132003D01*
X225640676Y-109030047D01*
X225702851Y-108913726D01*
X225741138Y-108787510D01*
X225754066Y-108656250D01*
X225754066Y-107743750D01*
X225741138Y-107612490D01*
X225702851Y-107486274D01*
X225640676Y-107369953D01*
X225557003Y-107267997D01*
X225455047Y-107184324D01*
X225338726Y-107122149D01*
X225212510Y-107083862D01*
X225081250Y-107070934D01*
X224593750Y-107070934D01*
X224462490Y-107083862D01*
X224336274Y-107122149D01*
X224219953Y-107184324D01*
X224117997Y-107267997D01*
X224034324Y-107369953D01*
X223972149Y-107486274D01*
X223933862Y-107612490D01*
X223920934Y-107743750D01*
X223920934Y-108335921D01*
X223879066Y-108377789D01*
X223879066Y-107743750D01*
X223866138Y-107612490D01*
X223827851Y-107486274D01*
X223765676Y-107369953D01*
X223682003Y-107267997D01*
X223580047Y-107184324D01*
X223463726Y-107122149D01*
X223337510Y-107083862D01*
X223206250Y-107070934D01*
X222718750Y-107070934D01*
X222587490Y-107083862D01*
X222461274Y-107122149D01*
X222344953Y-107184324D01*
X222242997Y-107267997D01*
X222159324Y-107369953D01*
X222097149Y-107486274D01*
X222058862Y-107612490D01*
X222045934Y-107743750D01*
X222045934Y-108334734D01*
X222004144Y-108385655D01*
X221988799Y-108404353D01*
X221937542Y-108500248D01*
X221905979Y-108604300D01*
X221895320Y-108712510D01*
X221897991Y-108739626D01*
X221897990Y-109922881D01*
X221897882Y-109923974D01*
X221885292Y-109936564D01*
X221805731Y-110055636D01*
X221750928Y-110187942D01*
X221722990Y-110328397D01*
X221722990Y-110471603D01*
X221750928Y-110612058D01*
X221805731Y-110744364D01*
X221885292Y-110863436D01*
X221986554Y-110964698D01*
X222105626Y-111044259D01*
X222237932Y-111099062D01*
X222378387Y-111127000D01*
X222521593Y-111127000D01*
X222662048Y-111099062D01*
X222742990Y-111065534D01*
X222742991Y-112351361D01*
X219553856Y-115540497D01*
X219532789Y-115557787D01*
X219463809Y-115641840D01*
X219412552Y-115737736D01*
X219380988Y-115841788D01*
X219373000Y-115922889D01*
X219370330Y-115949998D01*
X219373000Y-115977104D01*
X219373001Y-119409944D01*
X219184944Y-119598001D01*
X213529066Y-119598001D01*
X213529066Y-118625000D01*
X213520822Y-118541293D01*
X213496405Y-118460804D01*
X213456755Y-118386624D01*
X213403395Y-118321605D01*
X213352000Y-118279426D01*
X213352000Y-116045574D01*
X213403395Y-116003395D01*
X213456755Y-115938376D01*
X213496405Y-115864196D01*
X213520822Y-115783707D01*
X213529066Y-115700000D01*
X213529066Y-114652001D01*
X216222893Y-114652001D01*
X216249999Y-114654671D01*
X216277105Y-114652001D01*
X216277108Y-114652001D01*
X216358210Y-114644013D01*
X216462262Y-114612449D01*
X216558157Y-114561192D01*
X216642210Y-114492212D01*
X216659499Y-114471145D01*
X216926578Y-114204066D01*
X217500000Y-114204066D01*
X217583707Y-114195822D01*
X217664196Y-114171405D01*
X217738376Y-114131755D01*
X217803395Y-114078395D01*
X217856755Y-114013376D01*
X217896405Y-113939196D01*
X217920822Y-113858707D01*
X217929066Y-113775000D01*
X217929066Y-112575000D01*
X217920822Y-112491293D01*
X217896405Y-112410804D01*
X217856755Y-112336624D01*
X217803395Y-112271605D01*
X217752000Y-112229426D01*
X217752000Y-109995574D01*
X217803395Y-109953395D01*
X217856755Y-109888376D01*
X217896405Y-109814196D01*
X217920822Y-109733707D01*
X217929066Y-109650000D01*
X217929066Y-108450000D01*
X217920822Y-108366293D01*
X217896405Y-108285804D01*
X217856755Y-108211624D01*
X217803395Y-108146605D01*
X217738376Y-108093245D01*
X217664196Y-108053595D01*
X217583707Y-108029178D01*
X217561694Y-108027010D01*
X217701659Y-108027010D01*
X217729990Y-108029800D01*
X217758321Y-108027010D01*
X217758326Y-108027010D01*
X217788035Y-108024084D01*
X217843101Y-108018661D01*
X217893424Y-108003395D01*
X217951866Y-107985667D01*
X218052105Y-107932089D01*
X218139964Y-107859984D01*
X218158029Y-107837972D01*
X219967604Y-106028397D01*
X226051208Y-106028397D01*
X226128843Y-106277472D01*
X226392883Y-106403371D01*
X226676411Y-106475339D01*
X226968531Y-106490611D01*
X227258019Y-106448599D01*
X227533747Y-106350919D01*
X227671157Y-106277472D01*
X227748792Y-106028397D01*
X226900000Y-105179605D01*
X226051208Y-106028397D01*
X219967604Y-106028397D01*
X220927470Y-105068531D01*
X225409389Y-105068531D01*
X225451401Y-105358019D01*
X225549081Y-105633747D01*
X225622528Y-105771157D01*
X225871603Y-105848792D01*
X226720395Y-105000000D01*
X225871603Y-104151208D01*
X225622528Y-104228843D01*
X225496629Y-104492883D01*
X225424661Y-104776411D01*
X225409389Y-105068531D01*
X220927470Y-105068531D01*
X221979627Y-104016375D01*
X222007513Y-104027926D01*
X222254226Y-104077000D01*
X222505774Y-104077000D01*
X222752487Y-104027926D01*
X222984886Y-103931663D01*
X223194040Y-103791911D01*
X223371911Y-103614040D01*
X223511663Y-103404886D01*
X223607926Y-103172487D01*
X223657000Y-102925774D01*
X223657000Y-102674226D01*
X223607926Y-102427513D01*
X223511663Y-102195114D01*
X223371911Y-101985960D01*
X223362951Y-101977000D01*
X227360999Y-101977000D01*
X227500942Y-102116943D01*
G37*
G04 #@! TD.AperFunction*
D29*
X205605741Y-101480636D02*
X205550938Y-101612942D01*
X205523000Y-101753397D01*
X205523000Y-101896603D01*
X205550938Y-102037058D01*
X205605741Y-102169364D01*
X205685302Y-102288436D01*
X205694865Y-102297999D01*
X198852109Y-102297999D01*
X198825001Y-102295329D01*
X198797892Y-102297999D01*
X198716790Y-102305987D01*
X198612738Y-102337551D01*
X198516843Y-102388808D01*
X198432790Y-102457788D01*
X198415505Y-102478851D01*
X198103855Y-102790501D01*
X198082788Y-102807790D01*
X198028360Y-102874112D01*
X197912058Y-102825938D01*
X197771603Y-102798000D01*
X197628397Y-102798000D01*
X197487942Y-102825938D01*
X197355636Y-102880741D01*
X197236564Y-102960302D01*
X197223866Y-102973000D01*
X189477106Y-102973000D01*
X189450000Y-102970330D01*
X189422894Y-102973000D01*
X189422891Y-102973000D01*
X189341789Y-102980988D01*
X189237737Y-103012552D01*
X189141842Y-103063809D01*
X189057789Y-103132789D01*
X189040504Y-103153851D01*
X188503853Y-103690502D01*
X188503845Y-103690509D01*
X187978851Y-104215505D01*
X187978846Y-104215509D01*
X187828855Y-104365500D01*
X187807789Y-104382789D01*
X187738809Y-104466842D01*
X187687552Y-104562738D01*
X187655988Y-104666790D01*
X187648980Y-104737942D01*
X187645330Y-104775000D01*
X187648000Y-104802106D01*
X187648001Y-108008000D01*
X187329066Y-108008000D01*
X187329066Y-107910200D01*
X187316014Y-107777682D01*
X187277360Y-107650256D01*
X187214589Y-107532820D01*
X187130114Y-107429886D01*
X187027180Y-107345411D01*
X186909744Y-107282640D01*
X186782318Y-107243986D01*
X186649800Y-107230934D01*
X185350200Y-107230934D01*
X185217682Y-107243986D01*
X185090256Y-107282640D01*
X184972820Y-107345411D01*
X184869886Y-107429886D01*
X184785411Y-107532820D01*
X184722640Y-107650256D01*
X184683986Y-107777682D01*
X184670934Y-107910200D01*
X184670934Y-109209800D01*
X184683986Y-109342318D01*
X184722640Y-109469744D01*
X184785411Y-109587180D01*
X184869886Y-109690114D01*
X184972820Y-109774589D01*
X185090256Y-109837360D01*
X185172666Y-109862359D01*
X185115525Y-110035920D01*
X186000000Y-110920395D01*
X186884475Y-110035920D01*
X186827334Y-109862359D01*
X186909744Y-109837360D01*
X187027180Y-109774589D01*
X187130114Y-109690114D01*
X187214589Y-109587180D01*
X187277360Y-109469744D01*
X187316014Y-109342318D01*
X187329066Y-109209800D01*
X187329066Y-109112000D01*
X187912894Y-109112000D01*
X187940000Y-109114670D01*
X187967106Y-109112000D01*
X187967109Y-109112000D01*
X188048211Y-109104012D01*
X188152263Y-109072448D01*
X188248158Y-109021191D01*
X188332211Y-108952211D01*
X188349500Y-108931144D01*
X188571148Y-108709497D01*
X188592211Y-108692211D01*
X188661191Y-108608158D01*
X188712448Y-108512263D01*
X188744012Y-108408211D01*
X188752000Y-108327109D01*
X188754670Y-108300000D01*
X188752000Y-108272891D01*
X188752000Y-105003645D01*
X188759491Y-104996154D01*
X188759495Y-104996149D01*
X188855644Y-104900000D01*
X189284491Y-104471155D01*
X189284498Y-104471147D01*
X189678645Y-104077000D01*
X197223866Y-104077000D01*
X197236564Y-104089698D01*
X197355636Y-104169259D01*
X197487942Y-104224062D01*
X197628397Y-104252000D01*
X197771603Y-104252000D01*
X197912058Y-104224062D01*
X197923000Y-104219530D01*
X197923000Y-104547883D01*
X197922999Y-104547891D01*
X197922999Y-104672999D01*
X193842096Y-104672999D01*
X193814998Y-104670330D01*
X193787900Y-104672999D01*
X193787890Y-104672999D01*
X193706788Y-104680987D01*
X193602736Y-104712551D01*
X193506841Y-104763808D01*
X193422788Y-104832788D01*
X193405507Y-104853845D01*
X189428851Y-108830503D01*
X189407789Y-108847788D01*
X189351162Y-108916789D01*
X189338808Y-108931842D01*
X189287551Y-109027737D01*
X189273821Y-109073001D01*
X189255988Y-109131788D01*
X189255003Y-109141789D01*
X189245329Y-109239999D01*
X189248000Y-109267115D01*
X189247999Y-113672895D01*
X189245329Y-113700001D01*
X189247999Y-113727107D01*
X189247999Y-113727109D01*
X189255987Y-113808211D01*
X189287551Y-113912263D01*
X189338808Y-114008159D01*
X189407788Y-114092212D01*
X189428855Y-114109501D01*
X192240496Y-116921144D01*
X192257777Y-116942201D01*
X192341830Y-117011181D01*
X192437725Y-117062438D01*
X192541777Y-117094002D01*
X192622879Y-117101990D01*
X192622881Y-117101990D01*
X192649987Y-117104660D01*
X192677093Y-117101990D01*
X192873876Y-117101990D01*
X192886574Y-117114688D01*
X193005646Y-117194249D01*
X193137952Y-117249052D01*
X193278407Y-117276990D01*
X193421613Y-117276990D01*
X193562068Y-117249052D01*
X193694374Y-117194249D01*
X193813446Y-117114688D01*
X193914708Y-117013426D01*
X193994269Y-116894354D01*
X194049072Y-116762048D01*
X194077010Y-116621593D01*
X194077010Y-116478387D01*
X194049072Y-116337932D01*
X193994269Y-116205626D01*
X193914708Y-116086554D01*
X193813446Y-115985292D01*
X193783780Y-115965470D01*
X193873000Y-115876250D01*
X193873000Y-115273000D01*
X194127000Y-115273000D01*
X194127000Y-115876250D01*
X194285750Y-116035000D01*
X194992312Y-116038026D01*
X195116933Y-116027266D01*
X195237059Y-115992401D01*
X195348076Y-115934770D01*
X195445716Y-115856588D01*
X195526228Y-115760860D01*
X195586517Y-115651264D01*
X195624266Y-115532013D01*
X195635000Y-115431750D01*
X195476250Y-115273000D01*
X194127000Y-115273000D01*
X193873000Y-115273000D01*
X192523750Y-115273000D01*
X192365000Y-115431750D01*
X192371307Y-115490664D01*
X190862602Y-113981960D01*
X190888436Y-113964698D01*
X190989698Y-113863436D01*
X191069259Y-113744364D01*
X191124062Y-113612058D01*
X191152000Y-113471603D01*
X191152000Y-113378644D01*
X191340568Y-113190077D01*
X191323000Y-113278397D01*
X191323000Y-113421603D01*
X191350938Y-113562058D01*
X191405741Y-113694364D01*
X191485302Y-113813436D01*
X191497894Y-113826028D01*
X191498000Y-113827106D01*
X191498000Y-113827108D01*
X191505988Y-113908210D01*
X191537552Y-114012262D01*
X191588809Y-114108158D01*
X191657789Y-114192211D01*
X191678856Y-114209500D01*
X192340508Y-114871154D01*
X192357789Y-114892211D01*
X192371901Y-114903792D01*
X192365000Y-114968250D01*
X192523750Y-115127000D01*
X192979022Y-115127000D01*
X193000000Y-115129066D01*
X195000000Y-115129066D01*
X195020978Y-115127000D01*
X195476250Y-115127000D01*
X195635000Y-114968250D01*
X195624266Y-114867987D01*
X195586517Y-114748736D01*
X195526228Y-114639140D01*
X195445716Y-114543412D01*
X195429066Y-114530080D01*
X195429066Y-114469920D01*
X195430473Y-114468793D01*
X195460302Y-114513436D01*
X195561564Y-114614698D01*
X195680636Y-114694259D01*
X195812942Y-114749062D01*
X195953397Y-114777000D01*
X196096603Y-114777000D01*
X196237058Y-114749062D01*
X196369364Y-114694259D01*
X196488436Y-114614698D01*
X196501134Y-114602000D01*
X197460956Y-114602000D01*
X197485302Y-114638436D01*
X197586564Y-114739698D01*
X197705636Y-114819259D01*
X197837942Y-114874062D01*
X197978397Y-114902000D01*
X198121603Y-114902000D01*
X198147990Y-114896751D01*
X198147990Y-115539173D01*
X198066679Y-115523000D01*
X197986008Y-115523000D01*
X197974062Y-115462942D01*
X197919259Y-115330636D01*
X197839698Y-115211564D01*
X197738436Y-115110302D01*
X197619364Y-115030741D01*
X197487058Y-114975938D01*
X197346603Y-114948000D01*
X197203397Y-114948000D01*
X197062942Y-114975938D01*
X196930636Y-115030741D01*
X196811564Y-115110302D01*
X196710302Y-115211564D01*
X196630741Y-115330636D01*
X196575938Y-115462942D01*
X196548000Y-115603397D01*
X196548000Y-115746603D01*
X196575938Y-115887058D01*
X196630741Y-116019364D01*
X196710302Y-116138436D01*
X196723001Y-116151135D01*
X196723000Y-120097894D01*
X196720330Y-120125000D01*
X196723000Y-120152106D01*
X196723000Y-120152108D01*
X196730988Y-120233210D01*
X196762552Y-120337262D01*
X196813809Y-120433158D01*
X196882789Y-120517211D01*
X196903856Y-120534500D01*
X196917356Y-120548000D01*
X183201318Y-120548000D01*
X183220822Y-120483707D01*
X183229066Y-120400000D01*
X183229066Y-118600000D01*
X183220822Y-118516293D01*
X183196405Y-118435804D01*
X183156755Y-118361624D01*
X183103395Y-118296605D01*
X183038376Y-118243245D01*
X182964196Y-118203595D01*
X182883707Y-118179178D01*
X182800000Y-118170934D01*
X182444164Y-118170934D01*
X182528570Y-118135972D01*
X182745913Y-117990748D01*
X182930748Y-117805913D01*
X183075972Y-117588570D01*
X183176004Y-117347072D01*
X183227000Y-117090698D01*
X183227000Y-116829302D01*
X183176004Y-116572928D01*
X183075972Y-116331430D01*
X182930748Y-116114087D01*
X182745913Y-115929252D01*
X182528570Y-115784028D01*
X182287072Y-115683996D01*
X182030698Y-115633000D01*
X181769302Y-115633000D01*
X181512928Y-115683996D01*
X181271430Y-115784028D01*
X181054087Y-115929252D01*
X180869252Y-116114087D01*
X180724028Y-116331430D01*
X180623996Y-116572928D01*
X180573000Y-116829302D01*
X180573000Y-117090698D01*
X180623996Y-117347072D01*
X180724028Y-117588570D01*
X180869252Y-117805913D01*
X181054087Y-117990748D01*
X181271430Y-118135972D01*
X181355836Y-118170934D01*
X181000000Y-118170934D01*
X180916293Y-118179178D01*
X180835804Y-118203595D01*
X180761624Y-118243245D01*
X180696605Y-118296605D01*
X180643245Y-118361624D01*
X180603595Y-118435804D01*
X180579178Y-118516293D01*
X180570934Y-118600000D01*
X180570934Y-120400000D01*
X180579178Y-120483707D01*
X180598682Y-120548000D01*
X178022109Y-120548000D01*
X177893977Y-120535436D01*
X177792001Y-120504648D01*
X177775458Y-120495852D01*
X177503519Y-120223913D01*
X177496818Y-120211520D01*
X177465316Y-120109755D01*
X177452000Y-119983062D01*
X177452000Y-116022205D01*
X177454187Y-116000000D01*
X177445460Y-115911393D01*
X177419614Y-115826190D01*
X177377643Y-115747667D01*
X177321159Y-115678841D01*
X177252333Y-115622357D01*
X177227000Y-115608816D01*
X177227000Y-113509302D01*
X184673000Y-113509302D01*
X184673000Y-113770698D01*
X184723996Y-114027072D01*
X184824028Y-114268570D01*
X184969252Y-114485913D01*
X185154087Y-114670748D01*
X185371430Y-114815972D01*
X185612928Y-114916004D01*
X185869302Y-114967000D01*
X186130698Y-114967000D01*
X186387072Y-114916004D01*
X186628570Y-114815972D01*
X186845913Y-114670748D01*
X187030748Y-114485913D01*
X187175972Y-114268570D01*
X187276004Y-114027072D01*
X187327000Y-113770698D01*
X187327000Y-113509302D01*
X187276004Y-113252928D01*
X187175972Y-113011430D01*
X187030748Y-112794087D01*
X186845913Y-112609252D01*
X186667058Y-112489745D01*
X186800792Y-112418261D01*
X186884475Y-112164080D01*
X186000000Y-111279605D01*
X185115525Y-112164080D01*
X185199208Y-112418261D01*
X185339264Y-112485521D01*
X185154087Y-112609252D01*
X184969252Y-112794087D01*
X184824028Y-113011430D01*
X184723996Y-113252928D01*
X184673000Y-113509302D01*
X177227000Y-113509302D01*
X177227000Y-111677000D01*
X178916755Y-111677000D01*
X178950000Y-111680274D01*
X178983245Y-111677000D01*
X178983252Y-111677000D01*
X179082715Y-111667204D01*
X179210330Y-111628492D01*
X179327941Y-111565628D01*
X179431027Y-111481027D01*
X179452226Y-111455196D01*
X179740869Y-111166553D01*
X184459009Y-111166553D01*
X184501603Y-111465907D01*
X184601778Y-111751199D01*
X184681739Y-111900792D01*
X184935920Y-111984475D01*
X185820395Y-111100000D01*
X186179605Y-111100000D01*
X187064080Y-111984475D01*
X187318261Y-111900792D01*
X187449158Y-111628225D01*
X187524365Y-111335358D01*
X187540991Y-111033447D01*
X187498397Y-110734093D01*
X187398222Y-110448801D01*
X187318261Y-110299208D01*
X187064080Y-110215525D01*
X186179605Y-111100000D01*
X185820395Y-111100000D01*
X184935920Y-110215525D01*
X184681739Y-110299208D01*
X184550842Y-110571775D01*
X184475635Y-110864642D01*
X184459009Y-111166553D01*
X179740869Y-111166553D01*
X184155196Y-106752226D01*
X184181027Y-106731027D01*
X184265628Y-106627941D01*
X184328492Y-106510330D01*
X184367204Y-106382715D01*
X184377000Y-106283252D01*
X184377000Y-106283245D01*
X184380274Y-106250001D01*
X184377000Y-106216756D01*
X184377000Y-104125357D01*
X184432877Y-104041731D01*
X184495218Y-103891227D01*
X184527000Y-103731452D01*
X184527000Y-103568548D01*
X184495218Y-103408773D01*
X184432877Y-103258269D01*
X184342372Y-103122819D01*
X184227181Y-103007628D01*
X184091731Y-102917123D01*
X183941227Y-102854782D01*
X183781452Y-102823000D01*
X183618548Y-102823000D01*
X183458773Y-102854782D01*
X183308269Y-102917123D01*
X183229066Y-102970045D01*
X183229066Y-101660000D01*
X183220822Y-101576293D01*
X183196405Y-101495804D01*
X183172991Y-101452000D01*
X205624875Y-101452000D01*
X205605741Y-101480636D01*
G04 #@! TA.AperFunction,Conductor*
D30*
G36*
X205605741Y-101480636D02*
G01*
X205550938Y-101612942D01*
X205523000Y-101753397D01*
X205523000Y-101896603D01*
X205550938Y-102037058D01*
X205605741Y-102169364D01*
X205685302Y-102288436D01*
X205694865Y-102297999D01*
X198852109Y-102297999D01*
X198825001Y-102295329D01*
X198797892Y-102297999D01*
X198716790Y-102305987D01*
X198612738Y-102337551D01*
X198516843Y-102388808D01*
X198432790Y-102457788D01*
X198415505Y-102478851D01*
X198103855Y-102790501D01*
X198082788Y-102807790D01*
X198028360Y-102874112D01*
X197912058Y-102825938D01*
X197771603Y-102798000D01*
X197628397Y-102798000D01*
X197487942Y-102825938D01*
X197355636Y-102880741D01*
X197236564Y-102960302D01*
X197223866Y-102973000D01*
X189477106Y-102973000D01*
X189450000Y-102970330D01*
X189422894Y-102973000D01*
X189422891Y-102973000D01*
X189341789Y-102980988D01*
X189237737Y-103012552D01*
X189141842Y-103063809D01*
X189057789Y-103132789D01*
X189040504Y-103153851D01*
X188503853Y-103690502D01*
X188503845Y-103690509D01*
X187978851Y-104215505D01*
X187978846Y-104215509D01*
X187828855Y-104365500D01*
X187807789Y-104382789D01*
X187738809Y-104466842D01*
X187687552Y-104562738D01*
X187655988Y-104666790D01*
X187648980Y-104737942D01*
X187645330Y-104775000D01*
X187648000Y-104802106D01*
X187648001Y-108008000D01*
X187329066Y-108008000D01*
X187329066Y-107910200D01*
X187316014Y-107777682D01*
X187277360Y-107650256D01*
X187214589Y-107532820D01*
X187130114Y-107429886D01*
X187027180Y-107345411D01*
X186909744Y-107282640D01*
X186782318Y-107243986D01*
X186649800Y-107230934D01*
X185350200Y-107230934D01*
X185217682Y-107243986D01*
X185090256Y-107282640D01*
X184972820Y-107345411D01*
X184869886Y-107429886D01*
X184785411Y-107532820D01*
X184722640Y-107650256D01*
X184683986Y-107777682D01*
X184670934Y-107910200D01*
X184670934Y-109209800D01*
X184683986Y-109342318D01*
X184722640Y-109469744D01*
X184785411Y-109587180D01*
X184869886Y-109690114D01*
X184972820Y-109774589D01*
X185090256Y-109837360D01*
X185172666Y-109862359D01*
X185115525Y-110035920D01*
X186000000Y-110920395D01*
X186884475Y-110035920D01*
X186827334Y-109862359D01*
X186909744Y-109837360D01*
X187027180Y-109774589D01*
X187130114Y-109690114D01*
X187214589Y-109587180D01*
X187277360Y-109469744D01*
X187316014Y-109342318D01*
X187329066Y-109209800D01*
X187329066Y-109112000D01*
X187912894Y-109112000D01*
X187940000Y-109114670D01*
X187967106Y-109112000D01*
X187967109Y-109112000D01*
X188048211Y-109104012D01*
X188152263Y-109072448D01*
X188248158Y-109021191D01*
X188332211Y-108952211D01*
X188349500Y-108931144D01*
X188571148Y-108709497D01*
X188592211Y-108692211D01*
X188661191Y-108608158D01*
X188712448Y-108512263D01*
X188744012Y-108408211D01*
X188752000Y-108327109D01*
X188754670Y-108300000D01*
X188752000Y-108272891D01*
X188752000Y-105003645D01*
X188759491Y-104996154D01*
X188759495Y-104996149D01*
X188855644Y-104900000D01*
X189284491Y-104471155D01*
X189284498Y-104471147D01*
X189678645Y-104077000D01*
X197223866Y-104077000D01*
X197236564Y-104089698D01*
X197355636Y-104169259D01*
X197487942Y-104224062D01*
X197628397Y-104252000D01*
X197771603Y-104252000D01*
X197912058Y-104224062D01*
X197923000Y-104219530D01*
X197923000Y-104547883D01*
X197922999Y-104547891D01*
X197922999Y-104672999D01*
X193842096Y-104672999D01*
X193814998Y-104670330D01*
X193787900Y-104672999D01*
X193787890Y-104672999D01*
X193706788Y-104680987D01*
X193602736Y-104712551D01*
X193506841Y-104763808D01*
X193422788Y-104832788D01*
X193405507Y-104853845D01*
X189428851Y-108830503D01*
X189407789Y-108847788D01*
X189351162Y-108916789D01*
X189338808Y-108931842D01*
X189287551Y-109027737D01*
X189273821Y-109073001D01*
X189255988Y-109131788D01*
X189255003Y-109141789D01*
X189245329Y-109239999D01*
X189248000Y-109267115D01*
X189247999Y-113672895D01*
X189245329Y-113700001D01*
X189247999Y-113727107D01*
X189247999Y-113727109D01*
X189255987Y-113808211D01*
X189287551Y-113912263D01*
X189338808Y-114008159D01*
X189407788Y-114092212D01*
X189428855Y-114109501D01*
X192240496Y-116921144D01*
X192257777Y-116942201D01*
X192341830Y-117011181D01*
X192437725Y-117062438D01*
X192541777Y-117094002D01*
X192622879Y-117101990D01*
X192622881Y-117101990D01*
X192649987Y-117104660D01*
X192677093Y-117101990D01*
X192873876Y-117101990D01*
X192886574Y-117114688D01*
X193005646Y-117194249D01*
X193137952Y-117249052D01*
X193278407Y-117276990D01*
X193421613Y-117276990D01*
X193562068Y-117249052D01*
X193694374Y-117194249D01*
X193813446Y-117114688D01*
X193914708Y-117013426D01*
X193994269Y-116894354D01*
X194049072Y-116762048D01*
X194077010Y-116621593D01*
X194077010Y-116478387D01*
X194049072Y-116337932D01*
X193994269Y-116205626D01*
X193914708Y-116086554D01*
X193813446Y-115985292D01*
X193783780Y-115965470D01*
X193873000Y-115876250D01*
X193873000Y-115273000D01*
X194127000Y-115273000D01*
X194127000Y-115876250D01*
X194285750Y-116035000D01*
X194992312Y-116038026D01*
X195116933Y-116027266D01*
X195237059Y-115992401D01*
X195348076Y-115934770D01*
X195445716Y-115856588D01*
X195526228Y-115760860D01*
X195586517Y-115651264D01*
X195624266Y-115532013D01*
X195635000Y-115431750D01*
X195476250Y-115273000D01*
X194127000Y-115273000D01*
X193873000Y-115273000D01*
X192523750Y-115273000D01*
X192365000Y-115431750D01*
X192371307Y-115490664D01*
X190862602Y-113981960D01*
X190888436Y-113964698D01*
X190989698Y-113863436D01*
X191069259Y-113744364D01*
X191124062Y-113612058D01*
X191152000Y-113471603D01*
X191152000Y-113378644D01*
X191340568Y-113190077D01*
X191323000Y-113278397D01*
X191323000Y-113421603D01*
X191350938Y-113562058D01*
X191405741Y-113694364D01*
X191485302Y-113813436D01*
X191497894Y-113826028D01*
X191498000Y-113827106D01*
X191498000Y-113827108D01*
X191505988Y-113908210D01*
X191537552Y-114012262D01*
X191588809Y-114108158D01*
X191657789Y-114192211D01*
X191678856Y-114209500D01*
X192340508Y-114871154D01*
X192357789Y-114892211D01*
X192371901Y-114903792D01*
X192365000Y-114968250D01*
X192523750Y-115127000D01*
X192979022Y-115127000D01*
X193000000Y-115129066D01*
X195000000Y-115129066D01*
X195020978Y-115127000D01*
X195476250Y-115127000D01*
X195635000Y-114968250D01*
X195624266Y-114867987D01*
X195586517Y-114748736D01*
X195526228Y-114639140D01*
X195445716Y-114543412D01*
X195429066Y-114530080D01*
X195429066Y-114469920D01*
X195430473Y-114468793D01*
X195460302Y-114513436D01*
X195561564Y-114614698D01*
X195680636Y-114694259D01*
X195812942Y-114749062D01*
X195953397Y-114777000D01*
X196096603Y-114777000D01*
X196237058Y-114749062D01*
X196369364Y-114694259D01*
X196488436Y-114614698D01*
X196501134Y-114602000D01*
X197460956Y-114602000D01*
X197485302Y-114638436D01*
X197586564Y-114739698D01*
X197705636Y-114819259D01*
X197837942Y-114874062D01*
X197978397Y-114902000D01*
X198121603Y-114902000D01*
X198147990Y-114896751D01*
X198147990Y-115539173D01*
X198066679Y-115523000D01*
X197986008Y-115523000D01*
X197974062Y-115462942D01*
X197919259Y-115330636D01*
X197839698Y-115211564D01*
X197738436Y-115110302D01*
X197619364Y-115030741D01*
X197487058Y-114975938D01*
X197346603Y-114948000D01*
X197203397Y-114948000D01*
X197062942Y-114975938D01*
X196930636Y-115030741D01*
X196811564Y-115110302D01*
X196710302Y-115211564D01*
X196630741Y-115330636D01*
X196575938Y-115462942D01*
X196548000Y-115603397D01*
X196548000Y-115746603D01*
X196575938Y-115887058D01*
X196630741Y-116019364D01*
X196710302Y-116138436D01*
X196723001Y-116151135D01*
X196723000Y-120097894D01*
X196720330Y-120125000D01*
X196723000Y-120152106D01*
X196723000Y-120152108D01*
X196730988Y-120233210D01*
X196762552Y-120337262D01*
X196813809Y-120433158D01*
X196882789Y-120517211D01*
X196903856Y-120534500D01*
X196917356Y-120548000D01*
X183201318Y-120548000D01*
X183220822Y-120483707D01*
X183229066Y-120400000D01*
X183229066Y-118600000D01*
X183220822Y-118516293D01*
X183196405Y-118435804D01*
X183156755Y-118361624D01*
X183103395Y-118296605D01*
X183038376Y-118243245D01*
X182964196Y-118203595D01*
X182883707Y-118179178D01*
X182800000Y-118170934D01*
X182444164Y-118170934D01*
X182528570Y-118135972D01*
X182745913Y-117990748D01*
X182930748Y-117805913D01*
X183075972Y-117588570D01*
X183176004Y-117347072D01*
X183227000Y-117090698D01*
X183227000Y-116829302D01*
X183176004Y-116572928D01*
X183075972Y-116331430D01*
X182930748Y-116114087D01*
X182745913Y-115929252D01*
X182528570Y-115784028D01*
X182287072Y-115683996D01*
X182030698Y-115633000D01*
X181769302Y-115633000D01*
X181512928Y-115683996D01*
X181271430Y-115784028D01*
X181054087Y-115929252D01*
X180869252Y-116114087D01*
X180724028Y-116331430D01*
X180623996Y-116572928D01*
X180573000Y-116829302D01*
X180573000Y-117090698D01*
X180623996Y-117347072D01*
X180724028Y-117588570D01*
X180869252Y-117805913D01*
X181054087Y-117990748D01*
X181271430Y-118135972D01*
X181355836Y-118170934D01*
X181000000Y-118170934D01*
X180916293Y-118179178D01*
X180835804Y-118203595D01*
X180761624Y-118243245D01*
X180696605Y-118296605D01*
X180643245Y-118361624D01*
X180603595Y-118435804D01*
X180579178Y-118516293D01*
X180570934Y-118600000D01*
X180570934Y-120400000D01*
X180579178Y-120483707D01*
X180598682Y-120548000D01*
X178022109Y-120548000D01*
X177893977Y-120535436D01*
X177792001Y-120504648D01*
X177775458Y-120495852D01*
X177503519Y-120223913D01*
X177496818Y-120211520D01*
X177465316Y-120109755D01*
X177452000Y-119983062D01*
X177452000Y-116022205D01*
X177454187Y-116000000D01*
X177445460Y-115911393D01*
X177419614Y-115826190D01*
X177377643Y-115747667D01*
X177321159Y-115678841D01*
X177252333Y-115622357D01*
X177227000Y-115608816D01*
X177227000Y-113509302D01*
X184673000Y-113509302D01*
X184673000Y-113770698D01*
X184723996Y-114027072D01*
X184824028Y-114268570D01*
X184969252Y-114485913D01*
X185154087Y-114670748D01*
X185371430Y-114815972D01*
X185612928Y-114916004D01*
X185869302Y-114967000D01*
X186130698Y-114967000D01*
X186387072Y-114916004D01*
X186628570Y-114815972D01*
X186845913Y-114670748D01*
X187030748Y-114485913D01*
X187175972Y-114268570D01*
X187276004Y-114027072D01*
X187327000Y-113770698D01*
X187327000Y-113509302D01*
X187276004Y-113252928D01*
X187175972Y-113011430D01*
X187030748Y-112794087D01*
X186845913Y-112609252D01*
X186667058Y-112489745D01*
X186800792Y-112418261D01*
X186884475Y-112164080D01*
X186000000Y-111279605D01*
X185115525Y-112164080D01*
X185199208Y-112418261D01*
X185339264Y-112485521D01*
X185154087Y-112609252D01*
X184969252Y-112794087D01*
X184824028Y-113011430D01*
X184723996Y-113252928D01*
X184673000Y-113509302D01*
X177227000Y-113509302D01*
X177227000Y-111677000D01*
X178916755Y-111677000D01*
X178950000Y-111680274D01*
X178983245Y-111677000D01*
X178983252Y-111677000D01*
X179082715Y-111667204D01*
X179210330Y-111628492D01*
X179327941Y-111565628D01*
X179431027Y-111481027D01*
X179452226Y-111455196D01*
X179740869Y-111166553D01*
X184459009Y-111166553D01*
X184501603Y-111465907D01*
X184601778Y-111751199D01*
X184681739Y-111900792D01*
X184935920Y-111984475D01*
X185820395Y-111100000D01*
X186179605Y-111100000D01*
X187064080Y-111984475D01*
X187318261Y-111900792D01*
X187449158Y-111628225D01*
X187524365Y-111335358D01*
X187540991Y-111033447D01*
X187498397Y-110734093D01*
X187398222Y-110448801D01*
X187318261Y-110299208D01*
X187064080Y-110215525D01*
X186179605Y-111100000D01*
X185820395Y-111100000D01*
X184935920Y-110215525D01*
X184681739Y-110299208D01*
X184550842Y-110571775D01*
X184475635Y-110864642D01*
X184459009Y-111166553D01*
X179740869Y-111166553D01*
X184155196Y-106752226D01*
X184181027Y-106731027D01*
X184265628Y-106627941D01*
X184328492Y-106510330D01*
X184367204Y-106382715D01*
X184377000Y-106283252D01*
X184377000Y-106283245D01*
X184380274Y-106250001D01*
X184377000Y-106216756D01*
X184377000Y-104125357D01*
X184432877Y-104041731D01*
X184495218Y-103891227D01*
X184527000Y-103731452D01*
X184527000Y-103568548D01*
X184495218Y-103408773D01*
X184432877Y-103258269D01*
X184342372Y-103122819D01*
X184227181Y-103007628D01*
X184091731Y-102917123D01*
X183941227Y-102854782D01*
X183781452Y-102823000D01*
X183618548Y-102823000D01*
X183458773Y-102854782D01*
X183308269Y-102917123D01*
X183229066Y-102970045D01*
X183229066Y-101660000D01*
X183220822Y-101576293D01*
X183196405Y-101495804D01*
X183172991Y-101452000D01*
X205624875Y-101452000D01*
X205605741Y-101480636D01*
G37*
G04 #@! TD.AperFunction*
D29*
X209665000Y-114789250D02*
X209823750Y-114948000D01*
X210498000Y-114948000D01*
X210498000Y-114928000D01*
X210752000Y-114928000D01*
X210752000Y-114948000D01*
X210772000Y-114948000D01*
X210772000Y-115202000D01*
X210752000Y-115202000D01*
X210752000Y-116151250D01*
X210910750Y-116310000D01*
X210950000Y-116313072D01*
X211074482Y-116300812D01*
X211194180Y-116264502D01*
X211304494Y-116205537D01*
X211401185Y-116126185D01*
X211480537Y-116029494D01*
X211539502Y-115919180D01*
X211575812Y-115799482D01*
X211588072Y-115675000D01*
X211585000Y-115360750D01*
X211426252Y-115202002D01*
X211431359Y-115202002D01*
X212036195Y-115806839D01*
X212053595Y-115864196D01*
X212093245Y-115938376D01*
X212146605Y-116003395D01*
X212198000Y-116045574D01*
X212198001Y-118279425D01*
X212146605Y-118321605D01*
X212093245Y-118386624D01*
X212053595Y-118460804D01*
X212029178Y-118541293D01*
X212020934Y-118625000D01*
X212020934Y-119598001D01*
X211585853Y-119598001D01*
X211585000Y-119510750D01*
X211426250Y-119352000D01*
X210752000Y-119352000D01*
X210752000Y-119372000D01*
X210498000Y-119372000D01*
X210498000Y-119352000D01*
X209823750Y-119352000D01*
X209665000Y-119510750D01*
X209664147Y-119598001D01*
X199578646Y-119598001D01*
X199251989Y-119271344D01*
X199251989Y-118625000D01*
X209661928Y-118625000D01*
X209665000Y-118939250D01*
X209823750Y-119098000D01*
X210498000Y-119098000D01*
X210498000Y-118148750D01*
X210752000Y-118148750D01*
X210752000Y-119098000D01*
X211426250Y-119098000D01*
X211585000Y-118939250D01*
X211588072Y-118625000D01*
X211575812Y-118500518D01*
X211539502Y-118380820D01*
X211480537Y-118270506D01*
X211401185Y-118173815D01*
X211304494Y-118094463D01*
X211194180Y-118035498D01*
X211074482Y-117999188D01*
X210950000Y-117986928D01*
X210910750Y-117990000D01*
X210752000Y-118148750D01*
X210498000Y-118148750D01*
X210339250Y-117990000D01*
X210300000Y-117986928D01*
X210175518Y-117999188D01*
X210055820Y-118035498D01*
X209945506Y-118094463D01*
X209848815Y-118173815D01*
X209769463Y-118270506D01*
X209710498Y-118380820D01*
X209674188Y-118500518D01*
X209661928Y-118625000D01*
X199251989Y-118625000D01*
X199251989Y-116244046D01*
X199679096Y-116671154D01*
X199696377Y-116692211D01*
X199717433Y-116709491D01*
X199780429Y-116761191D01*
X199831686Y-116788588D01*
X199876325Y-116812448D01*
X199980377Y-116844012D01*
X200061479Y-116852000D01*
X200061489Y-116852000D01*
X200088587Y-116854669D01*
X200115685Y-116852000D01*
X202547894Y-116852000D01*
X202575000Y-116854670D01*
X202602106Y-116852000D01*
X202602109Y-116852000D01*
X202683211Y-116844012D01*
X202787263Y-116812448D01*
X202883158Y-116761191D01*
X202967211Y-116692211D01*
X202984500Y-116671144D01*
X203776422Y-115879224D01*
X203810157Y-115861192D01*
X203882283Y-115802000D01*
X205121897Y-115802000D01*
X205149003Y-115804670D01*
X205176109Y-115802000D01*
X205176112Y-115802000D01*
X205257214Y-115794012D01*
X205361266Y-115762448D01*
X205457161Y-115711191D01*
X205501260Y-115675000D01*
X209661928Y-115675000D01*
X209674188Y-115799482D01*
X209710498Y-115919180D01*
X209769463Y-116029494D01*
X209848815Y-116126185D01*
X209945506Y-116205537D01*
X210055820Y-116264502D01*
X210175518Y-116300812D01*
X210300000Y-116313072D01*
X210339250Y-116310000D01*
X210498000Y-116151250D01*
X210498000Y-115202000D01*
X209823750Y-115202000D01*
X209665000Y-115360750D01*
X209661928Y-115675000D01*
X205501260Y-115675000D01*
X205541214Y-115642211D01*
X205558503Y-115621144D01*
X206628647Y-114551002D01*
X209662671Y-114551002D01*
X209665000Y-114789250D01*
G04 #@! TA.AperFunction,Conductor*
D30*
G36*
X209665000Y-114789250D02*
G01*
X209823750Y-114948000D01*
X210498000Y-114948000D01*
X210498000Y-114928000D01*
X210752000Y-114928000D01*
X210752000Y-114948000D01*
X210772000Y-114948000D01*
X210772000Y-115202000D01*
X210752000Y-115202000D01*
X210752000Y-116151250D01*
X210910750Y-116310000D01*
X210950000Y-116313072D01*
X211074482Y-116300812D01*
X211194180Y-116264502D01*
X211304494Y-116205537D01*
X211401185Y-116126185D01*
X211480537Y-116029494D01*
X211539502Y-115919180D01*
X211575812Y-115799482D01*
X211588072Y-115675000D01*
X211585000Y-115360750D01*
X211426252Y-115202002D01*
X211431359Y-115202002D01*
X212036195Y-115806839D01*
X212053595Y-115864196D01*
X212093245Y-115938376D01*
X212146605Y-116003395D01*
X212198000Y-116045574D01*
X212198001Y-118279425D01*
X212146605Y-118321605D01*
X212093245Y-118386624D01*
X212053595Y-118460804D01*
X212029178Y-118541293D01*
X212020934Y-118625000D01*
X212020934Y-119598001D01*
X211585853Y-119598001D01*
X211585000Y-119510750D01*
X211426250Y-119352000D01*
X210752000Y-119352000D01*
X210752000Y-119372000D01*
X210498000Y-119372000D01*
X210498000Y-119352000D01*
X209823750Y-119352000D01*
X209665000Y-119510750D01*
X209664147Y-119598001D01*
X199578646Y-119598001D01*
X199251989Y-119271344D01*
X199251989Y-118625000D01*
X209661928Y-118625000D01*
X209665000Y-118939250D01*
X209823750Y-119098000D01*
X210498000Y-119098000D01*
X210498000Y-118148750D01*
X210752000Y-118148750D01*
X210752000Y-119098000D01*
X211426250Y-119098000D01*
X211585000Y-118939250D01*
X211588072Y-118625000D01*
X211575812Y-118500518D01*
X211539502Y-118380820D01*
X211480537Y-118270506D01*
X211401185Y-118173815D01*
X211304494Y-118094463D01*
X211194180Y-118035498D01*
X211074482Y-117999188D01*
X210950000Y-117986928D01*
X210910750Y-117990000D01*
X210752000Y-118148750D01*
X210498000Y-118148750D01*
X210339250Y-117990000D01*
X210300000Y-117986928D01*
X210175518Y-117999188D01*
X210055820Y-118035498D01*
X209945506Y-118094463D01*
X209848815Y-118173815D01*
X209769463Y-118270506D01*
X209710498Y-118380820D01*
X209674188Y-118500518D01*
X209661928Y-118625000D01*
X199251989Y-118625000D01*
X199251989Y-116244046D01*
X199679096Y-116671154D01*
X199696377Y-116692211D01*
X199717433Y-116709491D01*
X199780429Y-116761191D01*
X199831686Y-116788588D01*
X199876325Y-116812448D01*
X199980377Y-116844012D01*
X200061479Y-116852000D01*
X200061489Y-116852000D01*
X200088587Y-116854669D01*
X200115685Y-116852000D01*
X202547894Y-116852000D01*
X202575000Y-116854670D01*
X202602106Y-116852000D01*
X202602109Y-116852000D01*
X202683211Y-116844012D01*
X202787263Y-116812448D01*
X202883158Y-116761191D01*
X202967211Y-116692211D01*
X202984500Y-116671144D01*
X203776422Y-115879224D01*
X203810157Y-115861192D01*
X203882283Y-115802000D01*
X205121897Y-115802000D01*
X205149003Y-115804670D01*
X205176109Y-115802000D01*
X205176112Y-115802000D01*
X205257214Y-115794012D01*
X205361266Y-115762448D01*
X205457161Y-115711191D01*
X205501260Y-115675000D01*
X209661928Y-115675000D01*
X209674188Y-115799482D01*
X209710498Y-115919180D01*
X209769463Y-116029494D01*
X209848815Y-116126185D01*
X209945506Y-116205537D01*
X210055820Y-116264502D01*
X210175518Y-116300812D01*
X210300000Y-116313072D01*
X210339250Y-116310000D01*
X210498000Y-116151250D01*
X210498000Y-115202000D01*
X209823750Y-115202000D01*
X209665000Y-115360750D01*
X209661928Y-115675000D01*
X205501260Y-115675000D01*
X205541214Y-115642211D01*
X205558503Y-115621144D01*
X206628647Y-114551002D01*
X209662671Y-114551002D01*
X209665000Y-114789250D01*
G37*
G04 #@! TD.AperFunction*
D29*
X201217697Y-105871162D02*
X201234976Y-105892217D01*
X201256034Y-105909499D01*
X201256035Y-105909500D01*
X201319031Y-105961200D01*
X201414926Y-106012457D01*
X201467475Y-106028397D01*
X201518975Y-106044020D01*
X201552765Y-106047348D01*
X201568227Y-106048871D01*
X201847990Y-106328635D01*
X201847991Y-111947874D01*
X201845320Y-111974990D01*
X201855979Y-112083200D01*
X201887542Y-112187252D01*
X201927735Y-112262447D01*
X201938800Y-112283148D01*
X202007780Y-112367201D01*
X202028842Y-112384486D01*
X202415610Y-112771255D01*
X202397891Y-112773000D01*
X202316789Y-112780988D01*
X202212737Y-112812552D01*
X202116842Y-112863809D01*
X202032789Y-112932789D01*
X202015509Y-112953845D01*
X200508856Y-114460500D01*
X200490897Y-114460500D01*
X200474235Y-114463814D01*
X200474062Y-114462942D01*
X200419259Y-114330636D01*
X200339698Y-114211564D01*
X200238436Y-114110302D01*
X200119364Y-114030741D01*
X199987058Y-113975938D01*
X199846603Y-113948000D01*
X199703397Y-113948000D01*
X199701999Y-113948278D01*
X199701999Y-108178645D01*
X200453645Y-107427000D01*
X200471603Y-107427000D01*
X200612058Y-107399062D01*
X200744364Y-107344259D01*
X200863436Y-107264698D01*
X200964698Y-107163436D01*
X201044259Y-107044364D01*
X201099062Y-106912058D01*
X201127000Y-106771603D01*
X201127000Y-106628397D01*
X201099062Y-106487942D01*
X201044259Y-106355636D01*
X200964698Y-106236564D01*
X200863436Y-106135302D01*
X200744364Y-106055741D01*
X200612058Y-106000938D01*
X200471603Y-105973000D01*
X200407644Y-105973000D01*
X200863591Y-105517055D01*
X201217697Y-105871162D01*
G04 #@! TA.AperFunction,Conductor*
D30*
G36*
X201217697Y-105871162D02*
G01*
X201234976Y-105892217D01*
X201256034Y-105909499D01*
X201256035Y-105909500D01*
X201319031Y-105961200D01*
X201414926Y-106012457D01*
X201467475Y-106028397D01*
X201518975Y-106044020D01*
X201552765Y-106047348D01*
X201568227Y-106048871D01*
X201847990Y-106328635D01*
X201847991Y-111947874D01*
X201845320Y-111974990D01*
X201855979Y-112083200D01*
X201887542Y-112187252D01*
X201927735Y-112262447D01*
X201938800Y-112283148D01*
X202007780Y-112367201D01*
X202028842Y-112384486D01*
X202415610Y-112771255D01*
X202397891Y-112773000D01*
X202316789Y-112780988D01*
X202212737Y-112812552D01*
X202116842Y-112863809D01*
X202032789Y-112932789D01*
X202015509Y-112953845D01*
X200508856Y-114460500D01*
X200490897Y-114460500D01*
X200474235Y-114463814D01*
X200474062Y-114462942D01*
X200419259Y-114330636D01*
X200339698Y-114211564D01*
X200238436Y-114110302D01*
X200119364Y-114030741D01*
X199987058Y-113975938D01*
X199846603Y-113948000D01*
X199703397Y-113948000D01*
X199701999Y-113948278D01*
X199701999Y-108178645D01*
X200453645Y-107427000D01*
X200471603Y-107427000D01*
X200612058Y-107399062D01*
X200744364Y-107344259D01*
X200863436Y-107264698D01*
X200964698Y-107163436D01*
X201044259Y-107044364D01*
X201099062Y-106912058D01*
X201127000Y-106771603D01*
X201127000Y-106628397D01*
X201099062Y-106487942D01*
X201044259Y-106355636D01*
X200964698Y-106236564D01*
X200863436Y-106135302D01*
X200744364Y-106055741D01*
X200612058Y-106000938D01*
X200471603Y-105973000D01*
X200407644Y-105973000D01*
X200863591Y-105517055D01*
X201217697Y-105871162D01*
G37*
G04 #@! TD.AperFunction*
D29*
X194147000Y-113870934D02*
X193853000Y-113870934D01*
X193853000Y-113729066D01*
X194147000Y-113729066D01*
X194147000Y-113870934D01*
G04 #@! TA.AperFunction,Conductor*
D30*
G36*
X194147000Y-113870934D02*
G01*
X193853000Y-113870934D01*
X193853000Y-113729066D01*
X194147000Y-113729066D01*
X194147000Y-113870934D01*
G37*
G04 #@! TD.AperFunction*
D29*
X214270934Y-109625000D02*
X214279178Y-109708707D01*
X214303595Y-109789196D01*
X214343245Y-109863376D01*
X214396605Y-109928395D01*
X214461624Y-109981755D01*
X214473001Y-109987836D01*
X214473000Y-112212164D01*
X214461624Y-112218245D01*
X214396605Y-112271605D01*
X214343245Y-112336624D01*
X214303595Y-112410804D01*
X214279178Y-112491293D01*
X214270934Y-112575000D01*
X214270934Y-113548001D01*
X211975059Y-113548001D01*
X211898661Y-113471603D01*
X211455913Y-113028857D01*
X211438624Y-113007790D01*
X211354571Y-112938810D01*
X211258676Y-112887553D01*
X211154624Y-112855989D01*
X211073522Y-112848001D01*
X211073519Y-112848001D01*
X211046413Y-112845331D01*
X211019307Y-112848001D01*
X209232643Y-112848001D01*
X210653646Y-111427000D01*
X210671603Y-111427000D01*
X210812058Y-111399062D01*
X210944364Y-111344259D01*
X211063436Y-111264698D01*
X211164698Y-111163436D01*
X211244259Y-111044364D01*
X211299062Y-110912058D01*
X211327000Y-110771603D01*
X211327000Y-110628397D01*
X211299062Y-110487942D01*
X211244259Y-110355636D01*
X211164698Y-110236564D01*
X211105135Y-110177001D01*
X212524660Y-110177001D01*
X212551766Y-110179671D01*
X212578872Y-110177001D01*
X212578875Y-110177001D01*
X212659977Y-110169013D01*
X212764029Y-110137449D01*
X212859924Y-110086192D01*
X212943977Y-110017212D01*
X212961267Y-109996144D01*
X213010363Y-109947048D01*
X213027937Y-109941717D01*
X213128175Y-109888139D01*
X213194025Y-109834098D01*
X214270934Y-108757189D01*
X214270934Y-109625000D01*
G04 #@! TA.AperFunction,Conductor*
D30*
G36*
X214270934Y-109625000D02*
G01*
X214279178Y-109708707D01*
X214303595Y-109789196D01*
X214343245Y-109863376D01*
X214396605Y-109928395D01*
X214461624Y-109981755D01*
X214473001Y-109987836D01*
X214473000Y-112212164D01*
X214461624Y-112218245D01*
X214396605Y-112271605D01*
X214343245Y-112336624D01*
X214303595Y-112410804D01*
X214279178Y-112491293D01*
X214270934Y-112575000D01*
X214270934Y-113548001D01*
X211975059Y-113548001D01*
X211898661Y-113471603D01*
X211455913Y-113028857D01*
X211438624Y-113007790D01*
X211354571Y-112938810D01*
X211258676Y-112887553D01*
X211154624Y-112855989D01*
X211073522Y-112848001D01*
X211073519Y-112848001D01*
X211046413Y-112845331D01*
X211019307Y-112848001D01*
X209232643Y-112848001D01*
X210653646Y-111427000D01*
X210671603Y-111427000D01*
X210812058Y-111399062D01*
X210944364Y-111344259D01*
X211063436Y-111264698D01*
X211164698Y-111163436D01*
X211244259Y-111044364D01*
X211299062Y-110912058D01*
X211327000Y-110771603D01*
X211327000Y-110628397D01*
X211299062Y-110487942D01*
X211244259Y-110355636D01*
X211164698Y-110236564D01*
X211105135Y-110177001D01*
X212524660Y-110177001D01*
X212551766Y-110179671D01*
X212578872Y-110177001D01*
X212578875Y-110177001D01*
X212659977Y-110169013D01*
X212764029Y-110137449D01*
X212859924Y-110086192D01*
X212943977Y-110017212D01*
X212961267Y-109996144D01*
X213010363Y-109947048D01*
X213027937Y-109941717D01*
X213128175Y-109888139D01*
X213194025Y-109834098D01*
X214270934Y-108757189D01*
X214270934Y-109625000D01*
G37*
G04 #@! TD.AperFunction*
D29*
X216420934Y-109650000D02*
X216429178Y-109733707D01*
X216453595Y-109814196D01*
X216493245Y-109888376D01*
X216546605Y-109953395D01*
X216598001Y-109995575D01*
X216598000Y-112229426D01*
X216546605Y-112271605D01*
X216493245Y-112336624D01*
X216453595Y-112410804D01*
X216429178Y-112491293D01*
X216420934Y-112575000D01*
X216420934Y-113148421D01*
X216021355Y-113548001D01*
X215779066Y-113548001D01*
X215779066Y-112575000D01*
X215770822Y-112491293D01*
X215746405Y-112410804D01*
X215706755Y-112336624D01*
X215653395Y-112271605D01*
X215588376Y-112218245D01*
X215577000Y-112212164D01*
X215577000Y-109987836D01*
X215588376Y-109981755D01*
X215653395Y-109928395D01*
X215706755Y-109863376D01*
X215746405Y-109789196D01*
X215770822Y-109708707D01*
X215779066Y-109625000D01*
X215779066Y-109326578D01*
X216053645Y-109052000D01*
X216071603Y-109052000D01*
X216212058Y-109024062D01*
X216344364Y-108969259D01*
X216420934Y-108918097D01*
X216420934Y-109650000D01*
G04 #@! TA.AperFunction,Conductor*
D30*
G36*
X216420934Y-109650000D02*
G01*
X216429178Y-109733707D01*
X216453595Y-109814196D01*
X216493245Y-109888376D01*
X216546605Y-109953395D01*
X216598001Y-109995575D01*
X216598000Y-112229426D01*
X216546605Y-112271605D01*
X216493245Y-112336624D01*
X216453595Y-112410804D01*
X216429178Y-112491293D01*
X216420934Y-112575000D01*
X216420934Y-113148421D01*
X216021355Y-113548001D01*
X215779066Y-113548001D01*
X215779066Y-112575000D01*
X215770822Y-112491293D01*
X215746405Y-112410804D01*
X215706755Y-112336624D01*
X215653395Y-112271605D01*
X215588376Y-112218245D01*
X215577000Y-112212164D01*
X215577000Y-109987836D01*
X215588376Y-109981755D01*
X215653395Y-109928395D01*
X215706755Y-109863376D01*
X215746405Y-109789196D01*
X215770822Y-109708707D01*
X215779066Y-109625000D01*
X215779066Y-109326578D01*
X216053645Y-109052000D01*
X216071603Y-109052000D01*
X216212058Y-109024062D01*
X216344364Y-108969259D01*
X216420934Y-108918097D01*
X216420934Y-109650000D01*
G37*
G04 #@! TD.AperFunction*
D29*
X192570934Y-107300000D02*
X192570934Y-107700000D01*
X192579178Y-107783707D01*
X192599289Y-107850000D01*
X192579178Y-107916293D01*
X192570934Y-108000000D01*
X192570934Y-108400000D01*
X192579178Y-108483707D01*
X192599289Y-108550000D01*
X192579178Y-108616293D01*
X192570934Y-108700000D01*
X192570934Y-108870728D01*
X192514698Y-108786564D01*
X192413436Y-108685302D01*
X192294364Y-108605741D01*
X192162058Y-108550938D01*
X192021603Y-108523000D01*
X191878397Y-108523000D01*
X191737942Y-108550938D01*
X191605636Y-108605741D01*
X191486564Y-108685302D01*
X191385302Y-108786564D01*
X191305741Y-108905636D01*
X191250938Y-109037942D01*
X191223000Y-109178397D01*
X191223000Y-109321603D01*
X191250938Y-109462058D01*
X191305741Y-109594364D01*
X191385302Y-109713436D01*
X191486564Y-109814698D01*
X191503421Y-109825961D01*
X191557790Y-109892211D01*
X191578852Y-109909496D01*
X192340507Y-110671153D01*
X192357789Y-110692211D01*
X192378845Y-110709491D01*
X192378846Y-110709492D01*
X192441842Y-110761191D01*
X192537737Y-110812448D01*
X192570934Y-110822518D01*
X192570934Y-111030080D01*
X192554284Y-111043412D01*
X192473772Y-111139140D01*
X192413483Y-111248736D01*
X192375734Y-111367987D01*
X192365000Y-111468250D01*
X192523750Y-111627000D01*
X192979022Y-111627000D01*
X193000000Y-111629066D01*
X194147000Y-111629066D01*
X194147000Y-111770934D01*
X193000000Y-111770934D01*
X192979022Y-111773000D01*
X192523750Y-111773000D01*
X192365000Y-111931750D01*
X192375734Y-112032013D01*
X192388170Y-112071297D01*
X192370895Y-112072999D01*
X191152107Y-112072999D01*
X191125001Y-112070329D01*
X191097895Y-112072999D01*
X191097892Y-112072999D01*
X191016790Y-112080987D01*
X190912738Y-112112551D01*
X190816843Y-112163808D01*
X190732790Y-112232788D01*
X190715505Y-112253850D01*
X190351999Y-112617357D01*
X190351999Y-109468643D01*
X192576428Y-107244215D01*
X192570934Y-107300000D01*
G04 #@! TA.AperFunction,Conductor*
D30*
G36*
X192570934Y-107300000D02*
G01*
X192570934Y-107700000D01*
X192579178Y-107783707D01*
X192599289Y-107850000D01*
X192579178Y-107916293D01*
X192570934Y-108000000D01*
X192570934Y-108400000D01*
X192579178Y-108483707D01*
X192599289Y-108550000D01*
X192579178Y-108616293D01*
X192570934Y-108700000D01*
X192570934Y-108870728D01*
X192514698Y-108786564D01*
X192413436Y-108685302D01*
X192294364Y-108605741D01*
X192162058Y-108550938D01*
X192021603Y-108523000D01*
X191878397Y-108523000D01*
X191737942Y-108550938D01*
X191605636Y-108605741D01*
X191486564Y-108685302D01*
X191385302Y-108786564D01*
X191305741Y-108905636D01*
X191250938Y-109037942D01*
X191223000Y-109178397D01*
X191223000Y-109321603D01*
X191250938Y-109462058D01*
X191305741Y-109594364D01*
X191385302Y-109713436D01*
X191486564Y-109814698D01*
X191503421Y-109825961D01*
X191557790Y-109892211D01*
X191578852Y-109909496D01*
X192340507Y-110671153D01*
X192357789Y-110692211D01*
X192378845Y-110709491D01*
X192378846Y-110709492D01*
X192441842Y-110761191D01*
X192537737Y-110812448D01*
X192570934Y-110822518D01*
X192570934Y-111030080D01*
X192554284Y-111043412D01*
X192473772Y-111139140D01*
X192413483Y-111248736D01*
X192375734Y-111367987D01*
X192365000Y-111468250D01*
X192523750Y-111627000D01*
X192979022Y-111627000D01*
X193000000Y-111629066D01*
X194147000Y-111629066D01*
X194147000Y-111770934D01*
X193000000Y-111770934D01*
X192979022Y-111773000D01*
X192523750Y-111773000D01*
X192365000Y-111931750D01*
X192375734Y-112032013D01*
X192388170Y-112071297D01*
X192370895Y-112072999D01*
X191152107Y-112072999D01*
X191125001Y-112070329D01*
X191097895Y-112072999D01*
X191097892Y-112072999D01*
X191016790Y-112080987D01*
X190912738Y-112112551D01*
X190816843Y-112163808D01*
X190732790Y-112232788D01*
X190715505Y-112253850D01*
X190351999Y-112617357D01*
X190351999Y-109468643D01*
X192576428Y-107244215D01*
X192570934Y-107300000D01*
G37*
G04 #@! TD.AperFunction*
D29*
X180603595Y-101495804D02*
X180579178Y-101576293D01*
X180570934Y-101660000D01*
X180570934Y-103460000D01*
X180579178Y-103543707D01*
X180603595Y-103624196D01*
X180643245Y-103698376D01*
X180696605Y-103763395D01*
X180761624Y-103816755D01*
X180835804Y-103856405D01*
X180916293Y-103880822D01*
X181000000Y-103889066D01*
X181355836Y-103889066D01*
X181271430Y-103924028D01*
X181054087Y-104069252D01*
X180869252Y-104254087D01*
X180724028Y-104471430D01*
X180623996Y-104712928D01*
X180573000Y-104969302D01*
X180573000Y-105230698D01*
X180623996Y-105487072D01*
X180724028Y-105728570D01*
X180869252Y-105945913D01*
X181054087Y-106130748D01*
X181271430Y-106275972D01*
X181512928Y-106376004D01*
X181769302Y-106427000D01*
X182030698Y-106427000D01*
X182287072Y-106376004D01*
X182528570Y-106275972D01*
X182745913Y-106130748D01*
X182930748Y-105945913D01*
X183023001Y-105807847D01*
X183023001Y-105969577D01*
X178669578Y-110323000D01*
X177227000Y-110323000D01*
X177227000Y-106391184D01*
X177252333Y-106377643D01*
X177321159Y-106321159D01*
X177377643Y-106252333D01*
X177419614Y-106173810D01*
X177445460Y-106088607D01*
X177454187Y-106000000D01*
X177452000Y-105977795D01*
X177452000Y-102022109D01*
X177464563Y-101893978D01*
X177495353Y-101792001D01*
X177504150Y-101775456D01*
X177776086Y-101503520D01*
X177788481Y-101496818D01*
X177890245Y-101465316D01*
X178016938Y-101452000D01*
X180627009Y-101452000D01*
X180603595Y-101495804D01*
G04 #@! TA.AperFunction,Conductor*
D30*
G36*
X180603595Y-101495804D02*
G01*
X180579178Y-101576293D01*
X180570934Y-101660000D01*
X180570934Y-103460000D01*
X180579178Y-103543707D01*
X180603595Y-103624196D01*
X180643245Y-103698376D01*
X180696605Y-103763395D01*
X180761624Y-103816755D01*
X180835804Y-103856405D01*
X180916293Y-103880822D01*
X181000000Y-103889066D01*
X181355836Y-103889066D01*
X181271430Y-103924028D01*
X181054087Y-104069252D01*
X180869252Y-104254087D01*
X180724028Y-104471430D01*
X180623996Y-104712928D01*
X180573000Y-104969302D01*
X180573000Y-105230698D01*
X180623996Y-105487072D01*
X180724028Y-105728570D01*
X180869252Y-105945913D01*
X181054087Y-106130748D01*
X181271430Y-106275972D01*
X181512928Y-106376004D01*
X181769302Y-106427000D01*
X182030698Y-106427000D01*
X182287072Y-106376004D01*
X182528570Y-106275972D01*
X182745913Y-106130748D01*
X182930748Y-105945913D01*
X183023001Y-105807847D01*
X183023001Y-105969577D01*
X178669578Y-110323000D01*
X177227000Y-110323000D01*
X177227000Y-106391184D01*
X177252333Y-106377643D01*
X177321159Y-106321159D01*
X177377643Y-106252333D01*
X177419614Y-106173810D01*
X177445460Y-106088607D01*
X177454187Y-106000000D01*
X177452000Y-105977795D01*
X177452000Y-102022109D01*
X177464563Y-101893978D01*
X177495353Y-101792001D01*
X177504150Y-101775456D01*
X177776086Y-101503520D01*
X177788481Y-101496818D01*
X177890245Y-101465316D01*
X178016938Y-101452000D01*
X180627009Y-101452000D01*
X180603595Y-101495804D01*
G37*
G04 #@! TD.AperFunction*
D29*
X212220934Y-102876579D02*
X212220934Y-103450000D01*
X212229178Y-103533707D01*
X212253595Y-103614196D01*
X212293245Y-103688376D01*
X212346605Y-103753395D01*
X212398000Y-103795574D01*
X212398001Y-106029425D01*
X212346605Y-106071605D01*
X212293245Y-106136624D01*
X212253595Y-106210804D01*
X212229178Y-106291293D01*
X212220934Y-106375000D01*
X212220934Y-107575000D01*
X212229178Y-107658707D01*
X212253595Y-107739196D01*
X212293245Y-107813376D01*
X212346605Y-107878395D01*
X212411624Y-107931755D01*
X212485804Y-107971405D01*
X212566293Y-107995822D01*
X212650000Y-108004066D01*
X212684934Y-108004066D01*
X212266001Y-108423000D01*
X207391716Y-108423000D01*
X207444259Y-108344364D01*
X207499062Y-108212058D01*
X207527000Y-108071603D01*
X207527000Y-107928397D01*
X207499062Y-107787942D01*
X207444259Y-107655636D01*
X207390380Y-107575000D01*
X209861928Y-107575000D01*
X209874188Y-107699482D01*
X209910498Y-107819180D01*
X209969463Y-107929494D01*
X210048815Y-108026185D01*
X210145506Y-108105537D01*
X210255820Y-108164502D01*
X210375518Y-108200812D01*
X210500000Y-108213072D01*
X210539250Y-108210000D01*
X210698000Y-108051250D01*
X210698000Y-107102000D01*
X210952000Y-107102000D01*
X210952000Y-108051250D01*
X211110750Y-108210000D01*
X211150000Y-108213072D01*
X211274482Y-108200812D01*
X211394180Y-108164502D01*
X211504494Y-108105537D01*
X211601185Y-108026185D01*
X211680537Y-107929494D01*
X211739502Y-107819180D01*
X211775812Y-107699482D01*
X211788072Y-107575000D01*
X211785000Y-107260750D01*
X211626250Y-107102000D01*
X210952000Y-107102000D01*
X210698000Y-107102000D01*
X210023750Y-107102000D01*
X209865000Y-107260750D01*
X209861928Y-107575000D01*
X207390380Y-107575000D01*
X207364698Y-107536564D01*
X207263436Y-107435302D01*
X207144364Y-107355741D01*
X207012058Y-107300938D01*
X206985074Y-107295571D01*
X207905645Y-106375000D01*
X209861928Y-106375000D01*
X209865000Y-106689250D01*
X210023750Y-106848000D01*
X210698000Y-106848000D01*
X210698000Y-105898750D01*
X210952000Y-105898750D01*
X210952000Y-106848000D01*
X211626250Y-106848000D01*
X211785000Y-106689250D01*
X211788072Y-106375000D01*
X211775812Y-106250518D01*
X211739502Y-106130820D01*
X211680537Y-106020506D01*
X211601185Y-105923815D01*
X211504494Y-105844463D01*
X211394180Y-105785498D01*
X211274482Y-105749188D01*
X211150000Y-105736928D01*
X211110750Y-105740000D01*
X210952000Y-105898750D01*
X210698000Y-105898750D01*
X210539250Y-105740000D01*
X210500000Y-105736928D01*
X210375518Y-105749188D01*
X210255820Y-105785498D01*
X210145506Y-105844463D01*
X210048815Y-105923815D01*
X209969463Y-106020506D01*
X209910498Y-106130820D01*
X209874188Y-106250518D01*
X209861928Y-106375000D01*
X207905645Y-106375000D01*
X208503645Y-105777000D01*
X208521603Y-105777000D01*
X208662058Y-105749062D01*
X208794364Y-105694259D01*
X208913436Y-105614698D01*
X209014698Y-105513436D01*
X209094259Y-105394364D01*
X209100000Y-105380504D01*
X209105741Y-105394364D01*
X209185302Y-105513436D01*
X209286564Y-105614698D01*
X209405636Y-105694259D01*
X209537942Y-105749062D01*
X209678397Y-105777000D01*
X209821603Y-105777000D01*
X209962058Y-105749062D01*
X210094364Y-105694259D01*
X210213436Y-105614698D01*
X210314698Y-105513436D01*
X210394259Y-105394364D01*
X210424223Y-105322024D01*
X210485302Y-105413436D01*
X210586564Y-105514698D01*
X210705636Y-105594259D01*
X210837942Y-105649062D01*
X210978397Y-105677000D01*
X211121603Y-105677000D01*
X211262058Y-105649062D01*
X211394364Y-105594259D01*
X211513436Y-105514698D01*
X211614698Y-105413436D01*
X211694259Y-105294364D01*
X211749062Y-105162058D01*
X211777000Y-105021603D01*
X211777000Y-104878397D01*
X211749062Y-104737942D01*
X211694259Y-104605636D01*
X211614698Y-104486564D01*
X211513436Y-104385302D01*
X211394364Y-104305741D01*
X211262058Y-104250938D01*
X211121603Y-104223000D01*
X211103645Y-104223000D01*
X210940645Y-104060000D01*
X210952002Y-104060000D01*
X210952002Y-103901252D01*
X211110750Y-104060000D01*
X211150000Y-104063072D01*
X211274482Y-104050812D01*
X211394180Y-104014502D01*
X211504494Y-103955537D01*
X211601185Y-103876185D01*
X211680537Y-103779494D01*
X211739502Y-103669180D01*
X211775812Y-103549482D01*
X211788072Y-103425000D01*
X211785000Y-103110750D01*
X211626250Y-102952000D01*
X210952000Y-102952000D01*
X210952000Y-102972000D01*
X210698000Y-102972000D01*
X210698000Y-102952000D01*
X210678000Y-102952000D01*
X210678000Y-102698000D01*
X210698000Y-102698000D01*
X210698000Y-102678000D01*
X210952000Y-102678000D01*
X210952000Y-102698000D01*
X211626250Y-102698000D01*
X211785000Y-102539250D01*
X211785853Y-102451999D01*
X211796355Y-102451999D01*
X212220934Y-102876579D01*
G04 #@! TA.AperFunction,Conductor*
D30*
G36*
X212220934Y-102876579D02*
G01*
X212220934Y-103450000D01*
X212229178Y-103533707D01*
X212253595Y-103614196D01*
X212293245Y-103688376D01*
X212346605Y-103753395D01*
X212398000Y-103795574D01*
X212398001Y-106029425D01*
X212346605Y-106071605D01*
X212293245Y-106136624D01*
X212253595Y-106210804D01*
X212229178Y-106291293D01*
X212220934Y-106375000D01*
X212220934Y-107575000D01*
X212229178Y-107658707D01*
X212253595Y-107739196D01*
X212293245Y-107813376D01*
X212346605Y-107878395D01*
X212411624Y-107931755D01*
X212485804Y-107971405D01*
X212566293Y-107995822D01*
X212650000Y-108004066D01*
X212684934Y-108004066D01*
X212266001Y-108423000D01*
X207391716Y-108423000D01*
X207444259Y-108344364D01*
X207499062Y-108212058D01*
X207527000Y-108071603D01*
X207527000Y-107928397D01*
X207499062Y-107787942D01*
X207444259Y-107655636D01*
X207390380Y-107575000D01*
X209861928Y-107575000D01*
X209874188Y-107699482D01*
X209910498Y-107819180D01*
X209969463Y-107929494D01*
X210048815Y-108026185D01*
X210145506Y-108105537D01*
X210255820Y-108164502D01*
X210375518Y-108200812D01*
X210500000Y-108213072D01*
X210539250Y-108210000D01*
X210698000Y-108051250D01*
X210698000Y-107102000D01*
X210952000Y-107102000D01*
X210952000Y-108051250D01*
X211110750Y-108210000D01*
X211150000Y-108213072D01*
X211274482Y-108200812D01*
X211394180Y-108164502D01*
X211504494Y-108105537D01*
X211601185Y-108026185D01*
X211680537Y-107929494D01*
X211739502Y-107819180D01*
X211775812Y-107699482D01*
X211788072Y-107575000D01*
X211785000Y-107260750D01*
X211626250Y-107102000D01*
X210952000Y-107102000D01*
X210698000Y-107102000D01*
X210023750Y-107102000D01*
X209865000Y-107260750D01*
X209861928Y-107575000D01*
X207390380Y-107575000D01*
X207364698Y-107536564D01*
X207263436Y-107435302D01*
X207144364Y-107355741D01*
X207012058Y-107300938D01*
X206985074Y-107295571D01*
X207905645Y-106375000D01*
X209861928Y-106375000D01*
X209865000Y-106689250D01*
X210023750Y-106848000D01*
X210698000Y-106848000D01*
X210698000Y-105898750D01*
X210952000Y-105898750D01*
X210952000Y-106848000D01*
X211626250Y-106848000D01*
X211785000Y-106689250D01*
X211788072Y-106375000D01*
X211775812Y-106250518D01*
X211739502Y-106130820D01*
X211680537Y-106020506D01*
X211601185Y-105923815D01*
X211504494Y-105844463D01*
X211394180Y-105785498D01*
X211274482Y-105749188D01*
X211150000Y-105736928D01*
X211110750Y-105740000D01*
X210952000Y-105898750D01*
X210698000Y-105898750D01*
X210539250Y-105740000D01*
X210500000Y-105736928D01*
X210375518Y-105749188D01*
X210255820Y-105785498D01*
X210145506Y-105844463D01*
X210048815Y-105923815D01*
X209969463Y-106020506D01*
X209910498Y-106130820D01*
X209874188Y-106250518D01*
X209861928Y-106375000D01*
X207905645Y-106375000D01*
X208503645Y-105777000D01*
X208521603Y-105777000D01*
X208662058Y-105749062D01*
X208794364Y-105694259D01*
X208913436Y-105614698D01*
X209014698Y-105513436D01*
X209094259Y-105394364D01*
X209100000Y-105380504D01*
X209105741Y-105394364D01*
X209185302Y-105513436D01*
X209286564Y-105614698D01*
X209405636Y-105694259D01*
X209537942Y-105749062D01*
X209678397Y-105777000D01*
X209821603Y-105777000D01*
X209962058Y-105749062D01*
X210094364Y-105694259D01*
X210213436Y-105614698D01*
X210314698Y-105513436D01*
X210394259Y-105394364D01*
X210424223Y-105322024D01*
X210485302Y-105413436D01*
X210586564Y-105514698D01*
X210705636Y-105594259D01*
X210837942Y-105649062D01*
X210978397Y-105677000D01*
X211121603Y-105677000D01*
X211262058Y-105649062D01*
X211394364Y-105594259D01*
X211513436Y-105514698D01*
X211614698Y-105413436D01*
X211694259Y-105294364D01*
X211749062Y-105162058D01*
X211777000Y-105021603D01*
X211777000Y-104878397D01*
X211749062Y-104737942D01*
X211694259Y-104605636D01*
X211614698Y-104486564D01*
X211513436Y-104385302D01*
X211394364Y-104305741D01*
X211262058Y-104250938D01*
X211121603Y-104223000D01*
X211103645Y-104223000D01*
X210940645Y-104060000D01*
X210952002Y-104060000D01*
X210952002Y-103901252D01*
X211110750Y-104060000D01*
X211150000Y-104063072D01*
X211274482Y-104050812D01*
X211394180Y-104014502D01*
X211504494Y-103955537D01*
X211601185Y-103876185D01*
X211680537Y-103779494D01*
X211739502Y-103669180D01*
X211775812Y-103549482D01*
X211788072Y-103425000D01*
X211785000Y-103110750D01*
X211626250Y-102952000D01*
X210952000Y-102952000D01*
X210952000Y-102972000D01*
X210698000Y-102972000D01*
X210698000Y-102952000D01*
X210678000Y-102952000D01*
X210678000Y-102698000D01*
X210698000Y-102698000D01*
X210698000Y-102678000D01*
X210952000Y-102678000D01*
X210952000Y-102698000D01*
X211626250Y-102698000D01*
X211785000Y-102539250D01*
X211785853Y-102451999D01*
X211796355Y-102451999D01*
X212220934Y-102876579D01*
G37*
G04 #@! TD.AperFunction*
D29*
X207607441Y-103413798D02*
X207523388Y-103482778D01*
X207506103Y-103503840D01*
X203402000Y-107607944D01*
X203402000Y-105077109D01*
X203404670Y-105050000D01*
X203394012Y-104941789D01*
X203362448Y-104837737D01*
X203311191Y-104741842D01*
X203242211Y-104657789D01*
X203158158Y-104588809D01*
X203062263Y-104537552D01*
X202958211Y-104505988D01*
X202877109Y-104498000D01*
X202850000Y-104495330D01*
X202822892Y-104498000D01*
X202042236Y-104498000D01*
X200946233Y-103401999D01*
X207629515Y-103401999D01*
X207607441Y-103413798D01*
G04 #@! TA.AperFunction,Conductor*
D30*
G36*
X207607441Y-103413798D02*
G01*
X207523388Y-103482778D01*
X207506103Y-103503840D01*
X203402000Y-107607944D01*
X203402000Y-105077109D01*
X203404670Y-105050000D01*
X203394012Y-104941789D01*
X203362448Y-104837737D01*
X203311191Y-104741842D01*
X203242211Y-104657789D01*
X203158158Y-104588809D01*
X203062263Y-104537552D01*
X202958211Y-104505988D01*
X202877109Y-104498000D01*
X202850000Y-104495330D01*
X202822892Y-104498000D01*
X202042236Y-104498000D01*
X200946233Y-103401999D01*
X207629515Y-103401999D01*
X207607441Y-103413798D01*
G37*
G04 #@! TD.AperFunction*
D29*
X197323000Y-105866679D02*
X197349016Y-105997474D01*
X197385478Y-106085500D01*
X197364604Y-106085500D01*
X197337498Y-106082830D01*
X197310392Y-106085500D01*
X197310389Y-106085500D01*
X197229287Y-106093488D01*
X197125235Y-106125052D01*
X197029340Y-106176309D01*
X196945287Y-106245289D01*
X196928002Y-106266351D01*
X196253857Y-106940497D01*
X196232790Y-106957786D01*
X196163810Y-107041839D01*
X196112553Y-107137735D01*
X196085830Y-107225830D01*
X196071603Y-107223000D01*
X195928397Y-107223000D01*
X195787942Y-107250938D01*
X195655636Y-107305741D01*
X195536564Y-107385302D01*
X195435302Y-107486564D01*
X195429066Y-107495897D01*
X195429066Y-107300000D01*
X195420822Y-107216293D01*
X195400711Y-107150000D01*
X195420822Y-107083707D01*
X195429066Y-107000000D01*
X195429066Y-106600000D01*
X195420822Y-106516293D01*
X195396405Y-106435804D01*
X195356755Y-106361624D01*
X195303395Y-106296605D01*
X195238376Y-106243245D01*
X195164196Y-106203595D01*
X195083707Y-106179178D01*
X195000000Y-106170934D01*
X193649710Y-106170934D01*
X194043645Y-105776999D01*
X197323000Y-105776999D01*
X197323000Y-105866679D01*
G04 #@! TA.AperFunction,Conductor*
D30*
G36*
X197323000Y-105866679D02*
G01*
X197349016Y-105997474D01*
X197385478Y-106085500D01*
X197364604Y-106085500D01*
X197337498Y-106082830D01*
X197310392Y-106085500D01*
X197310389Y-106085500D01*
X197229287Y-106093488D01*
X197125235Y-106125052D01*
X197029340Y-106176309D01*
X196945287Y-106245289D01*
X196928002Y-106266351D01*
X196253857Y-106940497D01*
X196232790Y-106957786D01*
X196163810Y-107041839D01*
X196112553Y-107137735D01*
X196085830Y-107225830D01*
X196071603Y-107223000D01*
X195928397Y-107223000D01*
X195787942Y-107250938D01*
X195655636Y-107305741D01*
X195536564Y-107385302D01*
X195435302Y-107486564D01*
X195429066Y-107495897D01*
X195429066Y-107300000D01*
X195420822Y-107216293D01*
X195400711Y-107150000D01*
X195420822Y-107083707D01*
X195429066Y-107000000D01*
X195429066Y-106600000D01*
X195420822Y-106516293D01*
X195396405Y-106435804D01*
X195356755Y-106361624D01*
X195303395Y-106296605D01*
X195238376Y-106243245D01*
X195164196Y-106203595D01*
X195083707Y-106179178D01*
X195000000Y-106170934D01*
X193649710Y-106170934D01*
X194043645Y-105776999D01*
X197323000Y-105776999D01*
X197323000Y-105866679D01*
G37*
G04 #@! TD.AperFunction*
D29*
X215815000Y-102514250D02*
X215973750Y-102673000D01*
X217173000Y-102673000D01*
X217173000Y-102653000D01*
X217427000Y-102653000D01*
X217427000Y-102673000D01*
X217447000Y-102673000D01*
X217447000Y-102927000D01*
X217427000Y-102927000D01*
X217427000Y-104126250D01*
X217562375Y-104261625D01*
X215450999Y-106373000D01*
X214578331Y-106373000D01*
X214550000Y-106370210D01*
X214521669Y-106373000D01*
X214521664Y-106373000D01*
X214494886Y-106375637D01*
X214436888Y-106381349D01*
X214375572Y-106399950D01*
X214328124Y-106414343D01*
X214227885Y-106467921D01*
X214140026Y-106540026D01*
X214121963Y-106562036D01*
X213729066Y-106954933D01*
X213729066Y-106375000D01*
X213720822Y-106291293D01*
X213696405Y-106210804D01*
X213656755Y-106136624D01*
X213603395Y-106071605D01*
X213552000Y-106029426D01*
X213552000Y-103795574D01*
X213603395Y-103753395D01*
X213656755Y-103688376D01*
X213677267Y-103650000D01*
X215811928Y-103650000D01*
X215824188Y-103774482D01*
X215860498Y-103894180D01*
X215919463Y-104004494D01*
X215998815Y-104101185D01*
X216095506Y-104180537D01*
X216205820Y-104239502D01*
X216325518Y-104275812D01*
X216450000Y-104288072D01*
X217014250Y-104285000D01*
X217173000Y-104126250D01*
X217173000Y-102927000D01*
X215973750Y-102927000D01*
X215815000Y-103085750D01*
X215811928Y-103650000D01*
X213677267Y-103650000D01*
X213696405Y-103614196D01*
X213720822Y-103533707D01*
X213729066Y-103450000D01*
X213729066Y-102250000D01*
X213720822Y-102166293D01*
X213696405Y-102085804D01*
X213656755Y-102011624D01*
X213628340Y-101977000D01*
X215812075Y-101977000D01*
X215815000Y-102514250D01*
G04 #@! TA.AperFunction,Conductor*
D30*
G36*
X215815000Y-102514250D02*
G01*
X215973750Y-102673000D01*
X217173000Y-102673000D01*
X217173000Y-102653000D01*
X217427000Y-102653000D01*
X217427000Y-102673000D01*
X217447000Y-102673000D01*
X217447000Y-102927000D01*
X217427000Y-102927000D01*
X217427000Y-104126250D01*
X217562375Y-104261625D01*
X215450999Y-106373000D01*
X214578331Y-106373000D01*
X214550000Y-106370210D01*
X214521669Y-106373000D01*
X214521664Y-106373000D01*
X214494886Y-106375637D01*
X214436888Y-106381349D01*
X214375572Y-106399950D01*
X214328124Y-106414343D01*
X214227885Y-106467921D01*
X214140026Y-106540026D01*
X214121963Y-106562036D01*
X213729066Y-106954933D01*
X213729066Y-106375000D01*
X213720822Y-106291293D01*
X213696405Y-106210804D01*
X213656755Y-106136624D01*
X213603395Y-106071605D01*
X213552000Y-106029426D01*
X213552000Y-103795574D01*
X213603395Y-103753395D01*
X213656755Y-103688376D01*
X213677267Y-103650000D01*
X215811928Y-103650000D01*
X215824188Y-103774482D01*
X215860498Y-103894180D01*
X215919463Y-104004494D01*
X215998815Y-104101185D01*
X216095506Y-104180537D01*
X216205820Y-104239502D01*
X216325518Y-104275812D01*
X216450000Y-104288072D01*
X217014250Y-104285000D01*
X217173000Y-104126250D01*
X217173000Y-102927000D01*
X215973750Y-102927000D01*
X215815000Y-103085750D01*
X215811928Y-103650000D01*
X213677267Y-103650000D01*
X213696405Y-103614196D01*
X213720822Y-103533707D01*
X213729066Y-103450000D01*
X213729066Y-102250000D01*
X213720822Y-102166293D01*
X213696405Y-102085804D01*
X213656755Y-102011624D01*
X213628340Y-101977000D01*
X215812075Y-101977000D01*
X215815000Y-102514250D01*
G37*
G04 #@! TD.AperFunction*
M02*
