G04 #@! TF.GenerationSoftware,KiCad,Pcbnew,(5.1.10-1-10_14)*
G04 #@! TF.CreationDate,2021-11-14T21:27:09+03:00*
G04 #@! TF.ProjectId,IR_iButton,49525f69-4275-4747-946f-6e2e6b696361,rev?*
G04 #@! TF.SameCoordinates,Original*
G04 #@! TF.FileFunction,Legend,Bot*
G04 #@! TF.FilePolarity,Positive*
%FSLAX46Y46*%
G04 Gerber Fmt 4.6, Leading zero omitted, Abs format (unit mm)*
G04 Created by KiCad (PCBNEW (5.1.10-1-10_14)) date 2021-11-14 21:27:09*
%MOMM*%
%LPD*%
G01*
G04 APERTURE LIST*
%ADD10C,0.120000*%
%ADD11C,0.150000*%
G04 APERTURE END LIST*
D10*
X211080000Y-111210000D02*
X210150000Y-111210000D01*
X207920000Y-111210000D02*
X208850000Y-111210000D01*
X207920000Y-111210000D02*
X207920000Y-109050000D01*
X211080000Y-111210000D02*
X211080000Y-109750000D01*
X209687258Y-107327500D02*
X209212742Y-107327500D01*
X209687258Y-108372500D02*
X209212742Y-108372500D01*
X189985000Y-116940580D02*
X189985000Y-116659420D01*
X188965000Y-116940580D02*
X188965000Y-116659420D01*
X203850000Y-114450000D02*
X202750000Y-114450000D01*
X203850000Y-116350000D02*
X202750000Y-116350000D01*
X205250000Y-114500000D02*
X205250000Y-116300000D01*
X201540000Y-118209420D02*
X201540000Y-118490580D01*
X202560000Y-118209420D02*
X202560000Y-118490580D01*
X204040000Y-118159420D02*
X204040000Y-118440580D01*
X205060000Y-118159420D02*
X205060000Y-118440580D01*
X219910000Y-117565580D02*
X219910000Y-117284420D01*
X218890000Y-117565580D02*
X218890000Y-117284420D01*
X203560000Y-108565000D02*
X203560000Y-108090000D01*
X203560000Y-108090000D02*
X203085000Y-108090000D01*
X198340000Y-112835000D02*
X198340000Y-113310000D01*
X198340000Y-113310000D02*
X198815000Y-113310000D01*
X198340000Y-108565000D02*
X198340000Y-108090000D01*
X198340000Y-108090000D02*
X198815000Y-108090000D01*
X203560000Y-112835000D02*
X203560000Y-113310000D01*
X212965000Y-113570000D02*
X212240000Y-113570000D01*
X212240000Y-113570000D02*
X212240000Y-114295000D01*
X216735000Y-118790000D02*
X217460000Y-118790000D01*
X217460000Y-118790000D02*
X217460000Y-118065000D01*
X212965000Y-118790000D02*
X212240000Y-118790000D01*
X212240000Y-118790000D02*
X212240000Y-118065000D01*
X216735000Y-113570000D02*
X217460000Y-113570000D01*
X216160000Y-108170000D02*
X216160000Y-109100000D01*
X216160000Y-111330000D02*
X216160000Y-110400000D01*
X216160000Y-111330000D02*
X214000000Y-111330000D01*
X216160000Y-108170000D02*
X214700000Y-108170000D01*
X198885000Y-117075000D02*
X198885000Y-118875000D01*
X195665000Y-118875000D02*
X195665000Y-116425000D01*
X214250000Y-104930000D02*
X212350000Y-104930000D01*
X215250000Y-107170000D02*
X212350000Y-107170000D01*
X225050000Y-109610000D02*
X223250000Y-109610000D01*
X223250000Y-106390000D02*
X225700000Y-106390000D01*
X202802500Y-102937742D02*
X202802500Y-103412258D01*
X203847500Y-102937742D02*
X203847500Y-103412258D01*
X191012742Y-115072500D02*
X191487258Y-115072500D01*
X191012742Y-114027500D02*
X191487258Y-114027500D01*
X191012742Y-110922500D02*
X191487258Y-110922500D01*
X191012742Y-109877500D02*
X191487258Y-109877500D01*
X191012742Y-112522500D02*
X191487258Y-112522500D01*
X191012742Y-111477500D02*
X191487258Y-111477500D01*
X205597500Y-103412258D02*
X205597500Y-102937742D01*
X204552500Y-103412258D02*
X204552500Y-102937742D01*
X220337258Y-119327500D02*
X219862742Y-119327500D01*
X220337258Y-120372500D02*
X219862742Y-120372500D01*
X208727500Y-102712742D02*
X208727500Y-103187258D01*
X209772500Y-102712742D02*
X209772500Y-103187258D01*
X210327500Y-102712742D02*
X210327500Y-103187258D01*
X211372500Y-102712742D02*
X211372500Y-103187258D01*
X207077500Y-102712742D02*
X207077500Y-103187258D01*
X208122500Y-102712742D02*
X208122500Y-103187258D01*
X219722500Y-106437258D02*
X219722500Y-105962742D01*
X218677500Y-106437258D02*
X218677500Y-105962742D01*
X193977500Y-117862742D02*
X193977500Y-118337258D01*
X195022500Y-117862742D02*
X195022500Y-118337258D01*
X192102500Y-117837742D02*
X192102500Y-118312258D01*
X193147500Y-117837742D02*
X193147500Y-118312258D01*
X228512742Y-109472500D02*
X228987258Y-109472500D01*
X228512742Y-108427500D02*
X228987258Y-108427500D01*
X217722500Y-106437258D02*
X217722500Y-105962742D01*
X216677500Y-106437258D02*
X216677500Y-105962742D01*
X222912742Y-105922500D02*
X223387258Y-105922500D01*
X222912742Y-104877500D02*
X223387258Y-104877500D01*
X221922500Y-117637258D02*
X221922500Y-117162742D01*
X220877500Y-117637258D02*
X220877500Y-117162742D01*
X221037258Y-113427500D02*
X220562742Y-113427500D01*
X221037258Y-114472500D02*
X220562742Y-114472500D01*
X206922500Y-115837258D02*
X206922500Y-115362742D01*
X205877500Y-115837258D02*
X205877500Y-115362742D01*
X197812258Y-104327500D02*
X197337742Y-104327500D01*
X197812258Y-105372500D02*
X197337742Y-105372500D01*
X207877500Y-113762742D02*
X207877500Y-114237258D01*
X208922500Y-113762742D02*
X208922500Y-114237258D01*
X199900000Y-101700000D02*
X201600000Y-101700000D01*
X201600000Y-101700000D02*
X201600000Y-104250000D01*
X199900000Y-101700000D02*
X199900000Y-104250000D01*
X229850000Y-108060000D02*
X227165000Y-108060000D01*
X227165000Y-108060000D02*
X227165000Y-106140000D01*
X227165000Y-106140000D02*
X229850000Y-106140000D01*
X213010000Y-109640580D02*
X213010000Y-109359420D01*
X211990000Y-109640580D02*
X211990000Y-109359420D01*
X212140000Y-102809420D02*
X212140000Y-103090580D01*
X213160000Y-102809420D02*
X213160000Y-103090580D01*
X221610000Y-108240580D02*
X221610000Y-107959420D01*
X220590000Y-108240580D02*
X220590000Y-107959420D01*
X213990000Y-102809420D02*
X213990000Y-103090580D01*
X215010000Y-102809420D02*
X215010000Y-103090580D01*
X220640000Y-111359420D02*
X220640000Y-111640580D01*
X221660000Y-111359420D02*
X221660000Y-111640580D01*
X209690000Y-113759420D02*
X209690000Y-114040580D01*
X210710000Y-113759420D02*
X210710000Y-114040580D01*
X217700000Y-112850000D02*
X219700000Y-112850000D01*
X219700000Y-112850000D02*
X219700000Y-107850000D01*
X219700000Y-107850000D02*
X217700000Y-107850000D01*
X217700000Y-107850000D02*
X217700000Y-112850000D01*
X217700000Y-110850000D02*
X219700000Y-110850000D01*
X229800000Y-110500000D02*
X231700000Y-110500000D01*
X225900000Y-110500000D02*
X227900000Y-110500000D01*
X229800000Y-119900000D02*
X231700000Y-119900000D01*
X225900000Y-119900000D02*
X227900000Y-119900000D01*
X231700000Y-110500000D02*
X231700000Y-119900000D01*
X185812742Y-103222500D02*
X186287258Y-103222500D01*
X185812742Y-102177500D02*
X186287258Y-102177500D01*
X185987742Y-107022500D02*
X186462258Y-107022500D01*
X185987742Y-105977500D02*
X186462258Y-105977500D01*
X184775000Y-105400000D02*
X184775000Y-103700000D01*
X184775000Y-103700000D02*
X187325000Y-103700000D01*
X184775000Y-105400000D02*
X187325000Y-105400000D01*
X215970000Y-101470000D02*
X215970000Y-102800000D01*
X217300000Y-101470000D02*
X215970000Y-101470000D01*
X218570000Y-101470000D02*
X218570000Y-104130000D01*
X218570000Y-104130000D02*
X223710000Y-104130000D01*
X218570000Y-101470000D02*
X223710000Y-101470000D01*
X223710000Y-101470000D02*
X223710000Y-104130000D01*
X182117258Y-112277500D02*
X181642742Y-112277500D01*
X182117258Y-113322500D02*
X181642742Y-113322500D01*
X181827258Y-106617500D02*
X181352742Y-106617500D01*
X181827258Y-107662500D02*
X181352742Y-107662500D01*
X182047258Y-114257500D02*
X181572742Y-114257500D01*
X182047258Y-115302500D02*
X181572742Y-115302500D01*
X182980000Y-102270000D02*
X183136000Y-102270000D01*
X180664000Y-102270000D02*
X180820000Y-102270000D01*
X182979837Y-104871130D02*
G75*
G03*
X182980000Y-102789039I-1079837J1041130D01*
G01*
X180820163Y-104871130D02*
G75*
G02*
X180820000Y-102789039I1079837J1041130D01*
G01*
X182978608Y-105502335D02*
G75*
G03*
X183135516Y-102270000I-1078608J1672335D01*
G01*
X180821392Y-105502335D02*
G75*
G02*
X180664484Y-102270000I1078608J1672335D01*
G01*
X180820000Y-119790000D02*
X180664000Y-119790000D01*
X183136000Y-119790000D02*
X182980000Y-119790000D01*
X180820163Y-117188870D02*
G75*
G03*
X180820000Y-119270961I1079837J-1041130D01*
G01*
X182979837Y-117188870D02*
G75*
G02*
X182980000Y-119270961I-1079837J-1041130D01*
G01*
X180821392Y-116557665D02*
G75*
G03*
X180664484Y-119790000I1078608J-1672335D01*
G01*
X182978608Y-116557665D02*
G75*
G02*
X183135516Y-119790000I-1078608J-1672335D01*
G01*
X180910000Y-111490000D02*
X182370000Y-111490000D01*
X180910000Y-108330000D02*
X183070000Y-108330000D01*
X180910000Y-108330000D02*
X180910000Y-109260000D01*
X180910000Y-111490000D02*
X180910000Y-110560000D01*
X184840000Y-113700000D02*
X184490000Y-113700000D01*
X184490000Y-113700000D02*
X184490000Y-111100000D01*
X187160000Y-113700000D02*
X187500000Y-113700000D01*
X187500000Y-113700000D02*
X187500000Y-108610000D01*
X187501736Y-109000083D02*
G75*
G02*
X187500000Y-113200000I-101736J-2099917D01*
G01*
D11*
X207547619Y-110354761D02*
X207500000Y-110259523D01*
X207404761Y-110164285D01*
X207261904Y-110021428D01*
X207214285Y-109926190D01*
X207214285Y-109830952D01*
X207452380Y-109878571D02*
X207404761Y-109783333D01*
X207309523Y-109688095D01*
X207119047Y-109640476D01*
X206785714Y-109640476D01*
X206595238Y-109688095D01*
X206500000Y-109783333D01*
X206452380Y-109878571D01*
X206452380Y-110069047D01*
X206500000Y-110164285D01*
X206595238Y-110259523D01*
X206785714Y-110307142D01*
X207119047Y-110307142D01*
X207309523Y-110259523D01*
X207404761Y-110164285D01*
X207452380Y-110069047D01*
X207452380Y-109878571D01*
X207452380Y-111259523D02*
X207452380Y-110688095D01*
X207452380Y-110973809D02*
X206452380Y-110973809D01*
X206595238Y-110878571D01*
X206690476Y-110783333D01*
X206738095Y-110688095D01*
X207266666Y-108452380D02*
X207600000Y-107976190D01*
X207838095Y-108452380D02*
X207838095Y-107452380D01*
X207457142Y-107452380D01*
X207361904Y-107500000D01*
X207314285Y-107547619D01*
X207266666Y-107642857D01*
X207266666Y-107785714D01*
X207314285Y-107880952D01*
X207361904Y-107928571D01*
X207457142Y-107976190D01*
X207838095Y-107976190D01*
X206314285Y-108452380D02*
X206885714Y-108452380D01*
X206600000Y-108452380D02*
X206600000Y-107452380D01*
X206695238Y-107595238D01*
X206790476Y-107690476D01*
X206885714Y-107738095D01*
X188457142Y-115957142D02*
X188504761Y-115909523D01*
X188552380Y-115766666D01*
X188552380Y-115671428D01*
X188504761Y-115528571D01*
X188409523Y-115433333D01*
X188314285Y-115385714D01*
X188123809Y-115338095D01*
X187980952Y-115338095D01*
X187790476Y-115385714D01*
X187695238Y-115433333D01*
X187600000Y-115528571D01*
X187552380Y-115671428D01*
X187552380Y-115766666D01*
X187600000Y-115909523D01*
X187647619Y-115957142D01*
X188552380Y-116909523D02*
X188552380Y-116338095D01*
X188552380Y-116623809D02*
X187552380Y-116623809D01*
X187695238Y-116528571D01*
X187790476Y-116433333D01*
X187838095Y-116338095D01*
X187552380Y-117528571D02*
X187552380Y-117623809D01*
X187600000Y-117719047D01*
X187647619Y-117766666D01*
X187742857Y-117814285D01*
X187933333Y-117861904D01*
X188171428Y-117861904D01*
X188361904Y-117814285D01*
X188457142Y-117766666D01*
X188504761Y-117719047D01*
X188552380Y-117623809D01*
X188552380Y-117528571D01*
X188504761Y-117433333D01*
X188457142Y-117385714D01*
X188361904Y-117338095D01*
X188171428Y-117290476D01*
X187933333Y-117290476D01*
X187742857Y-117338095D01*
X187647619Y-117385714D01*
X187600000Y-117433333D01*
X187552380Y-117528571D01*
X203676190Y-115476190D02*
X203676190Y-115952380D01*
X204009523Y-114952380D02*
X203676190Y-115476190D01*
X203342857Y-114952380D01*
X202485714Y-115952380D02*
X203057142Y-115952380D01*
X202771428Y-115952380D02*
X202771428Y-114952380D01*
X202866666Y-115095238D01*
X202961904Y-115190476D01*
X203057142Y-115238095D01*
X200957142Y-119033333D02*
X201004761Y-118985714D01*
X201052380Y-118842857D01*
X201052380Y-118747619D01*
X201004761Y-118604761D01*
X200909523Y-118509523D01*
X200814285Y-118461904D01*
X200623809Y-118414285D01*
X200480952Y-118414285D01*
X200290476Y-118461904D01*
X200195238Y-118509523D01*
X200100000Y-118604761D01*
X200052380Y-118747619D01*
X200052380Y-118842857D01*
X200100000Y-118985714D01*
X200147619Y-119033333D01*
X200480952Y-119604761D02*
X200433333Y-119509523D01*
X200385714Y-119461904D01*
X200290476Y-119414285D01*
X200242857Y-119414285D01*
X200147619Y-119461904D01*
X200100000Y-119509523D01*
X200052380Y-119604761D01*
X200052380Y-119795238D01*
X200100000Y-119890476D01*
X200147619Y-119938095D01*
X200242857Y-119985714D01*
X200290476Y-119985714D01*
X200385714Y-119938095D01*
X200433333Y-119890476D01*
X200480952Y-119795238D01*
X200480952Y-119604761D01*
X200528571Y-119509523D01*
X200576190Y-119461904D01*
X200671428Y-119414285D01*
X200861904Y-119414285D01*
X200957142Y-119461904D01*
X201004761Y-119509523D01*
X201052380Y-119604761D01*
X201052380Y-119795238D01*
X201004761Y-119890476D01*
X200957142Y-119938095D01*
X200861904Y-119985714D01*
X200671428Y-119985714D01*
X200576190Y-119938095D01*
X200528571Y-119890476D01*
X200480952Y-119795238D01*
X206357142Y-119133333D02*
X206404761Y-119085714D01*
X206452380Y-118942857D01*
X206452380Y-118847619D01*
X206404761Y-118704761D01*
X206309523Y-118609523D01*
X206214285Y-118561904D01*
X206023809Y-118514285D01*
X205880952Y-118514285D01*
X205690476Y-118561904D01*
X205595238Y-118609523D01*
X205500000Y-118704761D01*
X205452380Y-118847619D01*
X205452380Y-118942857D01*
X205500000Y-119085714D01*
X205547619Y-119133333D01*
X205452380Y-119466666D02*
X205452380Y-120133333D01*
X206452380Y-119704761D01*
X219366666Y-115757142D02*
X219414285Y-115804761D01*
X219557142Y-115852380D01*
X219652380Y-115852380D01*
X219795238Y-115804761D01*
X219890476Y-115709523D01*
X219938095Y-115614285D01*
X219985714Y-115423809D01*
X219985714Y-115280952D01*
X219938095Y-115090476D01*
X219890476Y-114995238D01*
X219795238Y-114900000D01*
X219652380Y-114852380D01*
X219557142Y-114852380D01*
X219414285Y-114900000D01*
X219366666Y-114947619D01*
X218890476Y-115852380D02*
X218700000Y-115852380D01*
X218604761Y-115804761D01*
X218557142Y-115757142D01*
X218461904Y-115614285D01*
X218414285Y-115423809D01*
X218414285Y-115042857D01*
X218461904Y-114947619D01*
X218509523Y-114900000D01*
X218604761Y-114852380D01*
X218795238Y-114852380D01*
X218890476Y-114900000D01*
X218938095Y-114947619D01*
X218985714Y-115042857D01*
X218985714Y-115280952D01*
X218938095Y-115376190D01*
X218890476Y-115423809D01*
X218795238Y-115471428D01*
X218604761Y-115471428D01*
X218509523Y-115423809D01*
X218461904Y-115376190D01*
X218414285Y-115280952D01*
X196752380Y-110338095D02*
X197561904Y-110338095D01*
X197657142Y-110385714D01*
X197704761Y-110433333D01*
X197752380Y-110528571D01*
X197752380Y-110719047D01*
X197704761Y-110814285D01*
X197657142Y-110861904D01*
X197561904Y-110909523D01*
X196752380Y-110909523D01*
X196752380Y-111814285D02*
X196752380Y-111623809D01*
X196800000Y-111528571D01*
X196847619Y-111480952D01*
X196990476Y-111385714D01*
X197180952Y-111338095D01*
X197561904Y-111338095D01*
X197657142Y-111385714D01*
X197704761Y-111433333D01*
X197752380Y-111528571D01*
X197752380Y-111719047D01*
X197704761Y-111814285D01*
X197657142Y-111861904D01*
X197561904Y-111909523D01*
X197323809Y-111909523D01*
X197228571Y-111861904D01*
X197180952Y-111814285D01*
X197133333Y-111719047D01*
X197133333Y-111528571D01*
X197180952Y-111433333D01*
X197228571Y-111385714D01*
X197323809Y-111338095D01*
X213861904Y-119352380D02*
X213861904Y-120161904D01*
X213814285Y-120257142D01*
X213766666Y-120304761D01*
X213671428Y-120352380D01*
X213480952Y-120352380D01*
X213385714Y-120304761D01*
X213338095Y-120257142D01*
X213290476Y-120161904D01*
X213290476Y-119352380D01*
X212338095Y-119352380D02*
X212814285Y-119352380D01*
X212861904Y-119828571D01*
X212814285Y-119780952D01*
X212719047Y-119733333D01*
X212480952Y-119733333D01*
X212385714Y-119780952D01*
X212338095Y-119828571D01*
X212290476Y-119923809D01*
X212290476Y-120161904D01*
X212338095Y-120257142D01*
X212385714Y-120304761D01*
X212480952Y-120352380D01*
X212719047Y-120352380D01*
X212814285Y-120304761D01*
X212861904Y-120257142D01*
X215961904Y-111552380D02*
X215961904Y-112361904D01*
X215914285Y-112457142D01*
X215866666Y-112504761D01*
X215771428Y-112552380D01*
X215580952Y-112552380D01*
X215485714Y-112504761D01*
X215438095Y-112457142D01*
X215390476Y-112361904D01*
X215390476Y-111552380D01*
X214485714Y-111885714D02*
X214485714Y-112552380D01*
X214723809Y-111504761D02*
X214961904Y-112219047D01*
X214342857Y-112219047D01*
X197961904Y-114952380D02*
X197961904Y-115761904D01*
X197914285Y-115857142D01*
X197866666Y-115904761D01*
X197771428Y-115952380D01*
X197580952Y-115952380D01*
X197485714Y-115904761D01*
X197438095Y-115857142D01*
X197390476Y-115761904D01*
X197390476Y-114952380D01*
X197009523Y-114952380D02*
X196390476Y-114952380D01*
X196723809Y-115333333D01*
X196580952Y-115333333D01*
X196485714Y-115380952D01*
X196438095Y-115428571D01*
X196390476Y-115523809D01*
X196390476Y-115761904D01*
X196438095Y-115857142D01*
X196485714Y-115904761D01*
X196580952Y-115952380D01*
X196866666Y-115952380D01*
X196961904Y-115904761D01*
X197009523Y-115857142D01*
X214461904Y-107152380D02*
X214461904Y-107961904D01*
X214414285Y-108057142D01*
X214366666Y-108104761D01*
X214271428Y-108152380D01*
X214080952Y-108152380D01*
X213985714Y-108104761D01*
X213938095Y-108057142D01*
X213890476Y-107961904D01*
X213890476Y-107152380D01*
X213461904Y-107247619D02*
X213414285Y-107200000D01*
X213319047Y-107152380D01*
X213080952Y-107152380D01*
X212985714Y-107200000D01*
X212938095Y-107247619D01*
X212890476Y-107342857D01*
X212890476Y-107438095D01*
X212938095Y-107580952D01*
X213509523Y-108152380D01*
X212890476Y-108152380D01*
X224611904Y-107452380D02*
X224611904Y-108261904D01*
X224564285Y-108357142D01*
X224516666Y-108404761D01*
X224421428Y-108452380D01*
X224230952Y-108452380D01*
X224135714Y-108404761D01*
X224088095Y-108357142D01*
X224040476Y-108261904D01*
X224040476Y-107452380D01*
X223040476Y-108452380D02*
X223611904Y-108452380D01*
X223326190Y-108452380D02*
X223326190Y-107452380D01*
X223421428Y-107595238D01*
X223516666Y-107690476D01*
X223611904Y-107738095D01*
X203852380Y-105357142D02*
X203376190Y-105023809D01*
X203852380Y-104785714D02*
X202852380Y-104785714D01*
X202852380Y-105166666D01*
X202900000Y-105261904D01*
X202947619Y-105309523D01*
X203042857Y-105357142D01*
X203185714Y-105357142D01*
X203280952Y-105309523D01*
X203328571Y-105261904D01*
X203376190Y-105166666D01*
X203376190Y-104785714D01*
X203852380Y-106309523D02*
X203852380Y-105738095D01*
X203852380Y-106023809D02*
X202852380Y-106023809D01*
X202995238Y-105928571D01*
X203090476Y-105833333D01*
X203138095Y-105738095D01*
X203280952Y-106880952D02*
X203233333Y-106785714D01*
X203185714Y-106738095D01*
X203090476Y-106690476D01*
X203042857Y-106690476D01*
X202947619Y-106738095D01*
X202900000Y-106785714D01*
X202852380Y-106880952D01*
X202852380Y-107071428D01*
X202900000Y-107166666D01*
X202947619Y-107214285D01*
X203042857Y-107261904D01*
X203090476Y-107261904D01*
X203185714Y-107214285D01*
X203233333Y-107166666D01*
X203280952Y-107071428D01*
X203280952Y-106880952D01*
X203328571Y-106785714D01*
X203376190Y-106738095D01*
X203471428Y-106690476D01*
X203661904Y-106690476D01*
X203757142Y-106738095D01*
X203804761Y-106785714D01*
X203852380Y-106880952D01*
X203852380Y-107071428D01*
X203804761Y-107166666D01*
X203757142Y-107214285D01*
X203661904Y-107261904D01*
X203471428Y-107261904D01*
X203376190Y-107214285D01*
X203328571Y-107166666D01*
X203280952Y-107071428D01*
X191942857Y-113852380D02*
X192276190Y-113376190D01*
X192514285Y-113852380D02*
X192514285Y-112852380D01*
X192133333Y-112852380D01*
X192038095Y-112900000D01*
X191990476Y-112947619D01*
X191942857Y-113042857D01*
X191942857Y-113185714D01*
X191990476Y-113280952D01*
X192038095Y-113328571D01*
X192133333Y-113376190D01*
X192514285Y-113376190D01*
X191561904Y-112947619D02*
X191514285Y-112900000D01*
X191419047Y-112852380D01*
X191180952Y-112852380D01*
X191085714Y-112900000D01*
X191038095Y-112947619D01*
X190990476Y-113042857D01*
X190990476Y-113138095D01*
X191038095Y-113280952D01*
X191609523Y-113852380D01*
X190990476Y-113852380D01*
X190657142Y-112852380D02*
X190038095Y-112852380D01*
X190371428Y-113233333D01*
X190228571Y-113233333D01*
X190133333Y-113280952D01*
X190085714Y-113328571D01*
X190038095Y-113423809D01*
X190038095Y-113661904D01*
X190085714Y-113757142D01*
X190133333Y-113804761D01*
X190228571Y-113852380D01*
X190514285Y-113852380D01*
X190609523Y-113804761D01*
X190657142Y-113757142D01*
X194742857Y-110952380D02*
X195076190Y-110476190D01*
X195314285Y-110952380D02*
X195314285Y-109952380D01*
X194933333Y-109952380D01*
X194838095Y-110000000D01*
X194790476Y-110047619D01*
X194742857Y-110142857D01*
X194742857Y-110285714D01*
X194790476Y-110380952D01*
X194838095Y-110428571D01*
X194933333Y-110476190D01*
X195314285Y-110476190D01*
X194361904Y-110047619D02*
X194314285Y-110000000D01*
X194219047Y-109952380D01*
X193980952Y-109952380D01*
X193885714Y-110000000D01*
X193838095Y-110047619D01*
X193790476Y-110142857D01*
X193790476Y-110238095D01*
X193838095Y-110380952D01*
X194409523Y-110952380D01*
X193790476Y-110952380D01*
X193409523Y-110047619D02*
X193361904Y-110000000D01*
X193266666Y-109952380D01*
X193028571Y-109952380D01*
X192933333Y-110000000D01*
X192885714Y-110047619D01*
X192838095Y-110142857D01*
X192838095Y-110238095D01*
X192885714Y-110380952D01*
X193457142Y-110952380D01*
X192838095Y-110952380D01*
X194842857Y-112452380D02*
X195176190Y-111976190D01*
X195414285Y-112452380D02*
X195414285Y-111452380D01*
X195033333Y-111452380D01*
X194938095Y-111500000D01*
X194890476Y-111547619D01*
X194842857Y-111642857D01*
X194842857Y-111785714D01*
X194890476Y-111880952D01*
X194938095Y-111928571D01*
X195033333Y-111976190D01*
X195414285Y-111976190D01*
X194461904Y-111547619D02*
X194414285Y-111500000D01*
X194319047Y-111452380D01*
X194080952Y-111452380D01*
X193985714Y-111500000D01*
X193938095Y-111547619D01*
X193890476Y-111642857D01*
X193890476Y-111738095D01*
X193938095Y-111880952D01*
X194509523Y-112452380D01*
X193890476Y-112452380D01*
X192938095Y-112452380D02*
X193509523Y-112452380D01*
X193223809Y-112452380D02*
X193223809Y-111452380D01*
X193319047Y-111595238D01*
X193414285Y-111690476D01*
X193509523Y-111738095D01*
X205552380Y-105357142D02*
X205076190Y-105023809D01*
X205552380Y-104785714D02*
X204552380Y-104785714D01*
X204552380Y-105166666D01*
X204600000Y-105261904D01*
X204647619Y-105309523D01*
X204742857Y-105357142D01*
X204885714Y-105357142D01*
X204980952Y-105309523D01*
X205028571Y-105261904D01*
X205076190Y-105166666D01*
X205076190Y-104785714D01*
X204647619Y-105738095D02*
X204600000Y-105785714D01*
X204552380Y-105880952D01*
X204552380Y-106119047D01*
X204600000Y-106214285D01*
X204647619Y-106261904D01*
X204742857Y-106309523D01*
X204838095Y-106309523D01*
X204980952Y-106261904D01*
X205552380Y-105690476D01*
X205552380Y-106309523D01*
X204552380Y-106928571D02*
X204552380Y-107023809D01*
X204600000Y-107119047D01*
X204647619Y-107166666D01*
X204742857Y-107214285D01*
X204933333Y-107261904D01*
X205171428Y-107261904D01*
X205361904Y-107214285D01*
X205457142Y-107166666D01*
X205504761Y-107119047D01*
X205552380Y-107023809D01*
X205552380Y-106928571D01*
X205504761Y-106833333D01*
X205457142Y-106785714D01*
X205361904Y-106738095D01*
X205171428Y-106690476D01*
X204933333Y-106690476D01*
X204742857Y-106738095D01*
X204647619Y-106785714D01*
X204600000Y-106833333D01*
X204552380Y-106928571D01*
X217892857Y-120552380D02*
X218226190Y-120076190D01*
X218464285Y-120552380D02*
X218464285Y-119552380D01*
X218083333Y-119552380D01*
X217988095Y-119600000D01*
X217940476Y-119647619D01*
X217892857Y-119742857D01*
X217892857Y-119885714D01*
X217940476Y-119980952D01*
X217988095Y-120028571D01*
X218083333Y-120076190D01*
X218464285Y-120076190D01*
X216940476Y-120552380D02*
X217511904Y-120552380D01*
X217226190Y-120552380D02*
X217226190Y-119552380D01*
X217321428Y-119695238D01*
X217416666Y-119790476D01*
X217511904Y-119838095D01*
X216607142Y-119552380D02*
X215940476Y-119552380D01*
X216369047Y-120552380D01*
X209752380Y-105157142D02*
X209276190Y-104823809D01*
X209752380Y-104585714D02*
X208752380Y-104585714D01*
X208752380Y-104966666D01*
X208800000Y-105061904D01*
X208847619Y-105109523D01*
X208942857Y-105157142D01*
X209085714Y-105157142D01*
X209180952Y-105109523D01*
X209228571Y-105061904D01*
X209276190Y-104966666D01*
X209276190Y-104585714D01*
X209752380Y-106109523D02*
X209752380Y-105538095D01*
X209752380Y-105823809D02*
X208752380Y-105823809D01*
X208895238Y-105728571D01*
X208990476Y-105633333D01*
X209038095Y-105538095D01*
X208752380Y-107014285D02*
X208752380Y-106538095D01*
X209228571Y-106490476D01*
X209180952Y-106538095D01*
X209133333Y-106633333D01*
X209133333Y-106871428D01*
X209180952Y-106966666D01*
X209228571Y-107014285D01*
X209323809Y-107061904D01*
X209561904Y-107061904D01*
X209657142Y-107014285D01*
X209704761Y-106966666D01*
X209752380Y-106871428D01*
X209752380Y-106633333D01*
X209704761Y-106538095D01*
X209657142Y-106490476D01*
X211352380Y-104957142D02*
X210876190Y-104623809D01*
X211352380Y-104385714D02*
X210352380Y-104385714D01*
X210352380Y-104766666D01*
X210400000Y-104861904D01*
X210447619Y-104909523D01*
X210542857Y-104957142D01*
X210685714Y-104957142D01*
X210780952Y-104909523D01*
X210828571Y-104861904D01*
X210876190Y-104766666D01*
X210876190Y-104385714D01*
X211352380Y-105909523D02*
X211352380Y-105338095D01*
X211352380Y-105623809D02*
X210352380Y-105623809D01*
X210495238Y-105528571D01*
X210590476Y-105433333D01*
X210638095Y-105338095D01*
X210685714Y-106766666D02*
X211352380Y-106766666D01*
X210304761Y-106528571D02*
X211019047Y-106290476D01*
X211019047Y-106909523D01*
X208052380Y-105257142D02*
X207576190Y-104923809D01*
X208052380Y-104685714D02*
X207052380Y-104685714D01*
X207052380Y-105066666D01*
X207100000Y-105161904D01*
X207147619Y-105209523D01*
X207242857Y-105257142D01*
X207385714Y-105257142D01*
X207480952Y-105209523D01*
X207528571Y-105161904D01*
X207576190Y-105066666D01*
X207576190Y-104685714D01*
X208052380Y-106209523D02*
X208052380Y-105638095D01*
X208052380Y-105923809D02*
X207052380Y-105923809D01*
X207195238Y-105828571D01*
X207290476Y-105733333D01*
X207338095Y-105638095D01*
X207052380Y-106542857D02*
X207052380Y-107161904D01*
X207433333Y-106828571D01*
X207433333Y-106971428D01*
X207480952Y-107066666D01*
X207528571Y-107114285D01*
X207623809Y-107161904D01*
X207861904Y-107161904D01*
X207957142Y-107114285D01*
X208004761Y-107066666D01*
X208052380Y-106971428D01*
X208052380Y-106685714D01*
X208004761Y-106590476D01*
X207957142Y-106542857D01*
X221052380Y-104757142D02*
X220576190Y-104423809D01*
X221052380Y-104185714D02*
X220052380Y-104185714D01*
X220052380Y-104566666D01*
X220100000Y-104661904D01*
X220147619Y-104709523D01*
X220242857Y-104757142D01*
X220385714Y-104757142D01*
X220480952Y-104709523D01*
X220528571Y-104661904D01*
X220576190Y-104566666D01*
X220576190Y-104185714D01*
X221052380Y-105709523D02*
X221052380Y-105138095D01*
X221052380Y-105423809D02*
X220052380Y-105423809D01*
X220195238Y-105328571D01*
X220290476Y-105233333D01*
X220338095Y-105138095D01*
X220147619Y-106090476D02*
X220100000Y-106138095D01*
X220052380Y-106233333D01*
X220052380Y-106471428D01*
X220100000Y-106566666D01*
X220147619Y-106614285D01*
X220242857Y-106661904D01*
X220338095Y-106661904D01*
X220480952Y-106614285D01*
X221052380Y-106042857D01*
X221052380Y-106661904D01*
X194952380Y-114657142D02*
X194476190Y-114323809D01*
X194952380Y-114085714D02*
X193952380Y-114085714D01*
X193952380Y-114466666D01*
X194000000Y-114561904D01*
X194047619Y-114609523D01*
X194142857Y-114657142D01*
X194285714Y-114657142D01*
X194380952Y-114609523D01*
X194428571Y-114561904D01*
X194476190Y-114466666D01*
X194476190Y-114085714D01*
X194952380Y-115609523D02*
X194952380Y-115038095D01*
X194952380Y-115323809D02*
X193952380Y-115323809D01*
X194095238Y-115228571D01*
X194190476Y-115133333D01*
X194238095Y-115038095D01*
X194952380Y-116561904D02*
X194952380Y-115990476D01*
X194952380Y-116276190D02*
X193952380Y-116276190D01*
X194095238Y-116180952D01*
X194190476Y-116085714D01*
X194238095Y-115990476D01*
X191852380Y-117432142D02*
X191376190Y-117098809D01*
X191852380Y-116860714D02*
X190852380Y-116860714D01*
X190852380Y-117241666D01*
X190900000Y-117336904D01*
X190947619Y-117384523D01*
X191042857Y-117432142D01*
X191185714Y-117432142D01*
X191280952Y-117384523D01*
X191328571Y-117336904D01*
X191376190Y-117241666D01*
X191376190Y-116860714D01*
X191852380Y-118384523D02*
X191852380Y-117813095D01*
X191852380Y-118098809D02*
X190852380Y-118098809D01*
X190995238Y-118003571D01*
X191090476Y-117908333D01*
X191138095Y-117813095D01*
X190852380Y-119003571D02*
X190852380Y-119098809D01*
X190900000Y-119194047D01*
X190947619Y-119241666D01*
X191042857Y-119289285D01*
X191233333Y-119336904D01*
X191471428Y-119336904D01*
X191661904Y-119289285D01*
X191757142Y-119241666D01*
X191804761Y-119194047D01*
X191852380Y-119098809D01*
X191852380Y-119003571D01*
X191804761Y-118908333D01*
X191757142Y-118860714D01*
X191661904Y-118813095D01*
X191471428Y-118765476D01*
X191233333Y-118765476D01*
X191042857Y-118813095D01*
X190947619Y-118860714D01*
X190900000Y-118908333D01*
X190852380Y-119003571D01*
X226816666Y-109452380D02*
X227150000Y-108976190D01*
X227388095Y-109452380D02*
X227388095Y-108452380D01*
X227007142Y-108452380D01*
X226911904Y-108500000D01*
X226864285Y-108547619D01*
X226816666Y-108642857D01*
X226816666Y-108785714D01*
X226864285Y-108880952D01*
X226911904Y-108928571D01*
X227007142Y-108976190D01*
X227388095Y-108976190D01*
X226340476Y-109452380D02*
X226150000Y-109452380D01*
X226054761Y-109404761D01*
X226007142Y-109357142D01*
X225911904Y-109214285D01*
X225864285Y-109023809D01*
X225864285Y-108642857D01*
X225911904Y-108547619D01*
X225959523Y-108500000D01*
X226054761Y-108452380D01*
X226245238Y-108452380D01*
X226340476Y-108500000D01*
X226388095Y-108547619D01*
X226435714Y-108642857D01*
X226435714Y-108880952D01*
X226388095Y-108976190D01*
X226340476Y-109023809D01*
X226245238Y-109071428D01*
X226054761Y-109071428D01*
X225959523Y-109023809D01*
X225911904Y-108976190D01*
X225864285Y-108880952D01*
X217652380Y-108233333D02*
X217176190Y-107900000D01*
X217652380Y-107661904D02*
X216652380Y-107661904D01*
X216652380Y-108042857D01*
X216700000Y-108138095D01*
X216747619Y-108185714D01*
X216842857Y-108233333D01*
X216985714Y-108233333D01*
X217080952Y-108185714D01*
X217128571Y-108138095D01*
X217176190Y-108042857D01*
X217176190Y-107661904D01*
X217080952Y-108804761D02*
X217033333Y-108709523D01*
X216985714Y-108661904D01*
X216890476Y-108614285D01*
X216842857Y-108614285D01*
X216747619Y-108661904D01*
X216700000Y-108709523D01*
X216652380Y-108804761D01*
X216652380Y-108995238D01*
X216700000Y-109090476D01*
X216747619Y-109138095D01*
X216842857Y-109185714D01*
X216890476Y-109185714D01*
X216985714Y-109138095D01*
X217033333Y-109090476D01*
X217080952Y-108995238D01*
X217080952Y-108804761D01*
X217128571Y-108709523D01*
X217176190Y-108661904D01*
X217271428Y-108614285D01*
X217461904Y-108614285D01*
X217557142Y-108661904D01*
X217604761Y-108709523D01*
X217652380Y-108804761D01*
X217652380Y-108995238D01*
X217604761Y-109090476D01*
X217557142Y-109138095D01*
X217461904Y-109185714D01*
X217271428Y-109185714D01*
X217176190Y-109138095D01*
X217128571Y-109090476D01*
X217080952Y-108995238D01*
X224866666Y-104552380D02*
X225200000Y-104076190D01*
X225438095Y-104552380D02*
X225438095Y-103552380D01*
X225057142Y-103552380D01*
X224961904Y-103600000D01*
X224914285Y-103647619D01*
X224866666Y-103742857D01*
X224866666Y-103885714D01*
X224914285Y-103980952D01*
X224961904Y-104028571D01*
X225057142Y-104076190D01*
X225438095Y-104076190D01*
X224533333Y-103552380D02*
X223866666Y-103552380D01*
X224295238Y-104552380D01*
X221966666Y-115852380D02*
X222300000Y-115376190D01*
X222538095Y-115852380D02*
X222538095Y-114852380D01*
X222157142Y-114852380D01*
X222061904Y-114900000D01*
X222014285Y-114947619D01*
X221966666Y-115042857D01*
X221966666Y-115185714D01*
X222014285Y-115280952D01*
X222061904Y-115328571D01*
X222157142Y-115376190D01*
X222538095Y-115376190D01*
X221109523Y-115185714D02*
X221109523Y-115852380D01*
X221347619Y-114804761D02*
X221585714Y-115519047D01*
X220966666Y-115519047D01*
X218766666Y-114452380D02*
X219100000Y-113976190D01*
X219338095Y-114452380D02*
X219338095Y-113452380D01*
X218957142Y-113452380D01*
X218861904Y-113500000D01*
X218814285Y-113547619D01*
X218766666Y-113642857D01*
X218766666Y-113785714D01*
X218814285Y-113880952D01*
X218861904Y-113928571D01*
X218957142Y-113976190D01*
X219338095Y-113976190D01*
X218433333Y-113452380D02*
X217814285Y-113452380D01*
X218147619Y-113833333D01*
X218004761Y-113833333D01*
X217909523Y-113880952D01*
X217861904Y-113928571D01*
X217814285Y-114023809D01*
X217814285Y-114261904D01*
X217861904Y-114357142D01*
X217909523Y-114404761D01*
X218004761Y-114452380D01*
X218290476Y-114452380D01*
X218385714Y-114404761D01*
X218433333Y-114357142D01*
X206752380Y-113133333D02*
X206276190Y-112800000D01*
X206752380Y-112561904D02*
X205752380Y-112561904D01*
X205752380Y-112942857D01*
X205800000Y-113038095D01*
X205847619Y-113085714D01*
X205942857Y-113133333D01*
X206085714Y-113133333D01*
X206180952Y-113085714D01*
X206228571Y-113038095D01*
X206276190Y-112942857D01*
X206276190Y-112561904D01*
X205752380Y-113990476D02*
X205752380Y-113800000D01*
X205800000Y-113704761D01*
X205847619Y-113657142D01*
X205990476Y-113561904D01*
X206180952Y-113514285D01*
X206561904Y-113514285D01*
X206657142Y-113561904D01*
X206704761Y-113609523D01*
X206752380Y-113704761D01*
X206752380Y-113895238D01*
X206704761Y-113990476D01*
X206657142Y-114038095D01*
X206561904Y-114085714D01*
X206323809Y-114085714D01*
X206228571Y-114038095D01*
X206180952Y-113990476D01*
X206133333Y-113895238D01*
X206133333Y-113704761D01*
X206180952Y-113609523D01*
X206228571Y-113561904D01*
X206323809Y-113514285D01*
X197766666Y-104052380D02*
X198100000Y-103576190D01*
X198338095Y-104052380D02*
X198338095Y-103052380D01*
X197957142Y-103052380D01*
X197861904Y-103100000D01*
X197814285Y-103147619D01*
X197766666Y-103242857D01*
X197766666Y-103385714D01*
X197814285Y-103480952D01*
X197861904Y-103528571D01*
X197957142Y-103576190D01*
X198338095Y-103576190D01*
X196861904Y-103052380D02*
X197338095Y-103052380D01*
X197385714Y-103528571D01*
X197338095Y-103480952D01*
X197242857Y-103433333D01*
X197004761Y-103433333D01*
X196909523Y-103480952D01*
X196861904Y-103528571D01*
X196814285Y-103623809D01*
X196814285Y-103861904D01*
X196861904Y-103957142D01*
X196909523Y-104004761D01*
X197004761Y-104052380D01*
X197242857Y-104052380D01*
X197338095Y-104004761D01*
X197385714Y-103957142D01*
X208952380Y-116233333D02*
X208476190Y-115900000D01*
X208952380Y-115661904D02*
X207952380Y-115661904D01*
X207952380Y-116042857D01*
X208000000Y-116138095D01*
X208047619Y-116185714D01*
X208142857Y-116233333D01*
X208285714Y-116233333D01*
X208380952Y-116185714D01*
X208428571Y-116138095D01*
X208476190Y-116042857D01*
X208476190Y-115661904D01*
X208047619Y-116614285D02*
X208000000Y-116661904D01*
X207952380Y-116757142D01*
X207952380Y-116995238D01*
X208000000Y-117090476D01*
X208047619Y-117138095D01*
X208142857Y-117185714D01*
X208238095Y-117185714D01*
X208380952Y-117138095D01*
X208952380Y-116566666D01*
X208952380Y-117185714D01*
X199752380Y-102261904D02*
X198752380Y-102261904D01*
X198752380Y-102500000D01*
X198800000Y-102642857D01*
X198895238Y-102738095D01*
X198990476Y-102785714D01*
X199180952Y-102833333D01*
X199323809Y-102833333D01*
X199514285Y-102785714D01*
X199609523Y-102738095D01*
X199704761Y-102642857D01*
X199752380Y-102500000D01*
X199752380Y-102261904D01*
X198752380Y-103166666D02*
X198752380Y-103785714D01*
X199133333Y-103452380D01*
X199133333Y-103595238D01*
X199180952Y-103690476D01*
X199228571Y-103738095D01*
X199323809Y-103785714D01*
X199561904Y-103785714D01*
X199657142Y-103738095D01*
X199704761Y-103690476D01*
X199752380Y-103595238D01*
X199752380Y-103309523D01*
X199704761Y-103214285D01*
X199657142Y-103166666D01*
X229688095Y-105952380D02*
X229688095Y-104952380D01*
X229450000Y-104952380D01*
X229307142Y-105000000D01*
X229211904Y-105095238D01*
X229164285Y-105190476D01*
X229116666Y-105380952D01*
X229116666Y-105523809D01*
X229164285Y-105714285D01*
X229211904Y-105809523D01*
X229307142Y-105904761D01*
X229450000Y-105952380D01*
X229688095Y-105952380D01*
X228735714Y-105047619D02*
X228688095Y-105000000D01*
X228592857Y-104952380D01*
X228354761Y-104952380D01*
X228259523Y-105000000D01*
X228211904Y-105047619D01*
X228164285Y-105142857D01*
X228164285Y-105238095D01*
X228211904Y-105380952D01*
X228783333Y-105952380D01*
X228164285Y-105952380D01*
X212757142Y-111933333D02*
X212804761Y-111885714D01*
X212852380Y-111742857D01*
X212852380Y-111647619D01*
X212804761Y-111504761D01*
X212709523Y-111409523D01*
X212614285Y-111361904D01*
X212423809Y-111314285D01*
X212280952Y-111314285D01*
X212090476Y-111361904D01*
X211995238Y-111409523D01*
X211900000Y-111504761D01*
X211852380Y-111647619D01*
X211852380Y-111742857D01*
X211900000Y-111885714D01*
X211947619Y-111933333D01*
X211852380Y-112790476D02*
X211852380Y-112600000D01*
X211900000Y-112504761D01*
X211947619Y-112457142D01*
X212090476Y-112361904D01*
X212280952Y-112314285D01*
X212661904Y-112314285D01*
X212757142Y-112361904D01*
X212804761Y-112409523D01*
X212852380Y-112504761D01*
X212852380Y-112695238D01*
X212804761Y-112790476D01*
X212757142Y-112838095D01*
X212661904Y-112885714D01*
X212423809Y-112885714D01*
X212328571Y-112838095D01*
X212280952Y-112790476D01*
X212233333Y-112695238D01*
X212233333Y-112504761D01*
X212280952Y-112409523D01*
X212328571Y-112361904D01*
X212423809Y-112314285D01*
X212666666Y-105157142D02*
X212714285Y-105204761D01*
X212857142Y-105252380D01*
X212952380Y-105252380D01*
X213095238Y-105204761D01*
X213190476Y-105109523D01*
X213238095Y-105014285D01*
X213285714Y-104823809D01*
X213285714Y-104680952D01*
X213238095Y-104490476D01*
X213190476Y-104395238D01*
X213095238Y-104300000D01*
X212952380Y-104252380D01*
X212857142Y-104252380D01*
X212714285Y-104300000D01*
X212666666Y-104347619D01*
X211761904Y-104252380D02*
X212238095Y-104252380D01*
X212285714Y-104728571D01*
X212238095Y-104680952D01*
X212142857Y-104633333D01*
X211904761Y-104633333D01*
X211809523Y-104680952D01*
X211761904Y-104728571D01*
X211714285Y-104823809D01*
X211714285Y-105061904D01*
X211761904Y-105157142D01*
X211809523Y-105204761D01*
X211904761Y-105252380D01*
X212142857Y-105252380D01*
X212238095Y-105204761D01*
X212285714Y-105157142D01*
X222557142Y-107933333D02*
X222604761Y-107885714D01*
X222652380Y-107742857D01*
X222652380Y-107647619D01*
X222604761Y-107504761D01*
X222509523Y-107409523D01*
X222414285Y-107361904D01*
X222223809Y-107314285D01*
X222080952Y-107314285D01*
X221890476Y-107361904D01*
X221795238Y-107409523D01*
X221700000Y-107504761D01*
X221652380Y-107647619D01*
X221652380Y-107742857D01*
X221700000Y-107885714D01*
X221747619Y-107933333D01*
X221985714Y-108790476D02*
X222652380Y-108790476D01*
X221604761Y-108552380D02*
X222319047Y-108314285D01*
X222319047Y-108933333D01*
X215957142Y-103133333D02*
X216004761Y-103085714D01*
X216052380Y-102942857D01*
X216052380Y-102847619D01*
X216004761Y-102704761D01*
X215909523Y-102609523D01*
X215814285Y-102561904D01*
X215623809Y-102514285D01*
X215480952Y-102514285D01*
X215290476Y-102561904D01*
X215195238Y-102609523D01*
X215100000Y-102704761D01*
X215052380Y-102847619D01*
X215052380Y-102942857D01*
X215100000Y-103085714D01*
X215147619Y-103133333D01*
X215052380Y-103466666D02*
X215052380Y-104085714D01*
X215433333Y-103752380D01*
X215433333Y-103895238D01*
X215480952Y-103990476D01*
X215528571Y-104038095D01*
X215623809Y-104085714D01*
X215861904Y-104085714D01*
X215957142Y-104038095D01*
X216004761Y-103990476D01*
X216052380Y-103895238D01*
X216052380Y-103609523D01*
X216004761Y-103514285D01*
X215957142Y-103466666D01*
X222957142Y-110733333D02*
X223004761Y-110685714D01*
X223052380Y-110542857D01*
X223052380Y-110447619D01*
X223004761Y-110304761D01*
X222909523Y-110209523D01*
X222814285Y-110161904D01*
X222623809Y-110114285D01*
X222480952Y-110114285D01*
X222290476Y-110161904D01*
X222195238Y-110209523D01*
X222100000Y-110304761D01*
X222052380Y-110447619D01*
X222052380Y-110542857D01*
X222100000Y-110685714D01*
X222147619Y-110733333D01*
X222147619Y-111114285D02*
X222100000Y-111161904D01*
X222052380Y-111257142D01*
X222052380Y-111495238D01*
X222100000Y-111590476D01*
X222147619Y-111638095D01*
X222242857Y-111685714D01*
X222338095Y-111685714D01*
X222480952Y-111638095D01*
X223052380Y-111066666D01*
X223052380Y-111685714D01*
X210757142Y-116233333D02*
X210804761Y-116185714D01*
X210852380Y-116042857D01*
X210852380Y-115947619D01*
X210804761Y-115804761D01*
X210709523Y-115709523D01*
X210614285Y-115661904D01*
X210423809Y-115614285D01*
X210280952Y-115614285D01*
X210090476Y-115661904D01*
X209995238Y-115709523D01*
X209900000Y-115804761D01*
X209852380Y-115947619D01*
X209852380Y-116042857D01*
X209900000Y-116185714D01*
X209947619Y-116233333D01*
X210852380Y-117185714D02*
X210852380Y-116614285D01*
X210852380Y-116900000D02*
X209852380Y-116900000D01*
X209995238Y-116804761D01*
X210090476Y-116709523D01*
X210138095Y-116614285D01*
X217028571Y-110814285D02*
X217076190Y-110957142D01*
X217123809Y-111004761D01*
X217219047Y-111052380D01*
X217361904Y-111052380D01*
X217457142Y-111004761D01*
X217504761Y-110957142D01*
X217552380Y-110861904D01*
X217552380Y-110480952D01*
X216552380Y-110480952D01*
X216552380Y-110814285D01*
X216600000Y-110909523D01*
X216647619Y-110957142D01*
X216742857Y-111004761D01*
X216838095Y-111004761D01*
X216933333Y-110957142D01*
X216980952Y-110909523D01*
X217028571Y-110814285D01*
X217028571Y-110480952D01*
X216552380Y-111338095D02*
X216552380Y-111909523D01*
X217552380Y-111623809D02*
X216552380Y-111623809D01*
X217552380Y-112766666D02*
X217552380Y-112195238D01*
X217552380Y-112480952D02*
X216552380Y-112480952D01*
X216695238Y-112385714D01*
X216790476Y-112290476D01*
X216838095Y-112195238D01*
X227202380Y-114916666D02*
X227916666Y-114916666D01*
X228059523Y-114869047D01*
X228154761Y-114773809D01*
X228202380Y-114630952D01*
X228202380Y-114535714D01*
X228202380Y-115916666D02*
X228202380Y-115345238D01*
X228202380Y-115630952D02*
X227202380Y-115630952D01*
X227345238Y-115535714D01*
X227440476Y-115440476D01*
X227488095Y-115345238D01*
X189642857Y-103152380D02*
X189976190Y-102676190D01*
X190214285Y-103152380D02*
X190214285Y-102152380D01*
X189833333Y-102152380D01*
X189738095Y-102200000D01*
X189690476Y-102247619D01*
X189642857Y-102342857D01*
X189642857Y-102485714D01*
X189690476Y-102580952D01*
X189738095Y-102628571D01*
X189833333Y-102676190D01*
X190214285Y-102676190D01*
X188690476Y-103152380D02*
X189261904Y-103152380D01*
X188976190Y-103152380D02*
X188976190Y-102152380D01*
X189071428Y-102295238D01*
X189166666Y-102390476D01*
X189261904Y-102438095D01*
X188214285Y-103152380D02*
X188023809Y-103152380D01*
X187928571Y-103104761D01*
X187880952Y-103057142D01*
X187785714Y-102914285D01*
X187738095Y-102723809D01*
X187738095Y-102342857D01*
X187785714Y-102247619D01*
X187833333Y-102200000D01*
X187928571Y-102152380D01*
X188119047Y-102152380D01*
X188214285Y-102200000D01*
X188261904Y-102247619D01*
X188309523Y-102342857D01*
X188309523Y-102580952D01*
X188261904Y-102676190D01*
X188214285Y-102723809D01*
X188119047Y-102771428D01*
X187928571Y-102771428D01*
X187833333Y-102723809D01*
X187785714Y-102676190D01*
X187738095Y-102580952D01*
X189842857Y-106952380D02*
X190176190Y-106476190D01*
X190414285Y-106952380D02*
X190414285Y-105952380D01*
X190033333Y-105952380D01*
X189938095Y-106000000D01*
X189890476Y-106047619D01*
X189842857Y-106142857D01*
X189842857Y-106285714D01*
X189890476Y-106380952D01*
X189938095Y-106428571D01*
X190033333Y-106476190D01*
X190414285Y-106476190D01*
X188890476Y-106952380D02*
X189461904Y-106952380D01*
X189176190Y-106952380D02*
X189176190Y-105952380D01*
X189271428Y-106095238D01*
X189366666Y-106190476D01*
X189461904Y-106238095D01*
X188033333Y-105952380D02*
X188223809Y-105952380D01*
X188319047Y-106000000D01*
X188366666Y-106047619D01*
X188461904Y-106190476D01*
X188509523Y-106380952D01*
X188509523Y-106761904D01*
X188461904Y-106857142D01*
X188414285Y-106904761D01*
X188319047Y-106952380D01*
X188128571Y-106952380D01*
X188033333Y-106904761D01*
X187985714Y-106857142D01*
X187938095Y-106761904D01*
X187938095Y-106523809D01*
X187985714Y-106428571D01*
X188033333Y-106380952D01*
X188128571Y-106333333D01*
X188319047Y-106333333D01*
X188414285Y-106380952D01*
X188461904Y-106428571D01*
X188509523Y-106523809D01*
X189638095Y-104952380D02*
X189638095Y-103952380D01*
X189400000Y-103952380D01*
X189257142Y-104000000D01*
X189161904Y-104095238D01*
X189114285Y-104190476D01*
X189066666Y-104380952D01*
X189066666Y-104523809D01*
X189114285Y-104714285D01*
X189161904Y-104809523D01*
X189257142Y-104904761D01*
X189400000Y-104952380D01*
X189638095Y-104952380D01*
X188209523Y-104285714D02*
X188209523Y-104952380D01*
X188447619Y-103904761D02*
X188685714Y-104619047D01*
X188066666Y-104619047D01*
X217533333Y-103752380D02*
X217533333Y-104466666D01*
X217580952Y-104609523D01*
X217676190Y-104704761D01*
X217819047Y-104752380D01*
X217914285Y-104752380D01*
X216628571Y-104085714D02*
X216628571Y-104752380D01*
X216866666Y-103704761D02*
X217104761Y-104419047D01*
X216485714Y-104419047D01*
X179542857Y-113252380D02*
X179876190Y-112776190D01*
X180114285Y-113252380D02*
X180114285Y-112252380D01*
X179733333Y-112252380D01*
X179638095Y-112300000D01*
X179590476Y-112347619D01*
X179542857Y-112442857D01*
X179542857Y-112585714D01*
X179590476Y-112680952D01*
X179638095Y-112728571D01*
X179733333Y-112776190D01*
X180114285Y-112776190D01*
X179161904Y-112347619D02*
X179114285Y-112300000D01*
X179019047Y-112252380D01*
X178780952Y-112252380D01*
X178685714Y-112300000D01*
X178638095Y-112347619D01*
X178590476Y-112442857D01*
X178590476Y-112538095D01*
X178638095Y-112680952D01*
X179209523Y-113252380D01*
X178590476Y-113252380D01*
X177733333Y-112252380D02*
X177923809Y-112252380D01*
X178019047Y-112300000D01*
X178066666Y-112347619D01*
X178161904Y-112490476D01*
X178209523Y-112680952D01*
X178209523Y-113061904D01*
X178161904Y-113157142D01*
X178114285Y-113204761D01*
X178019047Y-113252380D01*
X177828571Y-113252380D01*
X177733333Y-113204761D01*
X177685714Y-113157142D01*
X177638095Y-113061904D01*
X177638095Y-112823809D01*
X177685714Y-112728571D01*
X177733333Y-112680952D01*
X177828571Y-112633333D01*
X178019047Y-112633333D01*
X178114285Y-112680952D01*
X178161904Y-112728571D01*
X178209523Y-112823809D01*
X179082857Y-107702380D02*
X179416190Y-107226190D01*
X179654285Y-107702380D02*
X179654285Y-106702380D01*
X179273333Y-106702380D01*
X179178095Y-106750000D01*
X179130476Y-106797619D01*
X179082857Y-106892857D01*
X179082857Y-107035714D01*
X179130476Y-107130952D01*
X179178095Y-107178571D01*
X179273333Y-107226190D01*
X179654285Y-107226190D01*
X178701904Y-106797619D02*
X178654285Y-106750000D01*
X178559047Y-106702380D01*
X178320952Y-106702380D01*
X178225714Y-106750000D01*
X178178095Y-106797619D01*
X178130476Y-106892857D01*
X178130476Y-106988095D01*
X178178095Y-107130952D01*
X178749523Y-107702380D01*
X178130476Y-107702380D01*
X177225714Y-106702380D02*
X177701904Y-106702380D01*
X177749523Y-107178571D01*
X177701904Y-107130952D01*
X177606666Y-107083333D01*
X177368571Y-107083333D01*
X177273333Y-107130952D01*
X177225714Y-107178571D01*
X177178095Y-107273809D01*
X177178095Y-107511904D01*
X177225714Y-107607142D01*
X177273333Y-107654761D01*
X177368571Y-107702380D01*
X177606666Y-107702380D01*
X177701904Y-107654761D01*
X177749523Y-107607142D01*
X179312857Y-115232380D02*
X179646190Y-114756190D01*
X179884285Y-115232380D02*
X179884285Y-114232380D01*
X179503333Y-114232380D01*
X179408095Y-114280000D01*
X179360476Y-114327619D01*
X179312857Y-114422857D01*
X179312857Y-114565714D01*
X179360476Y-114660952D01*
X179408095Y-114708571D01*
X179503333Y-114756190D01*
X179884285Y-114756190D01*
X178931904Y-114327619D02*
X178884285Y-114280000D01*
X178789047Y-114232380D01*
X178550952Y-114232380D01*
X178455714Y-114280000D01*
X178408095Y-114327619D01*
X178360476Y-114422857D01*
X178360476Y-114518095D01*
X178408095Y-114660952D01*
X178979523Y-115232380D01*
X178360476Y-115232380D01*
X177503333Y-114565714D02*
X177503333Y-115232380D01*
X177741428Y-114184761D02*
X177979523Y-114899047D01*
X177360476Y-114899047D01*
X179392380Y-103091904D02*
X178392380Y-103091904D01*
X178392380Y-103330000D01*
X178440000Y-103472857D01*
X178535238Y-103568095D01*
X178630476Y-103615714D01*
X178820952Y-103663333D01*
X178963809Y-103663333D01*
X179154285Y-103615714D01*
X179249523Y-103568095D01*
X179344761Y-103472857D01*
X179392380Y-103330000D01*
X179392380Y-103091904D01*
X178392380Y-104520476D02*
X178392380Y-104330000D01*
X178440000Y-104234761D01*
X178487619Y-104187142D01*
X178630476Y-104091904D01*
X178820952Y-104044285D01*
X179201904Y-104044285D01*
X179297142Y-104091904D01*
X179344761Y-104139523D01*
X179392380Y-104234761D01*
X179392380Y-104425238D01*
X179344761Y-104520476D01*
X179297142Y-104568095D01*
X179201904Y-104615714D01*
X178963809Y-104615714D01*
X178868571Y-104568095D01*
X178820952Y-104520476D01*
X178773333Y-104425238D01*
X178773333Y-104234761D01*
X178820952Y-104139523D01*
X178868571Y-104091904D01*
X178963809Y-104044285D01*
X178347619Y-118838095D02*
X179347619Y-118838095D01*
X179347619Y-118600000D01*
X179300000Y-118457142D01*
X179204761Y-118361904D01*
X179109523Y-118314285D01*
X178919047Y-118266666D01*
X178776190Y-118266666D01*
X178585714Y-118314285D01*
X178490476Y-118361904D01*
X178395238Y-118457142D01*
X178347619Y-118600000D01*
X178347619Y-118838095D01*
X179347619Y-117361904D02*
X179347619Y-117838095D01*
X178871428Y-117885714D01*
X178919047Y-117838095D01*
X178966666Y-117742857D01*
X178966666Y-117504761D01*
X178919047Y-117409523D01*
X178871428Y-117361904D01*
X178776190Y-117314285D01*
X178538095Y-117314285D01*
X178442857Y-117361904D01*
X178395238Y-117409523D01*
X178347619Y-117504761D01*
X178347619Y-117742857D01*
X178395238Y-117838095D01*
X178442857Y-117885714D01*
X178735238Y-110517619D02*
X178830476Y-110470000D01*
X178925714Y-110374761D01*
X179068571Y-110231904D01*
X179163809Y-110184285D01*
X179259047Y-110184285D01*
X179211428Y-110422380D02*
X179306666Y-110374761D01*
X179401904Y-110279523D01*
X179449523Y-110089047D01*
X179449523Y-109755714D01*
X179401904Y-109565238D01*
X179306666Y-109470000D01*
X179211428Y-109422380D01*
X179020952Y-109422380D01*
X178925714Y-109470000D01*
X178830476Y-109565238D01*
X178782857Y-109755714D01*
X178782857Y-110089047D01*
X178830476Y-110279523D01*
X178925714Y-110374761D01*
X179020952Y-110422380D01*
X179211428Y-110422380D01*
X178401904Y-109517619D02*
X178354285Y-109470000D01*
X178259047Y-109422380D01*
X178020952Y-109422380D01*
X177925714Y-109470000D01*
X177878095Y-109517619D01*
X177830476Y-109612857D01*
X177830476Y-109708095D01*
X177878095Y-109850952D01*
X178449523Y-110422380D01*
X177830476Y-110422380D01*
X187952380Y-110538095D02*
X188761904Y-110538095D01*
X188857142Y-110585714D01*
X188904761Y-110633333D01*
X188952380Y-110728571D01*
X188952380Y-110919047D01*
X188904761Y-111014285D01*
X188857142Y-111061904D01*
X188761904Y-111109523D01*
X187952380Y-111109523D01*
X187952380Y-111490476D02*
X187952380Y-112157142D01*
X188952380Y-111728571D01*
M02*
